/* XPM */
static char *feca2fe9cdc34ce9eda4e715e6bc9c25CoDcX5Ss3flcqgZn[] = {
/* columns rows colors chars-per-pixel */
"64 64 234 2 ",
"   c #000000",
".  c #0A0201",
"X  c #030901",
"o  c #0C0A02",
"O  c #02020A",
"+  c #08040B",
"@  c #07090B",
"#  c #120301",
"$  c #100B01",
"%  c #180D05",
"&  c #131100",
"*  c #1B1401",
"=  c #191908",
"-  c #000113",
";  c #050516",
":  c #191813",
">  c #230900",
",  c #2D0F0D",
"<  c #241401",
"1  c #2B1502",
"2  c #221900",
"3  c #2B1B00",
"4  c #28140D",
"5  c #2D1A0C",
"6  c #331B06",
"7  c #260E13",
"8  c #271A15",
"9  c #311717",
"0  c #320C19",
"q  c #29220A",
"w  c #34240D",
"e  c #38270E",
"r  c #352A0C",
"t  c #3C260B",
"y  c #2B241B",
"u  c #2E2818",
"i  c #342612",
"p  c #352A14",
"a  c #3B2C14",
"s  c #31261B",
"d  c #352B1C",
"f  c #3B2C1B",
"g  c #3A2612",
"h  c #363215",
"j  c #3B3116",
"k  c #3D321C",
"l  c #3E381E",
"z  c #0C1628",
"x  c #171421",
"c  c #111634",
"v  c #241824",
"b  c #391823",
"n  c #192134",
"m  c #2A2727",
"M  c #342C22",
"N  c #3A2D25",
"B  c #302523",
"V  c #3B3323",
"C  c #35312B",
"Z  c #3C342B",
"A  c #383525",
"S  c #29283A",
"D  c #352A35",
"F  c #293438",
"G  c #3C3D33",
"H  c #400C00",
"J  c #441D08",
"K  c #461711",
"L  c #47270A",
"P  c #522200",
"I  c #4C3707",
"U  c #543C03",
"Y  c #432E16",
"T  c #422D1B",
"R  c #462917",
"E  c #423216",
"W  c #43341C",
"Q  c #4B331C",
"!  c #44391E",
"~  c #4B3D1C",
"^  c #4B3914",
"/  c #583618",
"(  c #673B0E",
")  c #442F25",
"_  c #433522",
"`  c #4A3523",
"'  c #453A22",
"]  c #4B3C23",
"[  c #453C29",
"{  c #4B3D2B",
"}  c #40362A",
"|  c #523A25",
" . c #513C2C",
".. c #583925",
"X. c #433A35",
"o. c #523B35",
"O. c #452E34",
"+. c #4C4010",
"@. c #754D0E",
"#. c #744B13",
"$. c #765417",
"%. c #7B6A18",
"&. c #454126",
"*. c #4D4026",
"=. c #4D422A",
"-. c #45402A",
";. c #524126",
":. c #53442C",
">. c #55492F",
",. c #5B4C2E",
"<. c #5A452B",
"1. c #4E4433",
"2. c #454A3A",
"3. c #534236",
"4. c #544B33",
"5. c #5A4A31",
"6. c #5B4C34",
"7. c #5D4D39",
"8. c #594937",
"9. c #5D5035",
"0. c #5C5039",
"q. c #6C4B22",
"w. c #644627",
"e. c #624F34",
"r. c #624F3C",
"t. c #62523A",
"y. c #6A523D",
"u. c #785338",
"i. c #796725",
"p. c #746531",
"a. c #0C1D49",
"s. c #1B2B4E",
"d. c #1A2957",
"f. c #252D43",
"g. c #2B2B45",
"h. c #242755",
"j. c #243256",
"k. c #3D3D55",
"l. c #332C46",
"z. c #12286C",
"x. c #272963",
"c. c #363A63",
"v. c #2F3C71",
"b. c #463042",
"n. c #3A4169",
"m. c #2C4574",
"M. c #4D4645",
"N. c #424859",
"B. c #74484C",
"V. c #665446",
"C. c #6E5050",
"Z. c #7A6949",
"A. c #786B5B",
"S. c #414260",
"D. c #55546E",
"F. c #5E667D",
"G. c #6C6C75",
"H. c #8E7416",
"J. c #8B6E22",
"K. c #856F24",
"L. c #937531",
"P. c #865046",
"I. c #A87859",
"U. c #9B7B6C",
"Y. c #96833F",
"T. c #9B802F",
"R. c #C8AA3B",
"E. c #D7B237",
"W. c #9A8145",
"Q. c #A5866A",
"!. c #B28160",
"~. c #B88B77",
"^. c #B49B78",
"/. c #BC916F",
"(. c #B5A260",
"). c #C6A942",
"_. c #D7B446",
"`. c #D5B453",
"'. c #CAAA51",
"]. c #30408E",
"[. c #2C448E",
"{. c #2847A4",
"}. c #566B99",
"|. c #4C6AA9",
" X c #5A6BA9",
".X c #4C65B9",
"XX c #5A6BB0",
"oX c #636DAB",
"OX c #526AC7",
"+X c #9C8F99",
"@X c #BE8E80",
"#X c #B69687",
"$X c #A99280",
"%X c #BCAC95",
"&X c #B1B3B5",
"*X c #A194AD",
"=X c #C19184",
"-X c #D59D95",
";X c #C7B789",
":X c #CDAC94",
">X c #C8B697",
",X c #D1B999",
"<X c #D0A988",
"1X c #CCADA9",
"2X c #C9BAA5",
"3X c #C5A9B5",
"4X c #C9C19D",
"5X c #F8CC9F",
"6X c #CEC9B6",
"7X c #FFCEAD",
"8X c #FECEB7",
"9X c #FED4BB",
"0X c #FAD8BA",
"qX c #F3CCAC",
"wX c #F0E4BE",
"eX c #9BABDA",
"rX c #A2A5CA",
"tX c #B5BCCA",
"yX c #A3AFDF",
"uX c #AAB4D8",
"iX c #A7B4C7",
"pX c #9AADEC",
"aX c #94B2F3",
"sX c #96AFF4",
"dX c #A6B8EA",
"fX c #DFCFC0",
"gX c #DCDBDB",
"hX c #D9DBC6",
"jX c #EBDBCB",
"kX c #F9D8C7",
"lX c #E5DED9",
"zX c #FBE3C6",
"xX c #E8E1CE",
"cX c #D2DBE2",
/* pixels */
"                                X                                                                                               ",
"                                                                                        O                                       ",
"                                                                                                                                ",
"                                                                                                                                ",
"                                                                                                                                ",
"                                                                                                                                ",
"                                                      O       O                                                                 ",
"                                            O                       O                                                           ",
"                                        @       O           .     O     O O     O   O                                           ",
"                                          O O       O         X   O   .     + +                                                 ",
"                                @             O O o . . .   .   .   .     . O     O       O                                     ",
"                                        O         O     # N s M N . .   .     o       O                                         ",
"                                                . . . . y u 1.V s s . .     .                                                   ",
"                                            .   M M s f k :.j ] ] d V y M N X                                                   ",
"                                          . % y M M f d 6.] 5.,.:.4.p k } A s                                                   ",
"                                          . 8 } V V i a W 9.,.6.9.k a p d k M M                                                 ",
"                                      .   N p l =.p l p Q ' W | ' Q i W j &.V d d $                                             ",
"                                O   o   d f k ] >.~ a p _ 8.{ _ 0.E W q *.4.=.d d y . .     X                                   ",
"                                  O   . V k i ] *.6.:.i ] _ ] f ` _ E =.4.] *.p N N #   X                                       ",
"                                  O   M d { E W 9.6.>.p _ k :.W _ _ w t.e.>.! i { V s   . @   X                                 ",
"                                    X d V { :.W ! ~ 6.6.w a ' ] g f r.5.~ W W t.{ f M .       O                                 ",
"                                    B M 1._ 6.,.' ~ :.>.' k i d f _ r.| ;.;.<.6._ { N M .   .                                   ",
"                                    Z A [ i ] 5.,.9.6.! =.p l ] f  .{ 6.,.5.9.' p { N A .                                       ",
"                                O   M } [ a ~ ] *.] ] =.j h 4.j f N _ ] | ] ~ Q f { } y   X                                     ",
"                                X     f { t.w Y ] ~ ] E ! r l 0.V k _ ' ] ] t a 7.[ A                                           ",
"                                    . M d ] 8.a a Y W k a h >.' 4.f W f t E e 6._ A y         @                                 ",
"                                O     . s T 5.Q e.5.5.*.w ' =.W [ V *.5.y.<.;.] ' A X                                           ",
"                                  X . . 5 N g T T ] =.] a ! ! ' V p w >.Q ` g f p 8   .                                         ",
"                                O     . 8 V.jXg T W W i W i >.:.a k a Q Q R R jXV.y         O                                   ",
"                                @   .   . 5 jXR ` T a T a 6.;.>.' ~ e ..Q Q R jX4 .   @     X                                   ",
"                                  O   . . # 4 8.T g ` w 6.7.] E ! t.a Q Q #XB.5 # . .     O                                     ",
"                                  O   O . . # 5 $X%XQ R Q a W ! j ] a Q =X^., # . .       X                                     ",
"                                    O     . . # 3 ^.<XL ^ ~ e.| t ` f a Q.6 # .   X X . .     X                                 ",
"                                  @ O O   O 4X>X>X<Xy.^ <.;.<...y._ f a ^.,X%X4X  X . . . O                                     ",
"                                .         %XzX,X,XkXp f _ f { { i ' A p wX;X;XxX&XX     O O @                                   ",
"                                .   @ O F fX6X4X>X2Xu Z 8.` f { l ' 4.d >X;X4XhXtXf.O     O O                                   ",
"                                  ; ; s.m.dXtXgX6X4Xh &.i 3.] ] h &.{ f 4XjXgXuXdX].j.- ; +                                     ",
"                                O O ; d.|.aX}.iXlXxXh &.] *.w *.*.j _ p lXgXiX XsXXXs.- O .   X                                 ",
"                                      ; z.|.sXeXk.D u l j E ,.e.a E ] W D n.dXpXoXh.;   . O X                                   ",
"                                X     - c j.x.d.S.m 2.0.j ^ ,.r ` E Q 8.g.v.x.h.h.D.: .   .                                     ",
"                                    . 7 C.1X3XD b.D A f j :.-.V o.3.~ A f.c.l.*X@X1Xv + O   X                                   ",
"                                    # 9 =X-X=XR N D V k ! 4.k 3.o.3.h 2.f.k.b.B.8X~.7 - O                                       ",
"                                o . . b -XkX~.K  .{ _ ! 4.&.l ,.:.l h G S g.0 P.7X5X<   O O O .                                 ",
"                                  . . 0 K H P.J | ;.! =.4.q *.;.] k h M F v > I.L.#.3 o   + .                                   ",
"                                  . 9 1 J t 5 w ` 8.R 5.1.} { R ] f d C &X: # q.@.@.* &     . +                                 ",
"                                O O 9 :X0X1 6 a W 8.E f _  .T f _ j A.lXcXF * q.@.$.E . o   @                                   ",
"                                O   1 :XzX0XqXQ W 8.7.] Q ^ ~ 0.{ d G.tX|.m.: w.#.( 6 #       -                                 ",
"                                  . 5 ~.9X9XkXQ.d f a w.L L A 8.X.D *XeX.X[.x | q./ #   o     O                                 ",
"                                  X 9 B.9X9X9XV.v A Q w.P / M.N.g.d..X.XOX].c # # o X         O                                 ",
"                                o   + 7 ~.8X:X9 D D.T <X<X!.M.F.D.XXz.{.OXz.z O X                                               ",
"                                      + , , 7 v x.rX+XU.I.!.) 8 a.d.[.sX Xa.- X             O                                   ",
"                                  @ @   . #   x j.yX&XO.J / ..O.g.}.sXsXm.c O       O     @   O                                 ",
"                                .     O       : x }.rXg.O.R { M.f.}.pXpXj.z O   O O   O O                                       ",
"                                . .   O     = k & [ M.X.f g 1.m f.v.yXyXz O O @ + + O O .                                       ",
"                                .           $ ~ ^ U %.W.p.r y D S k.N.m 8     O O O   . .   X                                   ",
"                                O +   X   X * Z.U T.).R.%.2 . D % A.A.Z.' * O         . X                                       ",
"                                @   O O O   # < J.).E.R.H.3 . . 1 W.T.H.U ^ =         X                                         ",
"                                @   O O     # % L.`.'.).K.<   2 U ).R.T.U I & X X       .                                       ",
"                                      .     . . 5 W.(.L.~ * o * J.R.E.E.J.p.q   X X       O O O                                 ",
"                                          .     O 2 2 * %     * K.R.R.`.W.<               O O O                                 ",
"                                                    X     .   * +.i.(.L.I 1                   +                                 ",
"                                    O   O   @   X     O . O   . = 3 6 > < . O O O           O O                                 ",
"                                        O O   X     O . . X     X     % .     O O O                                             ",
"                                X       O         .   O O     X X   . .       O O @     X X                                     "
};
