/* XPM */
static char * back2_xpm[] = {
"64 64 268 2",
"  	c #AEAEAE",
". 	c #AFAFAF",
"+ 	c #ACACAC",
"@ 	c #ABABAB",
"# 	c #AAAAAA",
"$ 	c #ADADAD",
"% 	c #B1B1B1",
"& 	c #B4B4B4",
"* 	c #B0B0B0",
"= 	c #A9A9A9",
"- 	c #A7A7A7",
"; 	c #A6A6A6",
"> 	c #A3A3A3",
", 	c #A4A4A4",
"' 	c #A5A5A5",
") 	c #A2A2A2",
"! 	c #A8A8A8",
"~ 	c #A1A1A1",
"{ 	c #A0A0A0",
"] 	c #B3B3B3",
"^ 	c #B2B2B2",
"/ 	c #9F9F9F",
"( 	c #9E9E9E",
"_ 	c #9D9D9D",
": 	c #3A2D25",
"< 	c #31261B",
"[ 	c #342C22",
"} 	c #9C9C9C",
"| 	c #2B241B",
"1 	c #2E2818",
"2 	c #4E4433",
"3 	c #3B3323",
"4 	c #9B9B9B",
"5 	c #3B2C1B",
"6 	c #3D321C",
"7 	c #53442C",
"8 	c #3B3116",
"9 	c #4B3C23",
"0 	c #352B1C",
"a 	c #989898",
"b 	c #5B4C34",
"c 	c #5A4A31",
"d 	c #5B4C2E",
"e 	c #544B33",
"f 	c #352A14",
"g 	c #40362A",
"h 	c #383525",
"i 	c #271A15",
"j 	c #342612",
"k 	c #3B2C14",
"l 	c #43341C",
"m 	c #5D5035",
"n 	c #3E381E",
"o 	c #4D422A",
"p 	c #4B331C",
"q 	c #453A22",
"r 	c #523A25",
"s 	c #454126",
"t 	c #55492F",
"u 	c #4B3D1C",
"v 	c #433522",
"w 	c #594937",
"x 	c #4B3D2B",
"y 	c #5C5039",
"z 	c #423216",
"A 	c #29220A",
"B 	c #4D4026",
"C 	c #4A3523",
"D 	c #34240D",
"E 	c #62523A",
"F 	c #624F34",
"G 	c #44391E",
"H 	c #3A2612",
"I 	c #624F3C",
"J 	c #302523",
"K 	c #524126",
"L 	c #5A452B",
"M 	c #3C342B",
"N 	c #453C29",
"O 	c #513C2C",
"P 	c #363215",
"Q 	c #432E16",
"R 	c #352A0C",
"S 	c #3C260B",
"T 	c #5D4D39",
"U 	c #38270E",
"V 	c #422D1B",
"W 	c #6A523D",
"X 	c #2D1A0C",
"Y 	c #665446",
"Z 	c #EBDBCB",
"` 	c #462917",
" .	c #583925",
"..	c #28140D",
"+.	c #9A9A9A",
"@.	c #B69687",
"#.	c #74484C",
"$.	c #999999",
"%.	c #A99280",
"&.	c #BCAC95",
"*.	c #C19184",
"=.	c #B49B78",
"-.	c #2D0F0D",
";.	c #959595",
">.	c #969696",
",.	c #2B1B00",
"'.	c #D0A988",
").	c #47270A",
"!.	c #4B3914",
"~.	c #A5866A",
"{.	c #331B06",
"].	c #C9C19D",
"^.	c #C8B697",
"/.	c #D1B999",
"(.	c #FBE3C6",
"_.	c #F9D8C7",
":.	c #F0E4BE",
"<.	c #C7B789",
"[.	c #E8E1CE",
"}.	c #B1B3B5",
"|.	c #293438",
"1.	c #DFCFC0",
"2.	c #CEC9B6",
"3.	c #C9BAA5",
"4.	c #D9DBC6",
"5.	c #B5BCCA",
"6.	c #252D43",
"7.	c #1B2B4E",
"8.	c #2C4574",
"9.	c #A6B8EA",
"0.	c #DCDBDB",
"a.	c #534236",
"b.	c #AAB4D8",
"c.	c #30408E",
"d.	c #243256",
"e.	c #1A2957",
"f.	c #4C6AA9",
"g.	c #94B2F3",
"h.	c #566B99",
"i.	c #A7B4C7",
"j.	c #E5DED9",
"k.	c #5A6BA9",
"l.	c #96AFF4",
"m.	c #5A6BB0",
"n.	c #12286C",
"o.	c #9BABDA",
"p.	c #3D3D55",
"q.	c #352A35",
"r.	c #3A4169",
"s.	c #9AADEC",
"t.	c #636DAB",
"u.	c #242755",
"v.	c #111634",
"w.	c #272963",
"x.	c #414260",
"y.	c #2A2727",
"z.	c #454A3A",
"A.	c #2B2B45",
"B.	c #2F3C71",
"C.	c #55546E",
"D.	c #8E8E8E",
"E.	c #260E13",
"F.	c #6E5050",
"G.	c #CCADA9",
"H.	c #C5A9B5",
"I.	c #463042",
"J.	c #45402A",
"K.	c #523B35",
"L.	c #363A63",
"M.	c #332C46",
"N.	c #A194AD",
"O.	c #BE8E80",
"P.	c #241824",
"Q.	c #311717",
"R.	c #D59D95",
"S.	c #FECEB7",
"T.	c #B88B77",
"U.	c #391823",
"V.	c #461711",
"W.	c #3C3D33",
"X.	c #29283A",
"Y.	c #320C19",
"Z.	c #865046",
"`.	c #FFCEAD",
" +	c #F8CC9F",
".+	c #241401",
"++	c #400C00",
"@+	c #441D08",
"#+	c #230900",
"$+	c #A87859",
"%+	c #937531",
"&+	c #744B13",
"*+	c #2B1502",
"=+	c #35312B",
"-+	c #191813",
";+	c #120301",
">+	c #6C4B22",
",+	c #754D0E",
"'+	c #807F7E",
")+	c #CDAC94",
"!+	c #FAD8BA",
"~+	c #786B5B",
"{+	c #D2DBE2",
"]+	c #1B1401",
"^+	c #765417",
"/+	c #F3CCAC",
"(+	c #6C6C75",
"_+	c #644627",
":+	c #673B0E",
"<+	c #FED4BB",
"[+	c #433A35",
"}+	c #4C65B9",
"|+	c #2C448E",
"1+	c #171421",
"2+	c #583618",
"3+	c #522200",
"4+	c #4D4645",
"5+	c #424859",
"6+	c #526AC7",
"7+	c #B28160",
"8+	c #5E667D",
"9+	c #2847A4",
"0+	c #0C1628",
"a+	c #A2A5CA",
"b+	c #9C8F99",
"c+	c #9B7B6C",
"d+	c #442F25",
"e+	c #0C1D49",
"f+	c #29282F",
"g+	c #A3AFDF",
"h+	c #452E34",
"i+	c #8F8F8F",
"j+	c #2A2830",
"k+	c #979797",
"l+	c #543C03",
"m+	c #7B6A18",
"n+	c #9A8145",
"o+	c #746531",
"p+	c #7F7E7E",
"q+	c #7A6949",
"r+	c #9B802F",
"s+	c #C6A942",
"t+	c #C8AA3B",
"u+	c #221900",
"v+	c #180D05",
"w+	c #7E7E7D",
"x+	c #949494",
"y+	c #8B6E22",
"z+	c #D7B237",
"A+	c #8E7416",
"B+	c #8E8E8D",
"C+	c #969595",
"D+	c #D5B453",
"E+	c #CAAA51",
"F+	c #856F24",
"G+	c #4C3707",
"H+	c #B5A260",
"I+	c #7A7A79",
"J+	c #7B7A7A",
"K+	c #909090",
"L+	c #7C7B7A",
"M+	c #939393",
"N+	c #4C4010",
"O+	c #796725",
"P+	c #929292",
"Q+	c #919191",
"R+	c #8C8C8C",
"S+	c #8B8B8B",
"  . . .   + @ # @ $ .   $   % & * *   + @ = - - # @ + $ $ + @ # %   @ # # = ; > > , ' ' ' ' , > > ) ; + @ ' ; + + - ' ! - ~ { > ",
"$ $ $ $ $ + @ @ @ $     + $ % & * .   + @ = ! - @ + $ $ $ $ + @ %   @ # @ # - , > > , ' ' , > > ) ~ ' @ # , ' @ $ ! ; = ! ) ~ , ",
"# # @ @ @ + + + # + $ $ + + * ] . .   + @ = ! ! + $         $ + %   @ @ @ @ ! ' > > > > > > > > ~ { , = ! > , #   = ! @ = > ) ; ",
"! ! ! ! = # + + = @ + + # @ . ^ .   $ + @ # = ! + $   . .   $ + * $ # # @ @ ! ; , > > ) ) > > , ~ { ) - ; ~ > # . # = + # , > - ",
"- ; ; ; ; ! # @ - = @ # = # $ %   $ $ + @ # # = + + $     $ + +   @ = = # # ! ' , > ) ~ ~ ) > , ) { ) ; ' ~ , @ . # = + # , > - ",
"- ; , > , ' ! = ; ! # = ! = + . $ $ + + @ @ # # # @ + + + + @ # @ ! ; - ! = ; , , > ~ / / ~ > , , ~ > ; ' ) ' $   = ! @ = > ) ; ",
"= - , ) ~ > ' - ' - = ! - ! @ . + + + + @ @ @ @ ! = # @ @ # = ! ! ; , , ; - ' ) , ) { ( ( { ) , ; > , - ; > - . $ ! ; = ! ) ~ , ",
"= - , ~ { ~ > ' ' - ! ! - - @   + + + + @ @ @ @ - ! = = = = ! - ; , ) > ' ' , ~ , ) { ( ( { ) , - , , ! - > ! * + - ' ! - ~ { > ",
"- ; ; ' , ) ) ~ ' ; - ! ! ! - ; $ + @ = = ! = = - ! ! = ! - ; ' > > > , , ' ' ' > > ) ~ ~ ) > , ; ' , , ' ! @ $ + @ ! ) _ ( , # ",
"- ; ' , > ) ~ ~ , ' - ! = = ! ! + @ # = ! ! ! = ; - - - - ; , > > > > , , ' ' ' , > ) ~ { ~ ~ ) ' , > , ; = +   + + = > / / ' @ ",
"; ; ' , > ) ~ ~ ) , ; ! = # # # @ # ! - - - ! ! , ' ' ; ' , > ) > > > , , ' ' ' ; ' > ~ / ( ( ( > ) ) > ; # $ * $ + = ' ~ ) - @ ",
"; ' , > ) ~ { { { ) , - = # # # ! - ; ' ' ; - - > > , , , : < [ : > > , , ' ' ' ! ; > ~ ( _ } } ~ ~ ) > ; # . %   + = ' , ' = @ ",
"' ' , > ) ~ { / / { ) ' - ! ! = ' ' , > , , ' ; ) > > > | 1 2 3 < < > , , ' ' ' = - ' ~ / _ } 4 ~ ~ ) > ; # . % $ @ - ' ; ! = # ",
", , > ) ~ { / / _ ( { ) , ' ' ' > ) ) ~ ) > , ' [ [ < 5 6 7 8 9 9 0 3 | [ : ' ' # = ; > { / ( ( > ) ) > ; # $ * + ! ' , - = = ! ",
", , > ) ~ { / ( } _ / { ~ ~ { { ~ { { { ~ ) a | [ [ 5 0 b 9 c d 7 e f 6 g h < ' @ = - , ) ~ ~ ~ ' , > , ; = +   # ; > > - = ! ; ",
", > > ~ { / / ( } _ ( / / ( ( _ { / / / { ) i g 3 3 j k l m d b m 6 k f 0 6 [ [ @ # ! ' , > > > ; ' , , ' ! @ $ = ' ~ ) ; = - , ",
", > > ) ~ / / ( ( ( / / { { ~ ~ / / { ~ ) : f n o f n f p q l r q p j l 8 s 3 0 0 $ * - { ) > { ' ) / { , - - - > ) ) ) > ' ; - ",
", > ) ~ { / ( ( } } _ _ ( ( / / _ ( ( ( 0 5 6 9 t u k f v w x v y z l A B e o 0 0 | * ! ~ ~ ) / ) ~ ) ' = = - , ~ ~ ) > ' ! # + ",
"> > ) ~ { / ( ( 4 4 4 } _ _ _ ( _ } } } 3 6 j 9 B b 7 j 9 v 9 5 C v z o e 9 B f : : % = ~ { { / ~ ) ' # $ + ! > ~ ) > ' ! @   * ",
"> ) ~ { / ( _ _ } } } _ _ ( ( ( ( _ _ [ 0 x z l m b t f v 6 7 l v v D E F t G j x 3 < @ > ( ( / , , ; # $ $ # ; ; ; ; - = +   * ",
") ) ~ { / ( _ } ( ( ( / / { { { { / / 0 3 x 7 l G u b b D k q 9 H 5 I c u l l E x 5 [ $ ' ( ( ~ = - ' ; # + + @ @ @ # = # @ + + ",
"~ ~ { / ( _ } } ( / / / { ~ ~ ~ { { J [ 2 v b d q u 7 t q 6 j 0 5 v I r K K L b v x : [ - ( ( , # - , , ! @ + +   $ @ # = # # @ ",
"~ ~ { / ( _ } 4 _ _ ( ( / / { { ( ( M h N j 9 c d m b G o f n 9 5 O x b d c m q f x : h = ( / - ; ' , ; # @ # ! @ @ # = = # @ + ",
"~ { { ( _ } } 4 4 4 } } _ _ ( ( } } [ g N k u 9 B 9 9 o 8 P e 8 5 : v 9 r 9 u p 5 x g | # / { # ) ) ' = $ + ! , ! ! ! ! # @ $   ",
"} _ ( / / / ( ( { { { { { { { { , > ~ 5 x E D Q 9 u 9 z G R n y 3 6 v q 9 9 S k T N h   # ; , > = # # @ + $ $   # - ' ; = @ # = ",
"_ _ ( / / / ( ( / / / / / / / / ) ) ~ [ 0 9 w k k Q l 6 k P t q e 5 l 5 S z U b v h | + = ' , ' = # # @ + + $ $ # - ' ; = + + @ ",
"( ( ( ( ( ( ( ( / / / / / / / / / { ~ ) < V c p F c c B D q o l N 3 B c W L K 9 q h @ # ; , ' - = = # # @ @ @ @ = ; ' ; # $ $ + ",
"{ / ( _ _ _ _ ( ( ( ( ( ( ( ( ( } ( ~ > X : H V V 9 o 9 k G G q 3 f D t p C H 5 f i # - , , ; = = = = = = = = # ! ; , ; # $   $ ",
"~ { ( _ } } _ ( ( ( ( ( ( ( ( ( 4 _ { ~ i Y Z H V l l j l j t 7 k 6 k p p ` ` Z Y | = - , > ; = ! ! ! ! ! ! ! - ! ' , ' = @ + @ ",
"> ~ ( } 4 } _ ( _ _ _ _ _ _ _ _ 4 } ( / ( X Z ` C V k V k b K t q u U  .p p ` Z ..- ! - ' , ; ! ! ! - - ; ; ; ; ! ' > > ; ! ! ; ",
", ) / } +.4 _ ( _ _ _ _ _ _ _ _ _ } } } 4 4 ..w V H C D b T 9 z G E k p p @.#.X ~ ' ! = - ' ' ; ! - - ; ' ' , , ! ' ) ) > ' > ) ",
"' ) / 4 +.4 } ( } } } } } } } } ( _ 4 +.$.$.+.X %.&.p ` p k l G 8 9 k p *.=.-.) / , = # ! ' , , ! - - ; ' , , > ! ' ~ ~ ) ) ~ / ",
", > { ( } 4 +.+._ _ } 4 +.+.$.$.;.>.a +.} ( { ~ ,.=.'.).!.u F r S C 5 k ~.{.> > { ~ ~ ) > , , ' ! - - ; ' , , > > , ' ' ' ' , > ",
", ) { ( } 4 4 4 } } } 4 4 4 +.+.a a $.4 _ ( ].^.^.'.W !.L K L  .W v 5 k =./.&.].{ ~ ~ ) > > , , - - ; ; ' , , > > > , ' ' , > > ",
"> ) { ( } 4 4 4 4 4 4 4 } } } _ 4 } } _ ( &.(././._.f 5 v 5 x x j q h f :.<.<.[.}.~ ~ ) ) > > > ; ; ; ' ' , , , ) > , ' ' , > ) ",
") ~ / _ } } } } +.+.4 } _ _ ( ( / ( ( ( |.1.2.].^.3.1 M w C 5 x n q e 0 ^.<.].4.5.6.~ ~ ~ ) ) ) ' ' ' , , , , , ) ) > , , > ) ) ",
"~ { / _ } } } _ 4 4 } } _ ( / / / / / 7.8.9.5.0.2.].P s j a.9 9 P s x 5 ].Z 0.b.9.c.d.~ ~ { { { > > > , , , , , ~ ) > > > > ) ~ ",
"~ { ( _ _ _ _ ( } _ _ _ ( ( ( ( ( ( ( e.f.g.h.i.j.[.P s 9 B D B B 8 v f j.0.i.k.l.m.7.{ { / / / ) ) ) > > , , , { ~ ) > > ) ~ { ",
"{ / ( _ _ _ ( ( / / ( ( ( _ _ _ 4 4 } } n.f.l.o.p.q.1 n 8 z d F k z 9 l q.r.9.s.t.u.~ { / / ( ( ~ ~ ) ) > , , ' { ~ ) ) ) ) ~ { ",
"{ / ( _ _ _ ( / { { / / ( _ } } $.+.+.4 v.d.w.e.x.y.z.y 8 !.d R C z p w A.B.w.u.u.C.D.{ / ( ( _ { ~ ~ ) > , , ' { { ~ ) ) ~ { { ",
"/ ( _ _ _ _ ( / } } } } } } } } $.4 ( E.F.G.H.q.I.q.h 5 8 7 J.3 K.a.u h 6.L.M.N.O.G.P./ { ~ > , ' , > ) ~ ~ ) ) / { > ' ' , > ) ",
"{ { / ( ( / { { _ ( ( ( ( / / / { ~ ~ Q.*.R.*.` : q.3 6 G e 6 a.K.a.P z.6.p.I.#.S.T.E.~ ~ ) ) ) , > ) ~ { { ~ ~ / { ) , ' , > ~ ",
"> ) ~ { { ~ ) > / { { ~ ) > > , - ' > U.R._.T.V.O x v G e s n d 7 n P W.X.A.Y.Z.`. +.+> > > ~ { ) ~ { / ( ( / / ( { ) , , , ) ~ ",
"' , > ) ) > , ' ~ ) ) > ' ' ; - - , { Y.V.++Z.@+r K G o e A B K 9 6 P [ |.P.#+$+%+&+,., ' > ~ / ~ { ( _ _ _ _ ( ( / ~ > , > ) { ",
"; ' , , , , ' ; > > , , ' ; ; ; ~ / Q.*+@+S X D C w ` c 2 g x ` 9 5 0 =+}.-+;+>+,+,+'+, ' > ~ / { / ( _ } } _ _ _ / ~ > > ) ~ { ",
"; ' , , , , ' ; , , > > > > > > _ } Q.)+!+*+{.k l w z 5 v O V 5 v 8 ~+j.{+|.]+>+,+^+z > > > ~ { { { ( _ _ _ _ ( } ( { ) > ) { / ",
"; ' , > > , ' ; , > > ) { / / ( ( / *+)+(.!+/+p l w T 9 p !.u y x 0 (+5.f.8.-+_+&+:+{.~ ~ ) ) ) ~ { / ( _ ( ( / } ( { ) ) ~ { / ",
"' , , > > , , ' , > ) { ( _ } 4 ) > X T.<+<+_.~.0 5 k _+).).h w [+q.N.o.}+|+1+r >+2+{ / { ~ > , ) ~ { / ( ( / / } _ { ~ ) ~ { / ",
"- - ' ' , ' ' ; ~ ~ ~ ~ ) > ' ; > > Q.#.<+<+<+Y P.h p _+3+2+4+5+A.e.}+}+6+c.v.{ { { { ~ ~ ) ) ) { / _ } } _ / { ( _ ~ ; ' ( / , ",
"- ; ' , , ' ; ; , > ) ) ) > ' ' , , , E.T.S.)+Q.q.C.V '.'.7+4+8+C.m.n.9+6+n.0+{ ( ( ( / / { { ~ / ( } 4 } _ / ~ ( _ ~ ; , ( / , ",
"; ; ' , , ' ; - - ; ' , > , , ' , , , , -.-.E.P.w.a+b+c+$+7+d+i e+e.|+l.k.e+{ { } _ _ ( ( / / / _ } 4 +.4 _ { ~ ( _ { ' > _ ( ' ",
"; ' , , ' ; - ! = ! ; ' , , , ' ' ' ' , , > > f+d.g+}.h+@+2+ .h+A.h.l.l.8.v.{ { _ _ ( ( / / { { 4 +.$.$.+.} / ~ ( _ / > ) } ( ' ",
"' , , , ' ; ! ! = ! ; ' , , , ' ; ; ' , , > ) i+j+h.a+A.h+` x 4+6.h.s.s.d.0+{ { / / { { ~ ~ ) ) 4 +.a a a +._ ( / } ( ) { 4 ( ' ",
", , , , ' ; ! = - ; ' , > , , ' - ; ' ' > > i+6 ' N 4+[+5 H 2 y.6.B.g+g+0+{ { { { { { ~ ~ ) ) > } +.a k+k+a +.4 / } _ ~ / 4 ( ' ",
"> > > , ' - = # , > ) ) ) > ' ' - - ; ' > ) ~ u !.l+m+n+o+R | q.X.p.5+y.i { { { ( / / { { ~ ~ ~ _ } $.k+>.>.k+a / } } / ( +._ ; ",
"> > > , ' - = # ~ ~ ~ ~ ) > ' ; ! - ; ' > ) p+q+l+r+s+t+m+u+) q.v+~+~+q+q w+{ { _ _ _ ( ( / / / / _ $.>.;.x+;.>./ } } / _ $._ ; ",
"- - ; ; ' ' , , ) > > , , > ) ~ ~ ) , ' ; ; ; .+y+s+z+t+A+,.> > *+n+r+A+l+!.B+/ 4 ( ) > ~ / / { $.+.$.k+x+x+a 4 / { ' ! > 4 } > ",
"; ' ' ' , , > > > > , , , > ~ ~ / { ~ ) ) ) ) C+%+D+E+s+F+.+( u+l+s+t+r+l+G+, , _ { > > { _ _ ( / / ( +.>.x+>.a / / , - ) +.4 > ",
"' ' ' , , > > ) > , , , , ) ~ { ( ( ( _ _ _ } } X n+H+%+u I+} J+y+t+z+z+y+o+A ; { ) > ) _ +.+.+.} _ } +.>.;.k+$.( ( ) ' { a +.) ",
"; ; ; ' ' , , , > , , , > ~ { / _ _ 4 +.$.$.$.$.( u+u+I+K+4 } L+F+t+t+D+n+.+> ' ~ > > { 4 a k+a M+;.a a k+a 4 ( _ _ { > ( >.$.~ ",
"! - - - ; ; ' ' ) ) ) ) ~ / _ } } 4 $.k+k+k+k+a +.+.$.$.$.+.4 I+N+O+H+%+G+*+, , { ~ ~ ( $.>.k+$.;.a 4 } 4 4 _ { } } ( { 4 x+k+{ ",
"- - ; ; ' ' , , { { { / ( } +.a $.a ;.x+M+x+>.k+;.;.x+x+x+;.k+a K+,.{.#+.+' > > } _ _ 4 a k+$.} { > ' > { _ } _ 4 +.} _ a P+>.{ ",
", , > > ) ) ~ ~ ( ( ( _ 4 $.>.;.x+P+K+i+i+Q+x+>.x+x+M+M+x+;.k+a { ) , +.' ~ _ +.a $.+.$.k+a } { ~ , ' , / 4 +.+.4 $.+.4 >.Q+;./ ",
"~ ~ { { / / ( ( _ _ } 4 $.k+;.M+K+D.R+S+R+i+P+x+k+k+>.>.k+$.+.4 $.} { ) { 4 ;.K+;.>.a k+k+$.( > a 4 / / } $.$.+.+.a +.+.;.K+x+( "};
