/* XPM */
static char * enemy2flip_xpm[] = {
"64 64 272 2",
"  	c #AEAEAE",
". 	c #AFAFAF",
"+ 	c #ACACAC",
"@ 	c #ABABAB",
"# 	c #AAAAAA",
"$ 	c #ADADAD",
"% 	c #B1B1B1",
"& 	c #B4B4B4",
"* 	c #B0B0B0",
"= 	c #A9A9A9",
"- 	c #A7A7A7",
"; 	c #A6A6A6",
"> 	c #A3A3A3",
", 	c #A4A4A4",
"' 	c #A5A5A5",
") 	c #A2A2A2",
"! 	c #A8A8A8",
"~ 	c #A1A1A1",
"{ 	c #A0A0A0",
"] 	c #B3B3B3",
"^ 	c #B2B2B2",
"/ 	c #9F9F9F",
"( 	c #9E9E9E",
"_ 	c #D6D5CC",
": 	c #9D9D9D",
"< 	c #D5D4CB",
"[ 	c #FCF3E6",
"} 	c #CAC990",
"| 	c #D8D0AE",
"1 	c #E5D6CA",
"2 	c #9C7C75",
"3 	c #A8A16B",
"4 	c #F7EAE7",
"5 	c #9C9C9C",
"6 	c #E6D8D7",
"7 	c #A6997A",
"8 	c #907B58",
"9 	c #7A6848",
"0 	c #85694A",
"a 	c #74634D",
"b 	c #AB9BA6",
"c 	c #CEC8BA",
"d 	c #E3DCCC",
"e 	c #9B9B9B",
"f 	c #E0DAD3",
"g 	c #F2EADC",
"h 	c #B9AC92",
"i 	c #755B48",
"j 	c #735A56",
"k 	c #6A534C",
"l 	c #B2A59C",
"m 	c #A59589",
"n 	c #E9E0D5",
"o 	c #644B3D",
"p 	c #917673",
"q 	c #B2A5AC",
"r 	c #ADA3A3",
"s 	c #B4ADB4",
"t 	c #C4BDBB",
"u 	c #D9D6D4",
"v 	c #937769",
"w 	c #A2837C",
"x 	c #8B6E73",
"y 	c #73615B",
"z 	c #645245",
"A 	c #947C74",
"B 	c #A99A98",
"C 	c #9B8D8D",
"D 	c #97867B",
"E 	c #9D9394",
"F 	c #DCD5D4",
"G 	c #593E2C",
"H 	c #59423C",
"I 	c #7A5E5A",
"J 	c #927F81",
"K 	c #62524E",
"L 	c #533C34",
"M 	c #5E4333",
"N 	c #503629",
"O 	c #A49494",
"P 	c #74646B",
"Q 	c #978B91",
"R 	c #B29C9C",
"S 	c #A68986",
"T 	c #B99980",
"U 	c #A28F91",
"V 	c #CCC7C8",
"W 	c #BAB6B7",
"X 	c #8B837E",
"Y 	c #452A18",
"Z 	c #5A422B",
"` 	c #654637",
" .	c #4A3B44",
"..	c #745D64",
"+.	c #796258",
"@.	c #6B5953",
"#.	c #8C7B7B",
"$.	c #ABA8A9",
"%.	c #D4D2D2",
"&.	c #D6D3D1",
"*.	c #6E625D",
"=.	c #523A2E",
"-.	c #75532B",
";.	c #6D4E32",
">.	c #513C3A",
",.	c #856B66",
"'.	c #948887",
").	c #7B696B",
"!.	c #8A736D",
"~.	c #857579",
"{.	c #836458",
"].	c #846E6C",
"^.	c #A29B9B",
"/.	c #BCB5B4",
"(.	c #E7E6E9",
"_.	c #94827B",
":.	c #57391C",
"<.	c #4C3324",
"[.	c #937D7C",
"}.	c #665858",
"|.	c #422E2B",
"1.	c #634748",
"2.	c #745D5A",
"3.	c #54433B",
"4.	c #644D4C",
"5.	c #BCA7A8",
"6.	c #D7D4D2",
"7.	c #9D9B9C",
"8.	c #6C5A5A",
"9.	c #4C2F16",
"0.	c #786967",
"a.	c #846E73",
"b.	c #524244",
"c.	c #452C24",
"d.	c #7B6562",
"e.	c #A89292",
"f.	c #C3AAAD",
"g.	c #AC9C9C",
"h.	c #D8CCC9",
"i.	c #463747",
"j.	c #5A4B52",
"k.	c #3B231B",
"l.	c #3E220C",
"m.	c #7B6A64",
"n.	c #746264",
"o.	c #624A43",
"p.	c #9C8484",
"q.	c #A08B8D",
"r.	c #DBD9D8",
"s.	c #3B2E3A",
"t.	c #85746D",
"u.	c #4D4242",
"v.	c #574C42",
"w.	c #816C65",
"x.	c #9E868A",
"y.	c #503739",
"z.	c #524552",
"A.	c #2C232D",
"B.	c #2B1E1B",
"C.	c #322423",
"D.	c #43322B",
"E.	c #3D2C2D",
"F.	c #3A2D34",
"G.	c #CFCAD6",
"H.	c #6C646C",
"I.	c #6A5C64",
"J.	c #412D3A",
"K.	c #E3DBDB",
"L.	c #867C82",
"M.	c #3E3742",
"N.	c #4B424C",
"O.	c #656265",
"P.	c #231C1B",
"Q.	c #2C2524",
"R.	c #3B2A23",
"S.	c #32231C",
"T.	c #685A49",
"U.	c #53444C",
"V.	c #362529",
"W.	c #49332C",
"X.	c #5A515A",
"Y.	c #7C6C73",
"Z.	c #2F2532",
"`.	c #F6FBFC",
" +	c #1B120F",
".+	c #2B211D",
"++	c #473937",
"@+	c #361E19",
"#+	c #897773",
"$+	c #C3B8B6",
"%+	c #4E4451",
"&+	c #423535",
"*+	c #251914",
"=+	c #3C333D",
"-+	c #443C42",
";+	c #352B2A",
">+	c #28170B",
",+	c #5C4C44",
"'+	c #8D7A75",
")+	c #8A8686",
"!+	c #D2CDCB",
"~+	c #5D5354",
"{+	c #5B4A4C",
"]+	c #CCC3BC",
"^+	c #342734",
"/+	c #989496",
"(+	c #2B1D26",
"_+	c #B5ABAC",
":+	c #4A3C3C",
"<+	c #EBE5E2",
"[+	c #474248",
"}+	c #363232",
"|+	c #D2D1D1",
"1+	c #999999",
"2+	c #9A9A9A",
"3+	c #DCDCE0",
"4+	c #3B312C",
"5+	c #564A58",
"6+	c #554B4A",
"7+	c #797577",
"8+	c #E2DEE4",
"9+	c #49433D",
"0+	c #B5A8A6",
"a+	c #C6C4C3",
"b+	c #746C6A",
"c+	c #98948A",
"d+	c #2A2527",
"e+	c #C2BFC1",
"f+	c #C6B6A6",
"g+	c #897664",
"h+	c #9B8B84",
"i+	c #D2C8BA",
"j+	c #544334",
"k+	c #7B7375",
"l+	c #A69996",
"m+	c #867373",
"n+	c #DAD3C8",
"o+	c #B6B2AD",
"p+	c #D4D3D3",
"q+	c #4D3A2E",
"r+	c #D3D2C9",
"s+	c #D2D1C8",
"t+	c #5F4A33",
"u+	c #94826A",
"v+	c #595858",
"w+	c #7A746A",
"x+	c #B5AE9C",
"y+	c #342A34",
"z+	c #393332",
"A+	c #5D483C",
"B+	c #484644",
"C+	c #C4C4C1",
"D+	c #A8A197",
"E+	c #D5D3CE",
"F+	c #827D7A",
"G+	c #D3D2D2",
"H+	c #C3C4C0",
"I+	c #C3C3C0",
"J+	c #DFD8D2",
"K+	c #989898",
"L+	c #979797",
"M+	c #969696",
"N+	c #959595",
"O+	c #949494",
"P+	c #939393",
"Q+	c #929292",
"R+	c #909090",
"S+	c #8F8F8F",
"T+	c #919191",
"U+	c #8E8E8E",
"V+	c #8C8C8C",
"W+	c #8B8B8B",
"  . . .   + @ # @ $ .   $   % & * *   + @ = - - # @ + $ $ + @ # %   @ # # = ; > > , ' ' ' ' , > > ) ; + @ ' ; + + - ' ! - ~ { > ",
"$ $ $ $ $ + @ @ @ $     + $ % & * .   + @ = ! - @ + $ $ $ $ + @ %   @ # @ # - , > > , ' ' , > > ) ~ ' @ # , ' @ $ ! ; = ! ) ~ , ",
"# # @ @ @ + + + # + $ $ + + * ] . .   + @ = ! ! + $         $ + %   @ @ @ @ ! ' > > > > > > > > ~ { , = ! > , #   = ! @ = > ) ; ",
"! ! ! ! = # + + = @ + + # @ . ^ .   $ + @ # = ! + $   . .   $ + * $ # # @ @ ! ; , > > ) ) > > , ~ { ) - ; ~ > # . # = + # , > - ",
"- ; ; ; ; ! # @ - = @ # = # $ %   $ $ + @ # # = + + $     $ + +   @ = = # # ! ' , > ) ~ ~ ) > , ) { ) ; ' ~ , @ . # = + # , > - ",
"- ; , > , ' ! = ; ! # = ! = + . $ $ + + @ @ # # # @ + + + + @ # @ ! ; - ! = ; , , > ~ / / ~ > , , ~ > ; ' ) ' $   = ! @ = > ) ; ",
"= - , ) ~ > ' - ' - = ! - ! @ . + + + + @ @ @ @ ! = # @ @ # = ! ! ; , , ; - ' ) , ) { ( ( { ) , ; > , - ; > - . $ ! ; = ! ) ~ , ",
"= - , ~ { ~ > ' ' - ! ! - - @   + + + + @ @ @ @ - ! = = = = ! - ; , ) > ' ' , ~ , ) { ( ( { ) , - , , ! - > ! * + - ' ! - ~ { > ",
"- ; ; ' , ) ) ~ ' ; - ! ! ! - ; $ + @ = = ! = = - ! ! = ! - _ ' > > > , , ' ' ' > > ) ~ ~ ) > , ; ' , , ' ! @ $ + @ ! ) : ( , # ",
"- ; ' , > ) ~ ~ , ' - ! = = ! ! + @ # = ! ! ! = ; - _ - - ; , > < > > , , ' ' ' , > ) ~ { ~ ~ ) ' , > , ; = +   + + = > / / ' @ ",
"; ; ' , > ) ~ ~ ) , ; ! = # # # @ # ! - - - ! ! , ' ' ; ' , > [ } [ > , , ' ' ' ; ' > ~ / ( ( ( > ) ) > ; # $ * $ + = ' ~ ) - @ ",
"; ' , > ) ~ { { { ) , - = # # # ! - ; ' ' ; - - > > , , | | 1 2 3 4 > , , ' ' ' ! ; > ~ ( : 5 5 ~ ~ ) > ; # . %   + = ' , ' = @ ",
"' ' , > ) ~ { / / { ) ' - ! ! = ' ' , > , , ' ; ) > > 6 7 8 9 0 a b c d , ' ' ' = - ' ~ / : 5 e ~ ~ ) > ; # . % $ @ - ' ; ! = # ",
", , > ) ~ { / / : ( { ) , ' ' ' > ) ) ~ ) > , ' f g h 9 i j k 0 b l m d , ' ' ' # = ; > { / ( ( > ) ) > ; # $ * + ! ' , - = = ! ",
", , > ) ~ { / ( 5 : / { ~ ~ { { ~ { { { ~ g d n m a o i j j j p q h 7 r s t u ' @ = - , ) ~ ~ ~ ' , > , ; = +   # ; > > - = ! ; ",
", > > ~ { / / ( 5 : ( / / ( ( : { / / / d 7 v w v x y o k z i A B 9 7 b C D E ' @ # ! ' , > > > ; ' , , ' ! @ $ = ' ~ ) ; = - , ",
", > > ) ~ / / ( ( ( / / { { ~ ~ / / { F o 0 G H I J x K L M N I O P Q R S T U V ) $ * - { ) > { ' ) / { , - - - > ) ) ) > ' ; - ",
", > ) ~ { / ( ( 5 5 : : ( ( / / : W X z Y Z ` k  .J ..P y +.p k @.#.E x 2 2 ..q $.%.* ! ~ ~ ) / ) ~ ) ' = = - , ~ ~ ) > ' ! # + ",
"> > ) ~ { / ( ( e e e 5 : : : ( : &.*.=.-.-.;.>.=.,.'.).y A !.@.` k ~.+.{.{.].R r ^./.= ~ { { / ~ ) ' # $ + ! > ~ ) > ' ! @   * ",
"> ) ~ { / ( : : 5 5 5 : : ( ( ( ( (._.G :.-.M <.v [.).}.|.1.2.3.` 4.x p 2 p p S 5.5.Q r t 6.( / , , ; # $ $ # ; ; ; ; - = +   * ",
") ) ~ { / ( : 5 ( ( ( / / { { { { 7.8.S ` 9.9.G i M 0.a.b.z L L c.I ].8.2.d.a.[.S J e.f.U g.h.4 V t ' ; # + + @ @ @ # = # @ + + ",
"~ ~ { / ( : 5 5 ( / / / { ~ ~ ~ { W i.j.1.k.Y l.<.m.#.n.o.+.m.,.j [.U p.P ....8...,.J R f.q.p.S '.~.F , ! @ + +   $ @ # = # # @ ",
"~ ~ { / ( : 5 e : : ( ( / / { { ( r.P s. ...Y ` t.#.j.u.v.L w.B x.p p S a.8.y. .z. .j...)...}.2.q.U Q ; # @ # ! @ @ # = = # @ + ",
"~ { { ( : 5 5 e e e 5 5 : : ( ( 5 5 6.g. .}.1.{.n. .A.B.C.D.x q.q.].2 2 1.E.F.i.G.s H...I.a.J.y.,.O C K.$ + ! , ! ! ! ! # @ $   ",
"5 : ( / / / ( ( { { { { { { { { , > ~ { L.M.i.N.O.P.Q.R.S.D.T.K J x 8.U.s.V.W.k.X #     # ; X.A.k x x.q + $ $   # - ' ; = @ # = ",
": : ( / / / ( ( / / / / / / / / ) ) ~ ~ Y.M.Z.O.`.s Q. +S.k..+++U.j. .F.V.@+c.` v.g $ $.%.' K.U.R.4.a.#+$++ $ $ # - ' ; = + + @ ",
"( ( ( ( ( ( ( ( / / / / / / / / / { ~ q s.i.Z.%+r.{ /.}.&+*+++=+s.M.-+;+>+@+M ` ,+'+/.)+7., ' !+~+V.{+K [.]+@ @ = ; ' ; # $ $ + ",
"{ / ( : : : : ( ( ( ( ( ( ( ( ( 5 6.t I.M.^+A.%+(.( ( / %.W W /+-+P.(+Q.B.@+<.M +.m.E H.r , ; = = _+E.:+A [.V # ! ; , ; # $   $ ",
"~ { ( : 5 5 : ( ( ( ( ( ( ( ( ( e <+L...i.i.A.W e e 5 : : ( Q [+}+.+*+*+B.S.D.@.a.R Q i.$.> ; = ! ! q E.o.{.].F ! ' , ' = @ + @ ",
"> ~ ( 5 e 5 : ( : : : : : : : : |+/+~.a.I.^+I.1+2+2+e 5 : r.-+^+*+.+.+*+C.++{+H.~.L.%+%+3+, ; ! ! ! - O @+k @+X ! ' > > ; ! ! ; ",
", ) / 5 2+e : ( : : : : : : : (.O J Y.~+s.Z.G.2+2+e 5 : ( V s.M.;+Q.4+K 8.I.X.X.5+%+N.W - ' ' ; ! - - F y.@+W.t.! ' ) ) > ' > ) ",
"' ) / e 2+e 5 ( 5 5 5 5 5 5 |+/+J ).6+A.^+Q 2+e 5 5 : / { s Z.s.[+7+O _+b P z.5+M.M.8+# ! ' , , ! - - ; d.k.=.T.! ' ~ ~ ) ) ~ / ",
", > { ( 5 e 2+2+: : 5 e 2+6 e.!.{.9+}+)+K.( { ~ { { { ~ ~ )+=+n.O $+_+^.E Y.%+i.(+H.~ ) > , , ' ! - - 0+T.o .+)+> , ' ' ' ' , > ",
", ) { ( 5 e e e 5 5 5 e $+!._.d.,+u.a+e : ( / { { { ~ ~ (.H.b+g.0+_+E c+a.P i.s.d+e+~ ) > > , , - f+8 Z W.4+R.g+> > , ' ' , > > ",
"> ) { ( 5 e e e e e e K.t.p.j K (+$.5 : ( ( / / ~ ~ ) ) E b+Q r r ^.E n.{+++Z.(+$.~ ~ ) ) > > > 7 Z 3.h+i+j+>+g+) > , ' ' , > ) ",
") ~ / : 5 5 5 5 2+2+e t w.k D.B.k+( ( ( ( ( ( ( ) ) ) F 0.C l+g.B O m+ .:+(+}+s ~ ~ ~ ~ ~ ) ) n+G o+' , , ]+>+D c %.> , , > ) ) ",
"~ { / : 5 5 5 : e e 5 o+R.j+R.h+/ / / ( ( : : : ~ ~ <+#.p.[.O r p.m+N.}+V.j.(.~ ~ ~ ~ ~ ~ { { c+t > > , , p+4+i j+d > > > > ) ~ ",
"~ { ( : : : : ( 5 : : n b+q+D.l ( h.r+: : : : 5 / { o+@.'+A O ).4.V.Q.Z.^+;+!+{ ~ $.7.{ { / / 6.) ) ) > > n Y 0 g+[ ) > > ) ~ { ",
"{ / ( : : : ( ( / / ( ( ]+S.T.j+t.j+f+s+5 5 5 5 ( ( C t.m.A !.W.N B.P.P.d+d+d+)+7+}+[+r./ / ( ( ~ ~ ) ) c+t+9.z u+| ) ) ) ) ~ { ",
"{ / ( : : : ( / { { / / h.|.W.T.a t+t+i+e 5 5 5 5 ]+X h+D w.1.y.k l+7+v+O.v+O.d+d+M.9+%./ ( ( : { ~ ~ ) a+c+n T.0 [ ~ ) ) ~ { { ",
"/ ( : : : : ( / 5 5 5 5 l 4+~+5 1+e w+x+, ' ; ; / )+7+'.y j+=.<.H h+o+( ( / { r y+z+a+/ { ~ > , ' , > ) ~ ~ d T.<+{ > ' ' , > ) ",
"{ { / ( ( / { { : ( <+m N  +]+/ { ~ d n+) > > , / s d+6+K j+L A+W.y 6+e+( / { o+Q.v+{ ~ ~ ) ) ) , > ) ~ { { c+i+/ { ) , ' , > ~ ",
"> ) ~ { { ~ ) > / { x+o >+T.T.x+a+' > { / { ~ ) { { H..+C.R.q+3.o.1.{+'.( / { 7+4+O.~ > > > ~ { ) ~ { / ( ( / / ( { ) , , , ) ~ ",
"' , > ) ) > , ' ~ ) c j+9 Y v.~+%., { : 5 : { ~ ~ ~ ~ t '.B+;+B.>.b.:+:+r / <+9+4+~+C+, ' > ~ / ~ { ( : : : : ( ( / ~ > , > ) { ",
"; ' , , , , ' ; > > < t.D+i+D+E+~ / 5 2+e : ~ > ~ ~ ~ ~ ~ ~ V )+6+;+Q.9+u.l+m.v.9+F+) , ' > ~ / { / ( : 5 5 : : : / ~ > > ) ~ { ",
"; ' , , , , ' ; , , > > o+> > > : 5 5 5 : { > , ) ) ) ~ ~ { { { ~ G+F+Q.&+v.8.v.7.E+~ > > > ~ { { { ( : : : : ( 5 ( { ) > ) { / ",
"; ' , > > , ' ; , > > ) { / / ( ( / { ~ ) > , , > > ) ~ ~ { / / ~ { r.Q.}+9+0.++{ { { ~ ~ ) ) ) ~ { / ( : ( ( / 5 ( { ) ) ~ { / ",
"' , , > > , , ' , > ) { ( : 5 e ) > , ' ; ' , , > > ) ~ ~ { / / ~ { a+d+;+++.+v+H+{ { / { ~ > , ) ~ { / ( ( / / 5 : { ~ ) ~ { / ",
"- - ' ' , ' ' ; ~ ~ ~ ~ ) > ' ; > > , , , , ' ' ' , ) { / / / / { { ]+d+}+}+B+I+{ { { ~ ~ ) ) ) { / : 5 5 : / { ( : ~ ; ' ( / , ",
"- ; ' , , ' ; ; , > ) ) ) > ' ' , , , , , , , , , > ~ { / ( ( / { { )+;+B+:+'.{ ( ( ( / / { { ~ / ( 5 e 5 : / ~ ( : ~ ; , ( / , ",
"; ; ' , , ' ; - - ; ' , > , , ' , , , , , , , , > ) ~ / ( : ( ( { { 6+D.y 9+/+{ 5 : : ( ( / / / : 5 e 2+e : { ~ ( : { ' > : ( ' ",
"; ' , , ' ; - ! = ! ; ' , , , ' ' ' ' , , > > > > ) { ( : : : : n F+A+=.q+3.V { : : ( ( / / { { e 2+1+1+2+5 / ~ ( : / > ) 5 ( ' ",
"' , , , ' ; ! ! = ! ; ' , , , ' ; ; ' , , > ) ) , > ~ / ( ( ( J+C L o.M i @.{ { / / { { ~ ~ ) ) e 2+K+K+K+2+: ( / 5 ( ) { e ( ' ",
", , , , ' ; ! = - ; ' , > , , ' - ; ' ' > > ) ~ ' , ) ~ { / o+*.H u+G {.z 9+I+{ { { { ~ ~ ) ) > 5 2+K+L+L+K+2+e / 5 : ~ / e ( ' ",
"> > > , ' - = # , > ) ) ) > ' ' - - ; ' > ) ~ ~ - ; , ) ~ ~ k+m.m ,+D z @.'.(.{ ( / / { { ~ ~ ~ : 5 1+L+M+M+L+K+/ 5 5 / ( 2+: ; ",
"> > > , ' - = # ~ ~ ~ ~ ) > ' ; ! - ; ' > ) ~ { ! - ' , ) ) D+f c c+r.b+{ { { { : : : ( ( / / / / : 1+M+N+O+N+M+/ 5 5 / : 1+: ; ",
"- - ; ; ' ' , , ) > > , , > ) ~ ~ ) , ' ; ; ; ' ! - ' , > > > > / { ~ ) ) ~ { / e ( ) > ~ / / { 1+2+1+L+O+O+K+e / { ' ! > e 5 > ",
"; ' ' ' , , > > > > , , , > ~ ~ / { ~ ) ) ) ) ~ ) ~ { / ( ( ( / ) ) > > > , , , : { > > { : : ( / / ( 2+M+O+M+K+/ / , - ) 2+e > ",
"' ' ' , , > > ) > , , , , ) ~ { ( ( ( : : : 5 5 / ( 5 e e e 5 5 ~ ~ ~ ~ ) > ' ; { ) > ) : 2+2+2+5 : 5 2+M+N+L+1+( ( ) ' { K+2+) ",
"; ; ; ' ' , , , > , , , > ~ { / : : e 2+1+1+1+1+( : 5 e e e 5 : { / ( ( / ~ > ' ~ > > { e K+L+K+P+N+K+K+L+K+e ( : : { > ( M+1+~ ",
"! - - - ; ; ' ' ) ) ) ) ~ / : 5 5 e 1+L+L+L+L+K+2+2+1+1+1+2+e e ~ ~ { { ~ ) , , { ~ ~ ( 1+M+L+1+N+K+e 5 e e : { 5 5 ( { e O+L+{ ",
"- - ; ; ' ' , , { { { / ( 5 2+K+1+K+N+O+P+O+M+L+N+N+O+O+O+N+L+K+> , ' ; ' ' > > 5 : : e K+L+1+5 { > ' > { : 5 : e 2+5 : K+Q+M+{ ",
", , > > ) ) ~ ~ ( ( ( : e 1+M+N+O+Q+R+S+S+T+O+M+O+O+P+P+O+N+L+K+{ ) , ; ' ~ : 2+K+1+2+1+L+K+5 { ~ , ' , / e 2+2+e 1+2+e M+T+N+/ ",
"~ ~ { { / / ( ( : : 5 e 1+L+N+P+R+U+V+W+V+S+Q+O+L+L+M+M+L+1+2+e 1+5 { ) { e N+R+N+M+K+L+L+1+( > K+e / / 5 1+1+2+2+K+2+2+N+R+O+( "};
