/* XPM */
static char * enemy2_xpm[] = {
"64 64 272 2",
"  	c #AEAEAE",
". 	c #AFAFAF",
"+ 	c #ACACAC",
"@ 	c #ABABAB",
"# 	c #AAAAAA",
"$ 	c #ADADAD",
"% 	c #B1B1B1",
"& 	c #B4B4B4",
"* 	c #B0B0B0",
"= 	c #A9A9A9",
"- 	c #A7A7A7",
"; 	c #A6A6A6",
"> 	c #A3A3A3",
", 	c #A4A4A4",
"' 	c #A5A5A5",
") 	c #A2A2A2",
"! 	c #A8A8A8",
"~ 	c #A1A1A1",
"{ 	c #A0A0A0",
"] 	c #B3B3B3",
"^ 	c #B2B2B2",
"/ 	c #9F9F9F",
"( 	c #9E9E9E",
"_ 	c #D5D4CB",
": 	c #9D9D9D",
"< 	c #FCF3E6",
"[ 	c #CAC990",
"} 	c #F7EAE7",
"| 	c #A8A16B",
"1 	c #9C7C75",
"2 	c #E5D6CA",
"3 	c #D8D0AE",
"4 	c #9C9C9C",
"5 	c #E3DCCC",
"6 	c #CEC8BA",
"7 	c #AB9BA6",
"8 	c #74634D",
"9 	c #85694A",
"0 	c #7A6848",
"a 	c #907B58",
"b 	c #A6997A",
"c 	c #E6D8D7",
"d 	c #9B9B9B",
"e 	c #A59589",
"f 	c #B2A59C",
"g 	c #6A534C",
"h 	c #735A56",
"i 	c #755B48",
"j 	c #B9AC92",
"k 	c #F2EADC",
"l 	c #E1DAD4",
"m 	c #D8D6D3",
"n 	c #C4BDBB",
"o 	c #B4ADB4",
"p 	c #ADA3A3",
"q 	c #B2A5AC",
"r 	c #917673",
"s 	c #644B3D",
"t 	c #E9E0D5",
"u 	c #9D9394",
"v 	c #97867B",
"w 	c #9B8D8D",
"x 	c #A99A98",
"y 	c #947C74",
"z 	c #645245",
"A 	c #73615B",
"B 	c #8B6E73",
"C 	c #937769",
"D 	c #A2837C",
"E 	c #CCC7C8",
"F 	c #A28F91",
"G 	c #B99980",
"H 	c #A68986",
"I 	c #B29C9C",
"J 	c #978B91",
"K 	c #74646B",
"L 	c #A49494",
"M 	c #7A5E5A",
"N 	c #503629",
"O 	c #5E4333",
"P 	c #533C34",
"Q 	c #62524E",
"R 	c #927F81",
"S 	c #59423C",
"T 	c #593E2C",
"U 	c #DCD5D4",
"V 	c #D4D2D2",
"W 	c #ABA8A9",
"X 	c #745D64",
"Y 	c #8C7B7B",
"Z 	c #6B5953",
"` 	c #796258",
" .	c #4A3B44",
"..	c #654637",
"+.	c #5A422B",
"@.	c #452A18",
"#.	c #8B837E",
"$.	c #BAB6B7",
"%.	c #BCB5B4",
"&.	c #A29B9B",
"*.	c #846E6C",
"=.	c #836458",
"-.	c #857579",
";.	c #8A736D",
">.	c #7B696B",
",.	c #948887",
"'.	c #856B66",
").	c #523A2E",
"!.	c #513C3A",
"~.	c #6D4E32",
"{.	c #75532B",
"].	c #6E625D",
"^.	c #D7D4D2",
"/.	c #BCA7A8",
"(.	c #644D4C",
"_.	c #54433B",
":.	c #745D5A",
"<.	c #634748",
"[.	c #422E2B",
"}.	c #665858",
"|.	c #937D7C",
"1.	c #4C3324",
"2.	c #57391C",
"3.	c #94827B",
"4.	c #E7E6E9",
"5.	c #D8CCC9",
"6.	c #AC9C9C",
"7.	c #C3AAAD",
"8.	c #A89292",
"9.	c #846E73",
"0.	c #7B6562",
"a.	c #6C5A5A",
"b.	c #452C24",
"c.	c #524244",
"d.	c #786967",
"e.	c #4C2F16",
"f.	c #9D9B9C",
"g.	c #9C8484",
"h.	c #A08B8D",
"i.	c #7B6A64",
"j.	c #624A43",
"k.	c #746264",
"l.	c #3E220C",
"m.	c #3B231B",
"n.	c #5A4B52",
"o.	c #463747",
"p.	c #524552",
"q.	c #503739",
"r.	c #9E868A",
"s.	c #816C65",
"t.	c #574C42",
"u.	c #4D4242",
"v.	c #85746D",
"w.	c #3B2E3A",
"x.	c #DBD9D8",
"y.	c #E3DBDB",
"z.	c #412D3A",
"A.	c #6A5C64",
"B.	c #6C646C",
"C.	c #CFCAD6",
"D.	c #3A2D34",
"E.	c #3D2C2D",
"F.	c #43322B",
"G.	c #322423",
"H.	c #2B1E1B",
"I.	c #2C232D",
"J.	c #5A515A",
"K.	c #49332C",
"L.	c #362529",
"M.	c #53444C",
"N.	c #685A49",
"O.	c #32231C",
"P.	c #3B2A23",
"Q.	c #2C2524",
"R.	c #231C1B",
"S.	c #656265",
"T.	c #4B424C",
"U.	c #3E3742",
"V.	c #867C82",
"W.	c #C3B8B6",
"X.	c #897773",
"Y.	c #361E19",
"Z.	c #473937",
"`.	c #2B211D",
" +	c #1B120F",
".+	c #F6FBFC",
"++	c #2F2532",
"@+	c #7C6C73",
"#+	c #CCC3BC",
"$+	c #5B4A4C",
"%+	c #5D5354",
"&+	c #D2CDCB",
"*+	c #8A8686",
"=+	c #8D7A75",
"-+	c #5C4C44",
";+	c #28170B",
">+	c #352B2A",
",+	c #443C42",
"'+	c #3C333D",
")+	c #251914",
"!+	c #423535",
"~+	c #4E4451",
"{+	c #4A3C3C",
"]+	c #B5ABAC",
"^+	c #2B1D26",
"/+	c #989496",
"(+	c #342734",
"_+	c #D9D6D4",
":+	c #363232",
"<+	c #474248",
"[+	c #EBE5E2",
"}+	c #DCDCE0",
"|+	c #D5D5D5",
"1+	c #9A9A9A",
"2+	c #564A58",
"3+	c #3B312C",
"4+	c #999999",
"5+	c #E2DEE4",
"6+	c #797577",
"7+	c #554B4A",
"8+	c #D5D4D4",
"9+	c #B5A8A6",
"0+	c #959595",
"a+	c #969696",
"b+	c #989898",
"c+	c #49433D",
"d+	c #897664",
"e+	c #C6B6A6",
"f+	c #C2BFC1",
"g+	c #2A2527",
"h+	c #98948A",
"i+	c #746C6A",
"j+	c #C6C4C3",
"k+	c #544334",
"l+	c #D2C8BA",
"m+	c #9B8B84",
"n+	c #B6B2AD",
"o+	c #DAD3C8",
"p+	c #867373",
"q+	c #A69996",
"r+	c #7B7375",
"s+	c #D2D1D1",
"t+	c #D3D2C9",
"u+	c #4D3A2E",
"v+	c #94826A",
"w+	c #5F4A33",
"x+	c #595858",
"y+	c #393332",
"z+	c #342A34",
"A+	c #B5AE9C",
"B+	c #7A746A",
"C+	c #5D483C",
"D+	c #C1C2BE",
"E+	c #484644",
"F+	c #827D7A",
"G+	c #D5D3CE",
"H+	c #A8A197",
"I+	c #D2D1C8",
"J+	c #D3D2D2",
"K+	c #C5C5C2",
"L+	c #C5C6C2",
"M+	c #DFD9D2",
"N+	c #979797",
"O+	c #949494",
"P+	c #939393",
"Q+	c #929292",
"R+	c #909090",
"S+	c #8F8F8F",
"T+	c #919191",
"U+	c #8E8E8E",
"V+	c #8C8C8C",
"W+	c #8B8B8B",
"  . . .   + @ # @ $ .   $   % & * *   + @ = - - # @ + $ $ + @ # %   @ # # = ; > > , ' ' ' ' , > > ) ; + @ ' ; + + - ' ! - ~ { > ",
"$ $ $ $ $ + @ @ @ $     + $ % & * .   + @ = ! - @ + $ $ $ $ + @ %   @ # @ # - , > > , ' ' , > > ) ~ ' @ # , ' @ $ ! ; = ! ) ~ , ",
"# # @ @ @ + + + # + $ $ + + * ] . .   + @ = ! ! + $         $ + %   @ @ @ @ ! ' > > > > > > > > ~ { , = ! > , #   = ! @ = > ) ; ",
"! ! ! ! = # + + = @ + + # @ . ^ .   $ + @ # = ! + $   . .   $ + * $ # # @ @ ! ; , > > ) ) > > , ~ { ) - ; ~ > # . # = + # , > - ",
"- ; ; ; ; ! # @ - = @ # = # $ %   $ $ + @ # # = + + $     $ + +   @ = = # # ! ' , > ) ~ ~ ) > , ) { ) ; ' ~ , @ . # = + # , > - ",
"- ; , > , ' ! = ; ! # = ! = + . $ $ + + @ @ # # # @ + + + + @ # @ ! ; - ! = ; , , > ~ / / ~ > , , ~ > ; ' ) ' $   = ! @ = > ) ; ",
"= - , ) ~ > ' - ' - = ! - ! @ . + + + + @ @ @ @ ! = # @ @ # = ! ! ; , , ; - ' ) , ) { ( ( { ) , ; > , - ; > - . $ ! ; = ! ) ~ , ",
"= - , ~ { ~ > ' ' - ! ! - - @   + + + + @ @ @ @ - ! = = = = ! - ; , ) > ' ' , ~ , ) { ( ( { ) , - , , ! - > ! * + - ' ! - ~ { > ",
"- ; ; ' , ) ) ~ ' ; - ! ! ! - ; $ + @ = = ! = = - ! ! = ! - ; ' > _ > , , ' ' ' > > ) ~ ~ ) > , ; ' , , ' ! @ $ + @ ! ) : ( , # ",
"- ; ' , > ) ~ ~ , ' - ! = = ! ! + @ # = ! ! ! = ; - - - - ; , _ > > > , , _ ' ' , > ) ~ { ~ ~ ) ' , > , ; = +   + + = > / / ' @ ",
"; ; ' , > ) ~ ~ ) , ; ! = # # # @ # ! - - - ! ! , ' ' ; ' , < [ < > > , , ' ' ' ; ' > ~ / ( ( ( > ) ) > ; # $ * $ + = ' ~ ) - @ ",
"; ' , > ) ~ { { { ) , - = # # # ! - ; ' ' ; - - > > , , , ) } | 1 2 3 3 , ' ' ' ! ; > ~ ( : 4 4 ~ ~ ) > ; # . %   + = ' , ' = @ ",
"' ' , > ) ~ { / / { ) ' - ! ! = ' ' , > , , ' ; ) > > > 5 6 7 8 9 0 a b c ' ' ' = - ' ~ / : 4 d ~ ~ ) > ; # . % $ @ - ' ; ! = # ",
", , > ) ~ { / / : ( { ) , ' ' ' > ) ) ~ ) > , ' > > , , 5 e f 7 9 g h i 0 j k l # = ; > { / ( ( > ) ) > ; # $ * + ! ' , - = = ! ",
", , > ) ~ { / ( 4 : / { ~ ~ { { ~ { { { ~ ) , , , m n o p b j q r h h h i s 8 e t 5 k , ) ~ ~ ~ ' , > , ; = +   # ; > > - = ! ; ",
", > > ~ { / / ( 4 : ( / / ( ( : { / / / { ) > , , u v w 7 b 0 x y i z g s A B C D C b 5 , > > > ; ' , , ' ! @ $ = ' ~ ) ; = - , ",
", > > ) ~ / / ( ( ( / / { { ~ ~ / / { ~ ) ) > > E F G H I J K L M N O P Q B R M S T 9 s U ) > { ' ) / { , - - - > ) ) ) > ' ; - ",
", > ) ~ { / ( ( 4 4 : : ( ( / / : ( ( ( / / V W q X 1 1 B u Y Z g r ` A K X R  .g ..+.@.z #.$./ ) ~ ) ' = = - , ~ ~ ) > ' ! # + ",
"> > ) ~ { / ( ( d d d 4 : : : ( : 4 4 4 d %.&.p I *.=.=.` -.g ..Z ;.y A >.,.'.).!.~.{.{.).].^./ ~ ) ' # $ + ! > ~ ) > ' ! @   * ",
"> ) ~ { / ( : : 4 4 4 : : ( ( ( ( : ^.n p J /./.H r r 1 r B (..._.:.<.[.}.>.|.C 1.O {.2.T 3.4./ , , ; # $ $ # ; ; ; ; - = +   * ",
") ) ~ { / ( : 4 ( ( ( / / { n E } 5.6.F 7.8.R H |.9.0.:.a.*.M b.P P z c.9.d.O i T e.e...H a.f.~ = - ' ; # + + @ @ @ # = # @ + + ",
"~ ~ { / ( : 4 4 ( / / / { U -.,.H g.h.7.I R '.X a.X X K g.F |.h '.i.` j.k.Y i.1.l.@.m.<.n.o.$., # - , , ! @ + +   $ @ # = # # @ ",
"~ ~ { / ( : 4 d : : ( ( / J F h.:.}.X >.X n. .p. .q.a.9.H r r r.x s.P t.u.n.Y v...@.X  .w.K x.- ; ' , ; # @ # ! @ @ # = = # @ + ",
"~ { { ( : 4 4 d d d 4 4 y.w L '.q.z.9.A.X B.o C.o.D.E.<.1 1 *.h.h.B F.G.H.I. .k.=.<.}. .6.^.{ # ) ) ' = $ + ! , ! ! ! ! # @ $   ",
"4 : ( / / / ( ( { { { { q r.B g I.J.~ { / { ~ #.m.K.L.w.M.a.B R Q N.F.O.P.Q.R.S.T.o.U.V.# ; , > = # # @ + $ $   # - ' ; = @ # = ",
": : ( / / / ( ( / / / W.X.9.(.P.M.y.~ V W { k t...b.Y.L.D. .n.M.Z.`.m.O. +Q.o .+S.++U.@+= ' , ' = # # @ + + $ $ # - ' ; = + + @ ",
"( ( ( ( ( ( ( ( / / #+|.Q $+L.%+&+{ ~ f.*+%.=+-+..O Y.;+>+,+U.w.'+Z.)+!+}.%.' x.~+++o.w.q , ' - = = # # @ @ @ @ = ; ' ; # $ $ + ",
"{ / ( : : : : ( ( E |.y {+E.]+( 4 ( ~ p B.u i.` O 1.Y.H.Q.^+R.,+/+$.$.V , , ' 4.~+I.(+U.A.n _+= = = = = = = = # ! ; , ; # $   $ ",
"~ { ( : 4 4 : ( U *.=.j.E.q ( ( d : { W o.J I 9.Z F.O.H.)+)+`.:+<+J ) , ' ' , , $.I.o.o.X V.[+= ! ! ! ! ! ! ! - ! ' , ' = @ + @ ",
"> ~ ( 4 d 4 : ( #.Y.g Y.L : : : d 4 ( }+~+~+V.-.B.$+Z.G.)+`.`.)+(+,+x., ' ' , > , A.(+A.9.-./+|+! ! - - ; ; ; ; ! ' > > ; ! ! ; ",
", ) / 4 1+d : ( v.K.Y.q.U : : : : 4 4 4 $.T.~+2+J.J.A.a.Q 3+Q.>+U.w.E ' ; ' , ) ~ C.++w.%+@+R L 4.- - ; ' ' , , ! ' ) ) > ' > ) ",
"' ) / d 1+d 4 ( N.).m.0.4 4 4 4 ( : d 1+4+5+U.U.2+p.K 7 ]+L 6+<+w.++o ' ; ' > ) / , J (+I.7+>.R /+8+- ; ' , , > ! ' ~ ~ ) ) ~ / ",
", > { ( 4 d 1+1+*+`.s N.9+1+4+4+0+a+b+1+4 ( B.^+o.~+@+u &.]+W.L k.'+*+, , > > > { ~ ~ y.*+:+c+=.;.8.c ; ' , , > > , ' ' ' ' , > ",
", ) { ( 4 d d d d+P.3+K.+.a e+1+b+b+4+d : ( f+g+w.o.K 9.h+u ]+9+6.i+B.4., > > ) { ~ ~ ) > j+u.-+0.3.;.W.' , , > > > , ' ' , > > ",
"> ) { ( 4 d d d d+;+k+l+m+_.+.b d 4 4 : ( ( / W ^+++Z.$+k.u &.p p J i+u > > ) ) ~ ~ ~ ) ) > W ^+Q h g.v.y., , , ) > , ' ' , > ) ",
") ~ / : 4 4 V 6 v ;+#+4 : : n+T o+( ( ( ( ( ( ( o :+^+{+ .p+L x 6.q+w d.U ) ) ~ ~ ~ ~ ~ ~ ) ) r+H.F.g s.n , , , ) ) > , , > ) ) ",
"~ { / : 4 4 5 k+i 3+s+4 : ( / n h+/ / ( ( : : : ~ 4.n.L.:+T.p+g.p L |.g.Y [+~ ~ ~ ~ ~ ~ ~ { { { m+P.k+P.n+, , , ~ ) > > > > ) ~ ",
"~ { ( : : : < d+9 @.t : ( ( ( ( ^.( ( : : f.W 4 / &+>+(+++Q.L.(.>.L y =+Z n+{ { ~ ~ ~ { { t+5./ f F.u+i+t , , , { ~ ) > > ) ~ { ",
"{ / ( : : : 3 v+z e.w+h+( : : : d d 4 4 x.<+:+6+*+g+g+g+R.R.H.N K.;.y i.v.w { { ) ~ ~ { t+e+k+v.k+N.O.#+> , , ' { ~ ) ) ) ) ~ { ",
"{ / ( : : : < 9 N.t h+j+( : 4 4 4+1+1+d V c+U.g+g+S.x+S.x+6+q+g q.<.s.v m+#.#+{ ) ~ ~ { l+w+w+8 N.K.[.5.> , , ' { { ~ ) ) ~ { { ",
"/ ( : : : : ( [+N.5 4 4 4 4 4 4 4+d ( ~ , j+y+z+p / { ~ ~ n+m+S 1.).k+A ,.6+*+~ ~ { { / A+B+> , ' %+3+f ~ ~ ) ) / { > ' ' , > ) ",
"{ { / ( ( / { { l+h+( ( ( / / / { ~ ~ ) ) > x+Q.n+/ { ~ f+7+A K.C+P k+Q 7+g+o ~ { { { ~ o+5 ) ) , #+ +N e [+~ ~ / { ) , ' , > ~ ",
"> ) ~ { { ~ ) > / { { ~ ) > > , - ' > { / { S.3+6+{ { ~ ,.$+<.j._.u+P.G.`.B.{ ~ : / ~ > > > ~ j+A+N.N.;+s A+/ / ( { ) , , , ) ~ ",
"' , > ) ) > , ' ~ ) ) > ' ' ; - - , { : 4 D+%+3+c+[+~ p {+{+c.!.H.>+E+,.n / { ~ 4 ( ) , ' > ~ V %+t.@.0 k+6 : ( ( / ~ > , > ) { ",
"; ' , , , , ' ; > > , , ' ; ; ; ~ / 4 1+d : F+c+t.i.q+u.c+Q.>+7+*+E / ( ( / { ~ 4 ( ) , ' > ~ / G+H+l+H+v.I+: : : / ~ > > ) ~ { ",
"; ' , , , , ' ; , , > > > > > > : 4 4 4 : { G+f.t.a.t.!+Q.F+J+{ ~ { / ( ( / { ~ : / ~ > > > ~ { { { ( n+: : : ( 4 ( { ) > ) { / ",
"; ' , > > , ' ; , > > ) { / / ( ( / { ~ ) > , , Z.d.c+:+Q.x./ / ~ { / ( ( / { ~ { { { ~ ~ ) ) ) ~ { / ( : ( ( / 4 ( { ) ) ~ { / ",
"' , , > > , , ' , > ) { ( : 4 d ) > , ' ; ' , K+x+`.Z.>+g+j+/ / ~ { / ( ( / { ~ ~ { { / { ~ > , ) ~ { / ( ( / / 4 : { ~ ) ~ { / ",
"- - ' ' , ' ' ; ~ ~ ~ ~ ) > ' ; > > , , , , ' ' L+E+:+:+g+#+/ / { { { { { { { { { { { ~ ~ ) ) ) { / : 4 4 : / { ( : ~ ; ' ( / , ",
"- ; ' , , ' ; ; , > ) ) ) > ' ' , , , , , , , , , ,.{+E+>+*+( / { { { { { { { { ( ( ( / / { { ~ / ( 4 d 4 : / ~ ( : ~ ; , ( / , ",
"; ; ' , , ' ; - - ; ' , > , , ' , , , , , , , , > /+c+A F.7+( ( { { { { { { { { 4 : : ( ( / / / : 4 d 1+d : { ~ ( : { ' > : ( ' ",
"; ' , , ' ; - ! = ! ; ' , , , ' ' ' ' , , > > > > E _.u+).C+F+t { { { { { { { { : : ( ( / / { { d 1+4+4+1+4 / ~ ( : / > ) 4 ( ' ",
"' , , , ' ; ! ! = ! ; ' , , , ' ; ; ' , , > ) ) , > Z i O j.P w M+{ { { { { { { / / { { ~ ~ ) ) d 1+b+b+b+1+: ( / 4 ( ) { d ( ' ",
", , , , ' ; ! = - ; ' , > , , ' - ; ' ' > > ) ~ ' K+c+z =.T v+S ].n+{ { { { { { { { { ~ ~ ) ) > 4 1+b+N+N+b+1+d / 4 : ~ / d ( ' ",
"> > > , ' - = # , > ) ) ) > ' ' - - ; ' > ) ~ ~ - 4.,.Z z v -+e i.r+{ { { { { { ( / / { { ~ ~ ~ : 4 4+N+a+a+N+b+/ 4 4 / ( 1+: ; ",
"> > > , ' - = # ~ ~ ~ ~ ) > ' ; ! - ; ' > ) ~ { ! - ' , i+x.h+6 M+H+{ { { { { { : : : ( ( / / / / : 4+a+0+O+0+a+/ 4 4 / : 4+: ; ",
"- - ; ; ' ' , , ) > > , , > ) ~ ~ ) , ' ; ; ; ' ! - ' , > > > > / { ~ ) ) ~ { / d ( ) > ~ / / { 4+1+4+N+O+O+b+d / { ' ! > d 4 > ",
"; ' ' ' , , > > > > , , , > ~ ~ / { ~ ) ) ) ) ~ ) ~ { / ( ( ( / ) ) > > > , , , : { > > { : : ( / / ( 1+a+O+a+b+/ / , - ) 1+d > ",
"' ' ' , , > > ) > , , , , ) ~ { ( ( ( : : : 4 4 / ( 4 d d d 4 4 ~ ~ ~ ~ ) > ' ; { ) > ) : 1+1+1+4 : 4 1+a+0+N+4+( ( ) ' { b+1+) ",
"; ; ; ' ' , , , > , , , > ~ { / : : d 1+4+4+4+4+( : 4 d d d 4 : { / ( ( / ~ > ' ~ > > { d b+N+b+P+0+b+b+N+b+d ( : : { > ( a+4+~ ",
"! - - - ; ; ' ' ) ) ) ) ~ / : 4 4 d 4+N+N+N+N+b+1+1+4+4+4+1+d d ~ ~ { { ~ ) , , { ~ ~ ( 4+a+N+4+0+b+d 4 d d : { 4 4 ( { d O+N+{ ",
"- - ; ; ' ' , , { { { / ( 4 1+b+4+b+0+O+P+O+a+N+0+0+O+O+O+0+N+b+> , ' ; ' ' > > 4 : : d b+N+4+4 { > ' > { : 4 : d 1+4 : b+Q+a+{ ",
", , > > ) ) ~ ~ ( ( ( : d 4+a+0+O+Q+R+S+S+T+O+a+O+O+P+P+O+0+N+b+{ ) , ; ' ~ : 1+b+4+1+4+N+b+4 { ~ , ' , / d 1+1+d 4+1+d a+T+0+/ ",
"~ ~ { { / / ( ( : : 4 d 4+N+0+P+R+U+V+W+V+S+Q+O+N+N+a+a+N+4+1+d 4+4 { ) { d 0+R+0+a+b+N+N+4+( > b+d / / 4 4+4+1+1+b+1+1+0+R+O+( "};
