/* XPM */
static char * exit_xpm[] = {
"64 64 316 2",
"  	c #AEAEAE",
". 	c #AFAFAF",
"+ 	c #ACACAC",
"@ 	c #ABABAB",
"# 	c #AAAAAA",
"$ 	c #ADADAD",
"% 	c #B1B1B1",
"& 	c #B4B4B4",
"* 	c #B0B0B0",
"= 	c #A9A9A9",
"- 	c #A7A7A7",
"; 	c #989696",
"> 	c #9A9998",
", 	c #573D32",
"' 	c #4D3932",
") 	c #979595",
"! 	c #A6A6A6",
"~ 	c #A3A3A3",
"{ 	c #A4A4A4",
"] 	c #A5A5A5",
"^ 	c #A2A2A2",
"/ 	c #A8A8A8",
"( 	c #A1A1A1",
"_ 	c #A0A0A0",
": 	c #594338",
"< 	c #988378",
"[ 	c #D5BDB3",
"} 	c #C6ADA3",
"| 	c #C7A898",
"1 	c #E7C7B9",
"2 	c #DBC4BB",
"3 	c #CAB3A9",
"4 	c #B79D93",
"5 	c #A68D83",
"6 	c #695952",
"7 	c #888584",
"8 	c #B3B3B3",
"9 	c #9D8B83",
"0 	c #D8C3B8",
"a 	c #F6DED4",
"b 	c #957D72",
"c 	c #482D22",
"d 	c #4A2A1B",
"e 	c #37190B",
"f 	c #2C0C01",
"g 	c #785B52",
"h 	c #EDD0BE",
"i 	c #230200",
"j 	c #1B0100",
"k 	c #E9CEC2",
"l 	c #CBB9B1",
"m 	c #B9A596",
"n 	c #B2B2B2",
"o 	c #4F4339",
"p 	c #AB9A92",
"q 	c #BAA59A",
"r 	c #6A503C",
"s 	c #885F52",
"t 	c #B68E80",
"u 	c #B38C7B",
"v 	c #C6A28C",
"w 	c #F8D8C8",
"x 	c #D4B3A3",
"y 	c #DBBBAB",
"z 	c #876858",
"A 	c #130100",
"B 	c #ECDCD3",
"C 	c #8C7A73",
"D 	c #EAD7CA",
"E 	c #A98776",
"F 	c #F5CDC2",
"G 	c #F5CAB8",
"H 	c #986E60",
"I 	c #9C7462",
"J 	c #87614F",
"K 	c #845D4A",
"L 	c #775748",
"M 	c #56311B",
"N 	c #643C2A",
"O 	c #946C5B",
"P 	c #BB9382",
"Q 	c #CBA593",
"R 	c #D5ADA0",
"S 	c #6B5549",
"T 	c #DCCAC4",
"U 	c #78655A",
"V 	c #8B7368",
"W 	c #744C3A",
"X 	c #4C2513",
"Y 	c #5C321E",
"Z 	c #7B4D3B",
"` 	c #A47662",
" .	c #C39D8B",
"..	c #A5816D",
"+.	c #835542",
"@.	c #AA7E6A",
"#.	c #A47D71",
"$.	c #6A3E2B",
"%.	c #7C5543",
"&.	c #CCA28C",
"*.	c #E1BDB1",
"=.	c #968174",
"-.	c #9F9089",
";.	c #BCACA1",
">.	c #3B2618",
",.	c #B89688",
"'.	c #FED5C2",
").	c #B38573",
"!.	c #C5988D",
"~.	c #C4937C",
"{.	c #AB7A65",
"].	c #D5AA94",
"^.	c #DBAD99",
"/.	c #CC9D89",
"(.	c #D4A38C",
"_.	c #9B6B54",
":.	c #C39582",
"<.	c #CB9B84",
"[.	c #E4B5A2",
"}.	c #E3AD9A",
"|.	c #946652",
"1.	c #663D31",
"2.	c #562D1A",
"3.	c #794734",
"4.	c #D3AD9C",
"5.	c #381D12",
"6.	c #8E8D8D",
"7.	c #796A64",
"8.	c #A8948A",
"9.	c #FEEDE3",
"0.	c #583726",
"a.	c #D4A592",
"b.	c #BB8573",
"c.	c #F3C3AC",
"d.	c #FCCBB4",
"e.	c #DBA692",
"f.	c #B37C67",
"g.	c #E7B59D",
"h.	c #FEE3D4",
"i.	c #EABEA9",
"j.	c #471B08",
"k.	c #55280D",
"l.	c #DBAB94",
"m.	c #7C4C35",
"n.	c #FAEAE4",
"o.	c #584A43",
"p.	c #744A33",
"q.	c #5C3C2B",
"r.	c #8C6452",
"s.	c #541E07",
"t.	c #915C47",
"u.	c #FDC7AE",
"v.	c #CA9581",
"w.	c #834D37",
"x.	c #A36D57",
"y.	c #C7947C",
"z.	c #BB8A73",
"A.	c #7B472D",
"B.	c #E2AC95",
"C.	c #FDD2BC",
"D.	c #723C28",
"E.	c #DCB4A2",
"F.	c #F9E5DA",
"G.	c #9D9D9D",
"H.	c #9E9E9E",
"I.	c #FFFAEC",
"J.	c #6C4432",
"K.	c #BD927C",
"L.	c #845A44",
"M.	c #C18D7A",
"N.	c #C28D75",
"O.	c #F2BCA6",
"P.	c #2A0100",
"Q.	c #370802",
"R.	c #4B1A03",
"S.	c #5B2B14",
"T.	c #724633",
"U.	c #8B5C45",
"V.	c #83523C",
"W.	c #55230B",
"X.	c #A8735A",
"Y.	c #B9856D",
"Z.	c #74432C",
"`.	c #3B0D00",
" +	c #250D02",
".+	c #9F9F9F",
"++	c #866E65",
"@+	c #977769",
"#+	c #EBBBA4",
"$+	c #C59A84",
"%+	c #522512",
"&+	c #9B6551",
"*+	c #89573B",
"=+	c #94634C",
"-+	c #B2836C",
";+	c #9B715B",
">+	c #E0A88F",
",+	c #A3735C",
"'+	c #D8B9A8",
")+	c #442719",
"!+	c #764F40",
"~+	c #B5917C",
"{+	c #B58A74",
"]+	c #421004",
"^+	c #8A5642",
"/+	c #6D412C",
"(+	c #EBB6A2",
"_+	c #6C3B24",
":+	c #E3B39D",
"<+	c #AD816B",
"[+	c #FFF4EB",
"}+	c #8B5E4A",
"|+	c #320400",
"1+	c #9C6D5B",
"2+	c #E9C1AC",
"3+	c #946A55",
"4+	c #643924",
"5+	c #392C25",
"6+	c #4A3429",
"7+	c #E2D3CB",
"8+	c #FFE2CE",
"9+	c #E6BAA5",
"0+	c #BB8D7A",
"a+	c #99674A",
"b+	c #929090",
"c+	c #D9A48D",
"d+	c #8C624C",
"e+	c #331302",
"f+	c #4A220B",
"g+	c #D59C87",
"h+	c #A57A68",
"i+	c #431402",
"j+	c #D6B397",
"k+	c #DDB29D",
"l+	c #65341B",
"m+	c #654738",
"n+	c #340B00",
"o+	c #E3CDC4",
"p+	c #E5D1C5",
"q+	c #633524",
"r+	c #935C3E",
"s+	c #694229",
"t+	c #98715A",
"u+	c #A76D51",
"v+	c #D6B19D",
"w+	c #7C523D",
"x+	c #785138",
"y+	c #D6947E",
"z+	c #6A3521",
"A+	c #A47A64",
"B+	c #E3BCAA",
"C+	c #642F21",
"D+	c #542A14",
"E+	c #7F7069",
"F+	c #BD9984",
"G+	c #939292",
"H+	c #D29D8A",
"I+	c #3C1302",
"J+	c #1A0D06",
"K+	c #291509",
"L+	c #9C9C9C",
"M+	c #0C0905",
"N+	c #D8C1AF",
"O+	c #FFF0DB",
"P+	c #C5B09F",
"Q+	c #664D44",
"R+	c #1B120C",
"S+	c #929190",
"T+	c #130A04",
"U+	c #0B0201",
"V+	c #FFFCF3",
"W+	c #5D5244",
"X+	c #020302",
"Y+	c #6E675F",
"Z+	c #FFF4E3",
"`+	c #050906",
" @	c #9A644D",
".@	c #868483",
"+@	c #534039",
"@@	c #DED3CF",
"#@	c #848180",
"$@	c #665B57",
"%@	c #271B14",
"&@	c #665A57",
"*@	c #959393",
"=@	c #949292",
"-@	c #746D6B",
";@	c #2B2119",
">@	c #612916",
",@	c #695F5D",
"'@	c #908F8E",
")@	c #9B9B9B",
"!@	c #979797",
"~@	c #989898",
"{@	c #9A9A9A",
"]@	c #949494",
"^@	c #959595",
"/@	c #969696",
"(@	c #999999",
"_@	c #8D8C8C",
":@	c #605853",
"<@	c #939393",
"[@	c #655B58",
"}@	c #807F7E",
"|@	c #685E5B",
"1@	c #929292",
"2@	c #909090",
"3@	c #8F8F8F",
"4@	c #919191",
"5@	c #5F5852",
"6@	c #8E8E8E",
"7@	c #8C8C8C",
"8@	c #8B8B8B",
"9@	c #7E7B7A",
"0@	c #513D36",
"a@	c #76706E",
"  . . .   + @ # @ $ .   $   % & * *   + @ = - - # @ + $ $ + ; > , ' , ) # = ! ~ ~ { ] ] ] ] { ~ ~ ^ ! + @ ] ! + + - ] / - ( _ ~ ",
"$ $ $ $ $ + @ @ @ $     + $ % & * .   + @ = / - : < [ } | 1 1 2 3 4 3 2 3 5 6 7 ~ ~ { ] ] { ~ ~ ^ ( ] @ # { ] @ $ / ! = / ^ ( { ",
"# # @ @ @ + + + # + $ $ + + * 8 . .   + @ 6 9 0 a b c d e f g h e i j i : | k [ l m 9 ~ ~ ~ ~ ~ ( _ { = / ~ { #   = / @ = ~ ^ ! ",
"/ / / / = # + + = @ + + # @ . n .   o p 0 q g r k , s t < u v w x y w 4 z y | j A : } B C ~ ~ { ( _ ^ - ! ( ~ # . # = + # { ~ - ",
"- ! ! ! ! / # @ - = @ # = # $ %   5 D m f A , E F G t H E I J K L M N O P Q R 1 R S A c l T 9 { ^ _ ^ ! ] ( { @ . # = + # { ~ - ",
"- ! { ~ { ] / = ! / # = / = + U [ V } | b 1 1 t W X Y Z `  ...+.K J @.u #.K $.%.O &.*...4 E 5 1 =.( ~ ! ] ^ ] $   = / @ = ~ ^ ! ",
"= - { ^ ( ~ ] - ] - = / - / -.;.>.A ,.'.E +.+.).!.~.{.].^./.(._.+.:.^.<.[.}.` |.1.2.3.R 4.| i 5.q T 6.- ! ~ - . $ / ! = / ^ ( { ",
"= - { ( _ ( ~ ] ] - / / 7.B 8.A L 9.Q X 0.I G a.b.[.c.d.e.f.g.'.h.i.@.j.k./.l.m._./.:.s W a.F g A q n.o.- ~ / * + - ] / - ( _ ~ ",
"- ! ! ] { ^ ^ ( ] ! - p l 4 8.4 h.p.q.r.|.:.~.s.t.u.v.w.x.y.z.A.$.f.^.a.y.B.C.C.g.~.(.c.f.N D.E.a 3 < F.6 / @ $ + @ / ^ G.H.{ # ",
"- ! ] { ~ ^ ( ( { ] C 4 A z I.E J.).K.L.~.d.M.N.O.m.i P.Q.R.S.S.s.0.T.{.U.V.W.X.c.Y.Z.Y./._.L.`.H F  +c 9.7.+   + + = ~ .+.+] @ ",
"! ! ] { ~ ^ ( ( ^ ++3 A @+'.1.W E.#+$+#+'.a.Y.{.D.%+w.Y.X.Y.&+*+_.=+@.-+;+w.`.`.A.>+(.}.c.{.,+$+%.z '+)+ +D b * $ + = ] ( ^ - @ ",
"! ] { ~ ^ ( _ _ 6 9.S !+h.0.W ~+l.0.{+i.$.P.]+^+f.b.{.~.M.z.V./+j j Y (+U.V.N.x.A.D._+=+l.C.:+<.i.<+J w 1.b [+9   + = ] { ] = @ ",
"] ] { ~ ^ ( _ 6 } V k w 0.^+}+Y.].@.E.+.|+1+b.U.{.e.` M.a.^.].2+K J.3+E 3+;+/+:+X.z.*+i i ~.(.V.}+(+|.4+h.| 5+9.6 @ - ] ! / = # ",
"{ { ~ ^ ( _ 6+7+5.c h.J.t.@.t.8+9+0++.!+:.a.|.3.+.:.0+0+=+T.4+M q.J.L 3+v K.~.{+-+N.a+<._+R.(.z.t.y.&.Z X x e ' T b+] { - = = / ",
"{ { ~ ^ ( _ B S j 9.z 1+u.c+u.c+_+j %.K j.H 9+9+).Z Q.|+`.Y d+I @+L e e+f f+p.X.~.,+,+_.M.&+Z.z.B.c.g+Y.$.W h.A 5 9 ~ ~ - = / ! ",
"{ ~ ~ ( _ 7.[+: '+h+J.C.x.a+g.A.i ).t j.i H R N i+J.-+].9+j+K.~+ .u G k+&.;+p.f+l+v j+I &.,+|.i+W.~.c.(.9+J.,.,. +9.o ^ ! = - { ",
"{ ~ ~ ^ ( q m+h.Q ]+:.(+W.t.e.R.f.l+&+0+@+z P.q.2+c.a+M k.l+S.<+z.k.S.S.p.y.K.$+0.j L 1 O  +k.,+P.n+^.K.~+c.J.i.x 1 o+^ ~ ] ! - ",
"{ ~ ^ ( =.p+d 2+q+|.&+l.{.O.t.&+r+*+Y.].1.i @+F s+..t+u+<+a+=+l+l+a+<+u+r+*+(.;+D 5 A 6+E X l+=+{.n+O ~.z.~._.W 8+M @+9 ] / # + ",
"~ ~ ^ ( 2 U 1 v+T.V.U.c.O.+.}+_.w.(.N.2.P.y t Q.d+t+l+k.l+Z.u+d+a+A.A.A.w.a+(.S.X ,.q 5.5.v+&.3.r.I %+:+(.~.&+$.&...j o+o @   * ",
"~ ^ ( =.3 j x %.|.T.#+c.j.q+:.v.-+c+k.s+F !+j.,.w+S.x+z.-+j+].j+~+U.y+y+-+l+z+-+@+j.g 1 J.M /.].A+I T.s+:+c.T.|.f+w e ++8.+   * ",
"^ ^ ( 7+5+g 4.%.&.a.d.,+P.$+{.<+].4+Y B++.C+!.Q./+K.*+~.^.!.y Q j+j+c.(.X.N.N._+C+t N 1.w %+$.0+i i 0+`.T.C.(.-+D+u @+ +7+@ + + ",
"( ( E+B j x %.F+].;+].m.U.%.@.~+%.i  .F+P @.]+` ~.z.(.j+u +.H R F+;+d+K.B.(.N.>+,+P.O 4.!.E.Q.r.$.I Q 3.i+l.<.g.K.W 4.U F.G+# @ ",
"( ( q 7+o+,.X 2+z.<.&.D+3+i f+y f O y q+0+`.f.H+<.:+a.+.1.z #.[ 1 ,.d+N ;+g.(+N.c+` Q.:.I+ .A+J+4.K h+).Z.g+a+U.9+w+1 | q p @ + ",
"( _ [ c x O /+~+c.].I+x+K./+J 0.f w j.r.}+=+&+(.#+a.$+4.#.z )+Q.K+)+L u c.~.<.g.:.a.` Y u e 2+e N E.)._.}+<.,+^+].` u z 5+2 $   ",
"L+' 3 j x J W /.C.l+i A+Y &.2+A ,.r m+t+^+0+f.c._+K.2+q.A c @+4 4 C >.M+0.2+J s+g.y...s+a+s+z | i  .O 1+z.w.e.g+:.3+%.|  +p+: = ",
"G.U 5 e+2+0.4.:+#+I+%+_.4+v+L s+|  +].i+f.v.g.V.W ~+e e k I.a [+[+p+I.h e  +N+s+t+&...K.f+~+X N+Y !+1+w.{.l+a+d.f.}+$.4.f q 9 @ ",
"H.8.z d v+J 9+<+^.l+p.A+3+v+X ,.z ..M p.g.>+O.%.v e+o I.2 , u 0 D E 6+F.O+: j | {+2+&.{+r 4+~+P+#.X :.r.X.A.R.O.(.U.l+E r Q+3 + ",
"_ 0 z ..{+A+9+l+~.*+=+{+]. .e+F+2+~+|+0+N.e.b.'.: 6+I.q  +>.D Q+, I.R+J+;.I.>.m+'+j+:+U.~+e ~+..4.|+P ].v.X.]+>+>+-+w+..E c D $ ",
"S+'+N+8+J t+].~.g.w+A+d+~.I f y m+d+_+g+y.>+e.!.A l 7+T+U+3 4.A A ;.[ U+J+7+2 A v K ~.l.y.Z.H X y j.s @.=+u+D.g+N.^.<+w+8+h.| @ ",
": N+e+j+x+V.,+9+z.W.z._.].L.j.E.D+|.A.g+g.&+}+L c V+6 M+W+F.=.J.L z [+7.X+Y+Z+6+S 3+L.:+c+Z.1+%+4.2.W 1+t.a+u+g+l+N.z.A+F+g 1 ! ",
", N+A | s+d+_+O+=+R.X.d+K.M J.v 4+=+*+y.(+D.b.c C n.`+M+7+I.N+w h h 9.7+T+U+[+++d A+=+c+u+w. @$.P %+1.H+<.z.w.>+X.N.y.;+E P.p+.@",
"+@| e+y m+d+=+d.r+W.z.^+<+q+W ).4+U.*+{.>+D.u Q.p @@M+Y+B O+r i i r a a 7.U+@@4 f E.g+:+Y.=+w.$.).!+1.+.V.y+s.f.g.y+{+Z ..e 1 #@",
"$@4.i 4.+.{.g+e.y+l+N.(.].W.t+{+x+p.m.).e.P R P.4 D R+B U V 1  +i F b g F.%@0 4 Q.y a.[./.t.s+J ~+3+D+[.` b.W.D.C.Y.+.%.F+i k &@",
"*@3 e+G 3+z.(.*+B. @&+_.:.4+J k+9+f+t+a.R t F ]+++F.8.0 A U+8+++g a A A [ p B V e 4.#.e.@.}+S.j+~+w+J.].-+f.]+t.u.,+O N | j 3 : ",
"=@k u F K a.z.k.<.a+-+_.a.w+4+Q x+x+C+H+[.a.R !+c [+O+U K+>.U O+F.V 5+>.6 O+Z+)+L H s }.B.Z _.d+4.N w+@.@.z.l+X.d.b.s J.F b h -@",
"^ l >.E @+@.j+z.l._+&+l+].A+I+~+l+_.C+H+v.!.1.P i [ I.8+B I.B O+F.a a a p+I.2 i :.C+b.e.M.Z ,+2.B+e+3+@.,+,+V.(.` ].I O y t D ^ ",
"( N+K+=...s+~+k+l.I+U.p.Q K.i E M _.k.-+v.(+C+b.W d I.q ;@K+R+o r ;@%@5+;.O+)+q./.L.}.f.N.+.L.K $+P.;+f+D+U.m.l.Z [.@.u @+0.3 ( ",
"( 3 S U =.s+p.v #+`.*+<+p.t+e+%.t+x+Z w.g+g+v.>@a.j r Z+D W+T+T+X+`+r 7+Z+r K+9+<.H+e.g+&+}+C+M.%.j.,+i D+U.k.(.<.}.!+R Q+m+8._ ",
"_ Y+D D N+Y ;+t+8+L.S.d+i |.}+e &.J.).Q.}.v.B.~.j+'+J+)+l I.n.T @@Z+I.N+>.J+y.v e.e.M.H+|+f.j.*.e+W {+<+{+%+R.d.e.0+1.B+5.5 g _ ",
"_ o B e+N+L J (.K.c.V._.Z /.:.i t E.0+|.D.g+y.O.y.K.v+s+A c C p 8.=.5.A 4+j+p.x+O.N.1+3.}+t I v P.F+;+~+{.|+_.d.).%.s 4 i [ ,@_ ",
".+H.l K+#.t s i.+.{.v.^+y.,+f.1., 1 e 3+d+,+c+y.d._.M ~+,.r d P.K+c L  .F D.3.O.a.<.A+w+..p.h m+s+k+F+{+m.w+[.(.:.3.g a ,.2 ~ ^ ",
"_ _ 8.7.5.*.s [.M.{.g+>@N.v.M.t e ++2+e+A+A.{.N._.#+{+M J.G *.!.t b #.a.:.}.(+/.~.,+x+..e+| u j | (.p.<+m.l.=+K.i.d  .4 3 q ~ ( ",
"~ ^ ' [ b F %.h+v.(+d.s.C+v.f.(+J A F+].I+~.^+V.{.$+].9+!.!.R 1+C+W 1+(+R v.H+!.3+T.v A | v j t+d+M Z.*+d+~.@.{+).L | j 7+++^ ( ",
"] { ~ o+5 *.#.q+=+^+'.f.>@x.>@f.v s+J+j+K.i+).=++.&.].L.a.(+g+e.[.(+!.H+f.&+b.D.k.E  +~+E.i 4+:.e+P.z.`.{.#+<.(.1+R m+c a ~ ^ _ ",
"! ] { p V K+1 %+,+z+c+O.b.w.f.0+A+4.%+|+E./.Q |...M x+A+/.x.X.B.b.c+N.B.f.V.+.O v z =.2+ +f+y+ @(.,+_+R.g.O.^+{.W 4.A l E+^ ( _ ",
"! ] { o.o+P.'+!.0.=+b.v.a.=+a+<+d+:.H+R.R.).a.$.D+E 3+s+l+D.t.a+a+&+a+l+Z.0+H d : 1 v+e+k.z.y+N.f._.V.B.C.U.=+$.| t 0.T ~ ^ _ .+",
"! ] { ~ p a ++G 3+K ]._.,+y.P.,+w.A.}.e.C+`.I F =.e+M r._.*+a+u+<+a+u+z._.%+1.!.h @+e+q.K.f.f.y+u+a+c+Y.y.,+=+l+'.'+F.U ^ ( _ .+",
"] { { ~ ~ 7+: I+R p.:+K.Y.^.S.|+,+Y.v.x.!.I i `...j+E x+:+W l+W.k.k.k.v U.!.G H e+P.z G {.r+f.u+R.y.X.t.c+:.Q.E.W : 1 ( ^ ( _ .+",
"- - ] ] { o.9.e+L u 3.9+<.d.N.S.I+{.{.~.<.].y./+ +f r.j+v+v  .4.j+2+4.v [.J j i 1.0+E.f.&+b.u+|+w.g.g+g+a.J.,.t A l V ! ] H..+{ ",
"- ! ] { { ] p 3 P.n.1.T.@.z.d.<.{+/+_.K.V.=+-+~.{+d+n+I+D+0.q.0.M f+M k.n+P.x+F+^.` |.C+X.X.D.{.}.d.X.y.@.H 1 A C n.( ! { H..+{ ",
"! ! ] { { ] '@7+[ 4 F 2.x+K.&.<+Y.].i+$.X.d+N._.$+$+$+3+O %.0.N 0.J.W ;+E k+3+n+0+$+t.f.x.b.B.}.u.m.A.U.K F.0., B G._ ] ~ G.H.] ",
"! ] { { ] ! - S n.i L h.M |.u.Y.$+c.y.S.W.|.-+-+(.^+V.P.;+*.B+a.K.=+S.].~+X.|+P.).{+^+s.v.v.z+f.Y.x.L.r.t @+[ T 6 G..+~ ^ L+H.] ",
"] { { { ] ! / / 9 l j 1.Z+W O ^.<+z.G c.~.N.z.a+,+&+,+i+k.4+).` {.Z.|+,+m.` }+_.V.j.Q.-+z.=+m.c+a.$.0.Q f L 9.6 .+L+H.^ _ )@H.] ",
"{ { { { ] ! / = - p l , v+'.O J.` 3.&+:+N.=+<.y.S.W.*+_.=+}+{./.<.-+w.f.a+D.>@Z.x.&+#+C.[.z.e.&.W J.y : 6+9.7.)@.+L+G.( .+)@H.] ",
"~ ~ ~ { ] - = # { ~ 6 V+S f 1 1+i+}+|.K.z.W.A.B.c+w.l+*+1+&+j.R.l+u+ @D.s.P.m.(.~.g.9+,+|.(.{.W u I.| j o+C !@~@.+L+L+.+H.{@G.! ",
"~ ~ ~ { ] - = # ( ( ( 6 D Q+j R 2+4+$.Y.2+(.b.<.g.8+g.c+H+~.0+x.y.y+g+c+y.e.d.~.{.0+..L.=+q.L.2+E 5+o+o+8.]@^@/@.+L+L+.+G.(@G.! ",
"- - ! ! ] ] { { ^ ~ ~ { Q+F.} Q+%.y a.!+}+Q /.-+D.` H+z.1+^.c.'.O.{.t.x.:+(+~.a.i.Q O N j.,.| )+A 9 T U ]@]@~@)@.+_ ] / ~ )@L+~ ",
"! ] ] ] { { ~ ~ ~ ~ { { { _@n.4 c j d x 4.$.0./+|.%./.a./.0+}+z+f.}.Y./.:+h+}+@.r.H !+E 9.E j r n.-.H.{@/@]@/@~@.+.+{ - ^ {@)@~ ",
"] ] ] { { ~ ~ ^ ~ { { { { ^ ( V D [ , g k '+,.H T.+.T.I ).s %.r.L.{./.@.T.N J.W ,.t 4 ++< 5 p F.:@G.L+{@/@^@!@(@H.H.^ ] _ ~@{@^ ",
"! ! ! ] ] { { { ~ { { { ~ ( _ .+G.C o+V+@+A q.z  .1 Q t H !+1.W %.K O #.H E F y : Q.K+e m n.p ~@<@^@~@~@!@~@)@H.G.G._ ~ H./@(@( ",
"/ - - - ! ! ] ] ^ ^ ^ ^ ( .+G.L+L+)@(@U @@2 V )+j )+h.E s V ,.y h w F+@+z L ++1 , q B T p [@!@(@^@~@)@L+)@)@G._ L+L+H._ )@]@!@_ ",
"- - ! ! ] ] { { _ _ _ .+H.L+{@~@(@~@^@]@}@V } o+2 4 h.L )+>.P.j m+P+ +)+, : E B o+p |@)@~@!@(@L+_ ~ ] ~ _ G.L+G.)@{@L+G.~@1@/@_ ",
"{ { ~ ~ ^ ^ ( ( H.H.H.G.)@(@/@^@]@1@2@3@3@4@]@/@6+U < 3 w a h } m 8+P+o+1 o+< 5@~@(@{@(@!@~@L+_ ( { ] { .+)@{@{@)@(@{@)@/@4@^@.+",
"( ( _ _ .+.+H.H.G.G.L+)@(@!@^@<@2@6@7@8@7@3@1@]@!@!@/@/@9@0@: a@(@L+_ ^ _ )@^@2@^@/@~@!@!@(@H.~ ~@)@.+.+L+(@(@{@{@~@{@{@^@2@]@H."};
