/* XPM */
static char * face2_xpm[] = {
"64 64 288 2",
"  	c #AEAEAE",
". 	c #AFAFAF",
"+ 	c #ACACAC",
"@ 	c #ABABAB",
"# 	c #AAAAAA",
"$ 	c #ADADAD",
"% 	c #B1B1B1",
"& 	c #B4B4B4",
"* 	c #B0B0B0",
"= 	c #A9A9A9",
"- 	c #A7A7A7",
"; 	c #A6A6A6",
"> 	c #A3A3A3",
", 	c #A4A4A4",
"' 	c #A5A5A5",
") 	c #A2A2A2",
"! 	c #A8A8A8",
"~ 	c #A1A1A1",
"{ 	c #A0A0A0",
"] 	c #B3B3B3",
"^ 	c #B2B2B2",
"/ 	c #9F9F9F",
"( 	c #9E9E9E",
"_ 	c #9D9D9D",
": 	c #939392",
"< 	c #2B2114",
"[ 	c #291B19",
"} 	c #292518",
"| 	c #4C4135",
"1 	c #382B21",
"2 	c #473B33",
"3 	c #251D14",
"4 	c #2C231C",
"5 	c #3D3325",
"6 	c #443729",
"7 	c #574835",
"8 	c #9C9C9C",
"9 	c #22190D",
"0 	c #4C3C2B",
"a 	c #443423",
"b 	c #5F503D",
"c 	c #9B9B9B",
"d 	c #3C2D1B",
"e 	c #332414",
"f 	c #432F21",
"g 	c #33230C",
"h 	c #2B1D13",
"i 	c #372818",
"j 	c #432E1C",
"k 	c #362508",
"l 	c #43331C",
"m 	c #3B3417",
"n 	c #654A38",
"o 	c #523717",
"p 	c #5A442D",
"q 	c #412C14",
"r 	c #443A1D",
"s 	c #543A2B",
"t 	c #3C341C",
"u 	c #2B290E",
"v 	c #533D24",
"w 	c #574427",
"x 	c #483718",
"y 	c #5D3F34",
"z 	c #4C4329",
"A 	c #969696",
"B 	c #4B3C24",
"C 	c #65523C",
"D 	c #54432C",
"E 	c #332914",
"F 	c #634935",
"G 	c #36300E",
"H 	c #251402",
"I 	c #2D230B",
"J 	c #8F8F8F",
"K 	c #2A1809",
"L 	c #241B02",
"M 	c #F7D8C7",
"N 	c #371A05",
"O 	c #482A0F",
"P 	c #331C1A",
"Q 	c #2C1B02",
"R 	c #EDDDC4",
"S 	c #F7D6B8",
"T 	c #331604",
"U 	c #2F252E",
"V 	c #FCD4BB",
"W 	c #FCD2C4",
"X 	c #F1D0B0",
"Y 	c #F1E3B4",
"Z 	c #251512",
"` 	c #260E01",
" .	c #C7AB9B",
"..	c #D6B693",
"+.	c #0B0A00",
"@.	c #1A0200",
"#.	c #745245",
"$.	c #CCABA9",
"%.	c #FCD9BD",
"&.	c #EBD9C9",
"*.	c #B7AA9D",
"=.	c #8E7B70",
"-.	c #BCB897",
";.	c #B2968C",
">.	c #C5B7A5",
",.	c #FDD3B5",
"'.	c #AFA395",
").	c #AB9788",
"!.	c #9A9A9A",
"~.	c #7B4D46",
"{.	c #C79F93",
"].	c #FFE5DF",
"^.	c #261B28",
"/.	c #6F707B",
"(.	c #FAEFE9",
"_.	c #F4DAD1",
":.	c #999999",
"<.	c #6E5149",
"[.	c #351813",
"}.	c #959595",
"|.	c #989898",
"1.	c #654A42",
"2.	c #411215",
"3.	c #D4A49A",
"4.	c #734C2A",
"5.	c #C58769",
"6.	c #E6A78D",
"7.	c #D2AA75",
"8.	c #C7926E",
"9.	c #884940",
"0.	c #C6B788",
"a.	c #D7B48A",
"b.	c #904830",
"c.	c #DBA78A",
"d.	c #895233",
"e.	c #C7BB97",
"f.	c #331F21",
"g.	c #C6C18A",
"h.	c #813F29",
"i.	c #8B4D36",
"j.	c #BCB989",
"k.	c #CEC29B",
"l.	c #E7D9B8",
"m.	c #E8E3B5",
"n.	c #BC8970",
"o.	c #E3E4BC",
"p.	c #BCBAAB",
"q.	c #2B3151",
"r.	c #1C1C3E",
"s.	c #B5B9CA",
"t.	c #E3DDD4",
"u.	c #EAE3C8",
"v.	c #D29977",
"w.	c #D9E1CE",
"x.	c #B6C0B7",
"y.	c #B7C1D7",
"z.	c #252B3A",
"A.	c #595DA6",
"B.	c #97ACF9",
"C.	c #9DABCF",
"D.	c #DBDAD9",
"E.	c #DBD9CF",
"F.	c #A9B8C8",
"G.	c #566D8F",
"H.	c #99B3FB",
"I.	c #5766AB",
"J.	c #222E4B",
"K.	c #06132E",
"L.	c #22306D",
"M.	c #A2AEE7",
"N.	c #8E9ACE",
"O.	c #36436F",
"P.	c #BEC0A8",
"Q.	c #B8BAAE",
"R.	c #B7B9B8",
"S.	c #99AEE2",
"T.	c #4B66AD",
"U.	c #353C89",
"V.	c #193372",
"W.	c #1F202F",
"X.	c #685165",
"Y.	c #292849",
"Z.	c #272A64",
"`.	c #D8DCE4",
" +	c #AFB8AD",
".+	c #D1E1FA",
"++	c #5567B8",
"@+	c #281A34",
"#+	c #AA96A9",
"$+	c #4965C5",
"%+	c #A3B7E3",
"&+	c #ABB7D8",
"*+	c #ADAEB1",
"=+	c #A8C2D9",
"-+	c #0E2A72",
";+	c #4970D5",
">+	c #4A65BA",
",+	c #8CB2FB",
"'+	c #3F69C5",
")+	c #634E55",
"!+	c #1B2C64",
"~+	c #31458E",
"{+	c #2A3C87",
"]+	c #6274B2",
"^+	c #546699",
"/+	c #254586",
"(+	c #1C325C",
"_+	c #828282",
":+	c #754D1B",
"<+	c #6C3E0D",
"[+	c #0A0101",
"}+	c #1A1716",
"|+	c #E4E1D0",
"1+	c #C8C0B8",
"2+	c #411C0A",
"3+	c #744A0B",
"4+	c #50390A",
"5+	c #110200",
"6+	c #110B0F",
"7+	c #7C5213",
"8+	c #000221",
"9+	c #C4C1AC",
"0+	c #FFCDC1",
"a+	c #674910",
"b+	c #656C8A",
"c+	c #898888",
"d+	c #486FCD",
"e+	c #253D94",
"f+	c #E1DCC5",
"g+	c #1B4490",
"h+	c #464843",
"i+	c #DAE3E5",
"j+	c #CCDDE4",
"k+	c #5165C8",
"l+	c #142A4E",
"m+	c #0E1647",
"n+	c #18122F",
"o+	c #1B2A57",
"p+	c #ADB6CC",
"q+	c #000000",
"r+	c #191706",
"s+	c #979797",
"t+	c #6F6E6D",
"u+	c #8D8155",
"v+	c #797047",
"w+	c #1D1201",
"x+	c #928558",
"y+	c #B1A571",
"z+	c #716F6E",
"A+	c #8A7234",
"B+	c #9E831D",
"C+	c #9C842A",
"D+	c #9D853B",
"E+	c #846D17",
"F+	c #949494",
"G+	c #959594",
"H+	c #D1A938",
"I+	c #CBA82A",
"J+	c #A7821B",
"K+	c #85742A",
"L+	c #A2862C",
"M+	c #A17E2C",
"N+	c #786020",
"O+	c #BEA832",
"P+	c #CBA538",
"Q+	c #927828",
"R+	c #1D0D00",
"S+	c #6E6C6C",
"T+	c #696766",
"U+	c #B4A546",
"V+	c #C5AA49",
"W+	c #A08445",
"X+	c #696867",
"Y+	c #CA9F41",
"Z+	c #C3A253",
"`+	c #939393",
" @	c #888888",
".@	c #473A04",
"+@	c #4D420C",
"@@	c #919191",
"#@	c #868686",
"$@	c #929291",
"%@	c #929292",
"&@	c #909090",
"*@	c #6F6D6C",
"=@	c #8E8E8E",
"-@	c #8C8C8C",
";@	c #8B8B8B",
"  . . .   + @ # @ $ .   $   % & * *   + @ = - - # @ + $ $ + @ # %   @ # # = ; > > , ' ' ' ' , > > ) ; + @ ' ; + + - ' ! - ~ { > ",
"$ $ $ $ $ + @ @ @ $     + $ % & * .   + @ = ! - @ + $ $ $ $ + @ %   @ # @ # - , > > , ' ' , > > ) ~ ' @ # , ' @ $ ! ; = ! ) ~ , ",
"# # @ @ @ + + + # + $ $ + + * ] . .   + @ = ! ! + $         $ + %   @ @ @ @ ! ' > > > > > > > > ~ { , = ! > , #   = ! @ = > ) ; ",
"! ! ! ! = # + + = @ + + # @ . ^ .   $ + @ # = ! + $   . .   $ + * $ # # @ @ ! ; , > > ) ) > > , ~ { ) - ; ~ > # . # = + # , > - ",
"- ; ; ; ; ! # @ - = @ # = # $ %   $ $ + @ # # = + + $     $ + +   @ = = # # ! ' , > ) ~ ~ ) > , ) { ) ; ' ~ , @ . # = + # , > - ",
"- ; , > , ' ! = ; ! # = ! = + . $ $ + + @ @ # # # @ + + + + @ # @ ! ; - ! = ; , , > ~ / / ~ > , , ~ > ; ' ) ' $   = ! @ = > ) ; ",
"= - , ) ~ > ' - ' - = ! - ! @ . + + + + @ @ @ @ ! = # @ @ # = ! ! ; , , ; - ' ) , ) { ( ( { ) , ; > , - ; > - . $ ! ; = ! ) ~ , ",
"= - , ~ { ~ > ' ' - ! ! - - @   + + + + @ @ @ @ - ! = = = = ! - ; , ) > ' ' , ~ , ) { ( ( { ) , - , , ! - > ! * + - ' ! - ~ { > ",
"- ; ; ' , ) ) ~ ' ; - ! ! ! - ; $ + @ = = ! = = - ! ! = ! - ; ' > > > , , ' ' ' > > ) ~ ~ ) > , ; ' , , ' ! @ $ + @ ! ) _ ( , # ",
"- ; ' , > ) ~ ~ , ' - ! = = ! ! + @ # = ! ! ! = ; - - - - : < [ } > > , , ' ' ' , > ) ~ { ~ ~ ) ' , > , ; = +   + + = > / / ' @ ",
"; ; ' , > ) ~ ~ ) , ; ! = # # # @ # ! - - - ! ! , ' ' ; < | | 1 2 3 > , , ' ' ' ; ' > ~ / ( ( ( > ) ) > ; # $ * $ + = ' ~ ) - @ ",
"; ' , > ) ~ { { { ) , - = # # # ! - ; ' ' ; - - > > , 4 5 5 6 7 3 6 3 , , ' ' ' ! ; > ~ ( _ 8 8 ~ ~ ) > ; # . %   + = ' , ' = @ ",
"' ' , > ) ~ { / / { ) ' - ! ! = ' ' , > , , ' ; ) > > 9 5 0 6 a b < 9 , , ' ' ' = - ' ~ / _ 8 c ~ ~ ) > ; # . % $ @ - ' ; ! = # ",
", , > ) ~ { / / _ ( { ) , ' ' ' > ) ) ~ ) > , ' > > , < d d e f g < e , , ' ' ' # = ; > { / ( ( > ) ) > ; # $ * + ! ' , - = = ! ",
", , > ) ~ { / ( 8 _ / { ~ ~ { { ~ { { { ~ ) , , , 3 h i e j k i 0 b a h < ' ' ' @ = - , ) ~ ~ ~ ' , > , ; = +   # ; > > - = ! ; ",
", > > ~ { / / ( 8 _ ( / / ( ( _ { / / / { ) > , 3 1 i d l l k l m a 7 0 1 3 ' ' @ # ! ' , > > > ; ' , , ' ! @ $ = ' ~ ) ; = - , ",
", > > ) ~ / / ( ( ( / / { { ~ ~ / / { ~ ) ) > [ i i d n o k p q r 0 j s 0 t u ; ) $ * - { ) > { ' ) / { , - - - > ) ) ) > ' ; - ",
", > ) ~ { / ( ( 8 8 _ _ ( ( / / _ ( ( ( / / [ 4 d j v o w p x a r s s s y z i A ,   * ! ~ ~ ) / ) ~ ) ' = = - , ~ ~ ) > ' ! # + ",
"> > ) ~ { / ( ( c c c 8 _ _ _ ( _ 8 8 8 c c } 1 5 d B v C o 7 z r w n s p D B u - . % = ~ { { / ~ ) ' # $ + ! > ~ ) > ' ! @   * ",
"> ) ~ { / ( _ _ 8 8 8 _ _ ( ( ( ( _ _ 8 c } } 1 E E 0 C p y B t w B D F F s 0 1 3 . % @ > ( ( / , , ; # $ $ # ; ; ; ; - = +   * ",
") ) ~ { / ( _ 8 ( ( ( / / { { { { / / ( _ [ 5 E G z b f i 0 | r p p l w F w w 0 } . * $ ' ( ( ~ = - ' ; # + + @ @ @ # = # @ + + ",
"~ ~ { / ( _ 8 8 ( / / / { ~ ~ ~ { { { / / 3 E G z u H 6 4 z t m l C l r F p p C 3 $ . . - ( ( , # - , , ! @ + +   $ @ # = # # @ ",
"~ ~ { / ( _ 8 c _ _ ( ( / / { { ( ( ( / / < I m G G n 0 < 0 B x k p B q o w p 7 i J   * = ( / - ; ' , ; # @ # ! @ @ # = = # @ + ",
"~ { { ( _ 8 8 c c c 8 8 _ _ ( ( 8 8 _ ( 4 h z r k 7 0 e K g B o l x a i m z p 6 6 4 $ * # / { # ) ) ' = $ + ! , ! ! ! ! # @ $   ",
"8 _ ( / / / ( ( { { { { { { { { , > ~ { e i I m x p g L M N o O r k j B e m v D 2 P     # ; , > = # # @ + $ $   # - ' ; = @ # = ",
"_ _ ( / / / ( ( / / / / / / / / ) ) ~ ~ P h t r F x Q R S S T k m r e l Q m t a 2 U $ + = ' , ' = # # @ + + $ $ # - ' ; = + + @ ",
"( ( ( ( ( ( ( ( / / / / / / / / / { ~ ) P f v m z K M V W V X Y L 6 | e t L I a 5 Z @ # ; , ' - = = # # @ @ @ @ = ; ' ; # $ $ + ",
"{ / ( _ _ _ _ ( ( ( ( ( ( ( ( ( 8 ( ~ > Z ` d s I D  .W ..S S S R < 5 d i d I 0 7 P # - , , ; = = = = = = = = # ! ; , ; # $   $ ",
"~ { ( _ 8 8 _ ( ( ( ( ( ( ( ( ( c _ { ~ 4 0 s O I +.@.#.$.R %.S &.*.3 2 9 m h v s Z = - , > ; = ! ! ! ! ! ! ! - ! ' , ' = @ + @ ",
"> ~ ( 8 c 8 _ ( _ _ _ _ _ _ _ _ c 8 ( / ( Z y =.-.;.P h *.>.S ,. .>.3 Z '.*.).i Z - ! - ' , ; ! ! ! - - ; ; ; ; ! ' > > ; ! ! ; ",
", ) / 8 !.c _ ( _ _ _ _ _ _ _ _ _ 8 8 8 c [  .~.{.].^./.(.&.V M _.(.=.^.>.;.n $.P ' ! = - ' ' ; ! - - ; ' ' , , ! ' ) ) > ' > ) ",
"' ) / c !.c 8 ( 8 8 8 8 8 8 8 8 ( _ c !.:.4 K N ~._.6 2 (._.,.,.M (.6 2 _.<.T [.P , = # ! ' , , ! - - ; ' , , > ! ' ~ ~ ) ) ~ / ",
", > { ( 8 c !.!._ _ 8 c !.!.:.:.}.A |.!.8 9 p 1.2.$.%.,.V V ,.,.,.,.%.,.3.2.n y e ~ ~ ) > , , ' ! - - ; ' , , > > , ' ' ' ' , > ",
", ) { ( 8 c c c 8 8 8 c c c !.!.|.|.:.c _ e 7 q N 4.5.6.,.,.,.,.,.,.7.8.9.2.O w h ~ ~ ) > > , , - - ; ; ' , , > > > , ' ' , > > ",
"> ) { ( 8 c c c c c c c 8 8 8 _ c 8 8 _ ( [.m 0.0.a.4.b.5.6.V ,.c.5.d.4.....e.q I ~ ~ ) ) > > > ; ; ; ' ' , , , ) > , ' ' , > ) ",
") ~ / _ 8 8 8 8 !.!.c 8 _ _ ( ( / ( ( ( f.1.R 0.g.Y a.c.b.b.h.i.i.d.c...X j.k.l.z < ~ ~ ~ ) ) ) ' ' ' , , , , , ) ) > , , > ) ) ",
"~ { / _ 8 8 8 _ c c 8 8 _ ( / / / / / ( ^.*.R ..0.j.m.j.a.5.5.5.n.a.a.l.j.g.j.o.p.^.~ ~ ~ { { { > > > , , , , , ~ ) > > > > ) ~ ",
"~ { ( _ _ _ _ ( 8 _ _ _ ( ( ( ( ( ( ( q.r.s.>.t.u.-.o.m.0.a.v.5.a...Y l.-.o.w.x.y.r.z.{ { / / / ) ) ) > > , , , { ~ ) > > ) ~ { ",
"{ / ( _ _ _ ( ( / / ( ( ( _ _ _ c c 8 q.A.B.C.y.D.w.-.m.Y l.X X S R l.-.u.E.F.G.H.I.J.{ / / ( ( ~ ~ ) ) > , , ' { ~ ) ) ) ) ~ { ",
"{ / ( _ _ _ ( / { { / / ( _ 8 8 :.!.!.K.L.A.M.N.O.F.P.j.l.u.l.o.&.&.-.Q.R.O.S.T.U.V.W.{ / ( ( _ { ~ ~ ) > , , ' { { ~ ) ) ~ { { ",
"/ ( _ _ _ _ ( / 8 8 8 8 8 8 8 8 :.c ( ^.X.Y.Y.Z.I.I.`.>.p.x. + +p.R. +.+++++Z.Y.@+X.@+/ { ~ > , ' , > ) ~ ~ ) ) / { > ' ' , > ) ",
"{ { / ( ( / { { _ ( ( ( ( / / / { ~ ~ P n.3.#+Y.$+$+%+&+y.*+F.F.*+y.=+S.$+$+Z.#+$.;.P ~ ~ ) ) ) , > ) ~ { { ~ ~ / { ) , ' , > ~ ",
"> ) ~ { { ~ ) > / { { ~ ) > > , - ' > [.6.6.;.Y.-+;+>+B.H.B.S.S.H.,+,+'+'+-+Y.)+;.T P Z > > ~ { ) ~ { / ( ( / / ( { ) , , , ) ~ ",
"' , > ) ) > , ' ~ ) ) > ' ' ; - - , { T v.8.1.@+!+-+~+{+~+]+C.M.^+O./+/+V.(+@+[.N N T Z ' > ~ / ~ { ( _ _ _ _ ( ( / ~ > , > ) { ",
"; ' , , , , ' ; > > , , ' ; ; ; ~ / _+` :+<+T [+}+s.Q.|+t.t.t.t.w.1+D. +R.Z [ K 2+N S ;.3 > ~ / { / ( _ 8 8 _ _ _ / ~ > > ) ~ { ",
"; ' , , , , ' ; , , > > > > > > _ 8 _+o h.3+4+5+6+D.u.e.-. .e.e.l.o.w.w.(.[ ` [.%.X V W P > ~ { { { ( _ _ _ _ ( 8 ( { ) > ) { / ",
"; ' , > > , ' ; , > > ) { / / ( ( / { o 3+7+:+I 8+^+%+`.t.>.j.e.9+Q.s.&+^+r.[.3.i.0+0+_.K ) ) ) ~ { / ( _ ( ( / 8 ( { ) ) ~ { / ",
"' , , > > , , ' , > ) { ( _ 8 c ) > , 4.7+3+a+m (+T.I.^+/.R.o.o.E.b+^+T.>+!+P ~.i.W W <.h ~ > , ) ~ { / ( ( / / 8 _ { ~ ) ~ { / ",
"- - ' ' , ' ' ; ~ ~ ~ ~ ) > ' ; > > c+O 3+7+Q } (+d+$+e+b+`.>.f+R.G.g+'+$+U.@+<.3.l.).P ~ ) ) ) { / _ 8 8 _ / { ( _ ~ ; ' ( / , ",
"- ; ' , , ' ; ; , > ) ) ) > ' ' , , c+2+:+a+I h+!+>+;+e+(+i+e.u.j+!+g+;+B.++^.Z L e 9 / / { { ~ / ( 8 c 8 _ / ~ ( _ ~ ; , ( / , ",
"; ; ' , , ' ; - - ; ' , > , , ' , , , , o 4.B U Z.k+$+,+l+i+-.e.i+l+++,+B.A.@+{ 8 _ _ ( ( / / / _ 8 c !.c _ { ~ ( _ { ' > _ ( ' ",
"; ' , , ' ; - ! = ! ; ' , , , ' ' ' ' , , > > > m+~+>+,+%+j+P.-.s.O.>+B.B.U.n+{ _ _ ( ( / / { { c !.:.:.!.8 / ~ ( _ / > ) 8 ( ' ",
"' , , , ' ; ! ! = ! ; ' , , , ' ; ; ' , , > ) ) , o+]+e+V..+E.x.p+L./+{+++L.{ { / / { { ~ ~ ) ) c !.|.|.|.!._ ( / 8 ( ) { c ( ' ",
", , , , ' ; ! = - ; ' , > , , ' - ; ' ' > > ) ~ ' , J.(+J.J.q+r+z.z.J.J.l+K.{ { { { { ~ ~ ) ) > 8 !.|.s+s+|.!.c / 8 _ ~ / c ( ' ",
"> > > , ' - = # , > ) ) ) > ' ' - - ; ' > ) ~ ~ - t+=.u+v+w+[+H r x+y+y+9 { { { ( / / { { ~ ~ ~ _ 8 :.s+A A s+|./ 8 8 / ( !._ ; ",
"> > > , ' - = # ~ ~ ~ ~ ) > ' ; ! - ; ' > ) ~ { z+A+B+B+C+4+L [+H D+B+E+H { { { _ _ _ ( ( / / / / _ :.A }.F+}.A / 8 8 / _ :._ ; ",
"- - ; ; ' ' , , ) > > , , > ) ~ ~ ) , ' ; ; ; ' G+C+H+I+J+K+w+[+L 7+L+M+H ~ { / c ( ) > ~ / / { :.!.:.s+F+F+|.c / { ' ! > c 8 > ",
"; ' ' ' , , > > > > , , , > ~ ~ / { ~ ) ) ) ) ~ N+O+I+I+P+Q+k R+4+Q+M+M+A+S+, , _ { > > { _ _ ( / / ( !.A F+A |./ / , - ) !.c > ",
"' ' ' , , > > ) > , , , , ) ~ { ( ( ( _ _ _ 8 T+U+O+I+I+V+W+` Q E+J+H+P+M+H L ; { ) > ) _ !.!.!.8 _ 8 !.A }.s+:.( ( ) ' { |.!.) ",
"; ; ; ' ' , , , > , , , > ~ { / _ _ c !.:.:.:.:.C+V+V+C+7.H 8 X+L+H+P+Y+Z+A+L ' ~ > > { c |.s+|.`+}.|.|.s+|.c ( _ _ { > ( A :.~ ",
"! - - - ; ; ' ' ) ) ) ) ~ / _ 8 8 c :.s+s+s+s+|. @H H H H !.c L .@E+4+K+K++@@@, { ~ ~ ( :.A s+:.}.|.c 8 c c _ { 8 8 ( { c F+s+{ ",
"- - ; ; ' ' , , { { { / ( 8 !.|.:.|.}.F+`+F+A s+}.}.F+F+F+}.s+#@+@+@.@x x $@> > 8 _ _ c |.s+:.8 { > ' > { _ 8 _ c !.8 _ |.%@A { ",
", , > > ) ) ~ ~ ( ( ( _ c :.A }.F+%@&@J J @@F+A F+F+`+`+F+}.s+|.{ ) 3 t+*@~ _ !.|.:.!.:.s+|.8 { ~ , ' , / c !.!.c :.!.c A @@}./ ",
"~ ~ { { / / ( ( _ _ 8 c :.s+}.`+&@=@-@;@-@J %@F+s+s+A A s+:.!.c :.8 { ) { c }.&@}.A |.s+s+:.( > |.c / / 8 :.:.!.!.|.!.!.}.&@F+( "};
