/* XPM */
static char *b13ff9219cad41edb34af8d5fee863002CaUU9TrTzhMtdLT[] = {
/* columns rows colors chars-per-pixel */
"64 64 243 2 ",
"   c #000000",
".  c #0A0101",
"X  c #010B00",
"o  c #0B0A00",
"O  c #02020A",
"+  c #09020A",
"@  c #0B0B0B",
"#  c #110200",
"$  c #1A0200",
"%  c #120B00",
"&  c #1D0D00",
"*  c #110B0F",
"=  c #1D1201",
"-  c #191706",
";  c #050616",
":  c #1A1716",
">  c #0B110D",
",  c #260E01",
"<  c #251402",
"1  c #241B02",
"2  c #2C1B02",
"3  c #22190D",
"4  c #2A1809",
"5  c #331604",
"6  c #371A05",
"7  c #251512",
"8  c #251D14",
"9  c #2B1D13",
"0  c #291B19",
"q  c #331C1A",
"w  c #351813",
"e  c #2D230B",
"r  c #2B290E",
"t  c #33230C",
"y  c #362508",
"u  c #2B2114",
"i  c #2C231C",
"p  c #292518",
"a  c #332414",
"s  c #332914",
"d  c #3C2D1B",
"f  c #372818",
"g  c #3C341C",
"h  c #3B3417",
"j  c #36300E",
"k  c #000221",
"l  c #18122F",
"z  c #1C1C3E",
"x  c #06132E",
"c  c #261B28",
"v  c #281A34",
"b  c #331F21",
"n  c #19203A",
"m  c #382B21",
"M  c #3D3325",
"N  c #252B3A",
"B  c #2F252E",
"V  c #411215",
"C  c #411C0A",
"Z  c #473A04",
"A  c #50390A",
"S  c #412C14",
"D  c #432E1C",
"F  c #43331C",
"G  c #443A1D",
"H  c #483718",
"J  c #523717",
"K  c #482A0F",
"L  c #432F21",
"P  c #443423",
"I  c #4B3C24",
"U  c #4C3C2B",
"Y  c #443729",
"T  c #533D24",
"R  c #543A2B",
"E  c #473B33",
"W  c #5D3F34",
"Q  c #6C3E0D",
"!  c #4D420C",
"~  c #744A0B",
"^  c #674910",
"/  c #7C5213",
"(  c #754D1B",
")  c #4C4329",
"_  c #54432C",
"`  c #5A442D",
"'  c #574427",
"]  c #4C4135",
"[  c #574835",
"{  c #5F503D",
"}  c #634935",
"|  c #654A38",
" . c #65523C",
".. c #734C2A",
"X. c #786020",
"o. c #1B2A57",
"O. c #1C325C",
"+. c #142A4E",
"@. c #222E4B",
"#. c #292849",
"$. c #212858",
"%. c #2B3151",
"&. c #1B2C64",
"*. c #0E2A72",
"=. c #193372",
"-. c #272A64",
";. c #22306D",
":. c #0E1647",
">. c #36436F",
",. c #464843",
"<. c #654A42",
"1. c #7B4D46",
"2. c #6E5149",
"3. c #745245",
"4. c #634E55",
"5. c #685165",
"6. c #6F707B",
"7. c #797047",
"8. c #813F29",
"9. c #846D17",
"0. c #8B4D36",
"q. c #895233",
"w. c #904830",
"e. c #85742A",
"r. c #927828",
"t. c #8A7234",
"y. c #A17E2C",
"u. c #884940",
"i. c #8E7B70",
"p. c #9E831D",
"a. c #A7821B",
"s. c #9C842A",
"d. c #9D853B",
"f. c #A2862C",
"g. c #BEA832",
"h. c #CBA82A",
"j. c #CBA538",
"k. c #D1A938",
"l. c #8D8155",
"z. c #928558",
"x. c #A08445",
"c. c #BC8970",
"v. c #B1A571",
"b. c #B4A546",
"n. c #CA9F41",
"m. c #C5AA49",
"M. c #C3A253",
"N. c #C58769",
"B. c #C7926E",
"V. c #D29977",
"C. c #D2AA75",
"Z. c #2A3C87",
"A. c #353C89",
"S. c #253D94",
"D. c #1B4490",
"F. c #254586",
"G. c #31458E",
"H. c #546699",
"J. c #566D8F",
"K. c #656C8A",
"L. c #595DA6",
"P. c #4B66AD",
"I. c #5766AB",
"U. c #4A65BA",
"Y. c #5567B8",
"T. c #6274B2",
"R. c #3F69C5",
"E. c #4965C5",
"W. c #5165C8",
"Q. c #4970D5",
"!. c #486FCD",
"~. c #AB9788",
"^. c #B2968C",
"/. c #BCB989",
"(. c #B7AA9D",
"). c #BCB897",
"_. c #AFA395",
"`. c #AA96A9",
"'. c #AFB8AD",
"]. c #BCBAAB",
"[. c #B8BAAE",
"{. c #B7B9B8",
"}. c #ADAEB1",
"|. c #C79F93",
" X c #DBA78A",
".X c #C6B788",
"XX c #D7B48A",
"oX c #C7AB9B",
"OX c #C7BB97",
"+X c #D6B693",
"@X c #D4A49A",
"#X c #E6A78D",
"$X c #C5B7A5",
"%X c #CCABA9",
"&X c #BEC0A8",
"*X c #B6C0B7",
"=X c #C6C18A",
"-X c #CEC29B",
";X c #C4C1AC",
":X c #C8C0B8",
">X c #E7D9B8",
",X c #FDD3B5",
"<X c #FCD4BB",
"1X c #FCD9BD",
"2X c #F7D6B8",
"3X c #F1D0B0",
"4X c #E3E4BC",
"5X c #E8E3B5",
"6X c #F1E3B4",
"7X c #9DABCF",
"8X c #A9B8C8",
"9X c #B5B9CA",
"0X c #ABB7D8",
"qX c #ADB6CC",
"wX c #99AEE2",
"eX c #97ACF9",
"rX c #8CB2FB",
"tX c #99B3FB",
"yX c #8FAFF4",
"uX c #A2AEE7",
"iX c #A3B7E3",
"pX c #8E9ACE",
"aX c #B7C1D7",
"sX c #A8C2D9",
"dX c #DBD9CF",
"fX c #DBDAD9",
"gX c #E1DCC5",
"hX c #EDDDC4",
"jX c #EBD9C9",
"kX c #FCD2C4",
"lX c #F7D8C7",
"zX c #E3DDD4",
"xX c #F4DAD1",
"cX c #FFCDC1",
"vX c #D9E1CE",
"bX c #EAE3C8",
"nX c #E4E1D0",
"mX c #FFE5DF",
"MX c #D8DCE4",
"NX c #CCDDE4",
"BX c #DAE3E5",
"VX c #D1E1FA",
"CX c #FAEFE9",
/* pixels */
"                                      O                     O                                                                   ",
"                                O                       O                                   O                                   ",
"                                                                O                       O   O                                   ",
"                                    O                       O         O                                                         ",
"                                        O                                                                                       ",
"                                              O O                   O                       O                                   ",
"                                                                                  O                                             ",
"                                                                                                                                ",
"                                                        O .                 @     O                                             ",
"                                        O                 - u 0 p   o     o                                                     ",
"                                                  .     u ] ] m E 8 .   .             O                                         ",
"                                                    o i M M Y [ 8 Y 8 . .       O                                               ",
"                                      O         .     3 M U Y P { u 3   .                                                       ",
"                                O                 . o u d d a L t u a . . . .                                                   ",
"                                                  8 9 f a D y f U { P 9 u o           O                                         ",
"                                  O             8 m f d F F y F h P [ U m 8 .                                                   ",
"                                O         o . 0 f f d | J y ` S G U D R U g r X   + O       O                                   ",
"                                O O     o . 0 i d D T J ' ` H P G R R R W ) f -       .                                         ",
"                                      .   X p m M d I T  .J [ ) G ' | R ` _ I r o     .       O                                 ",
"                                      .   p p m s s U  .` W I g ' I _ } } R U m 8   .   .   O                                   ",
"                                      . . 0 M s j ) { L f U ] G ` ` F ' } ' ' U p       . . O O                                 ",
"                                  O . . . 8 s j ) r < Y i ) g h F  .F G } ` `  .8     .   .     O                               ",
"                                    .   . u e h j j | U u U I H y ` I S J ' ` [ f :   .   .   O                                 ",
"                                        i 9 ) G y [ U a 4 t I J F H P f h ) ` Y Y i                                             ",
"                                X       a f e h H ` t 1 lX6 J K G y D I a h T _ E q           O                                 ",
"                                O   * . q 9 g G } H 2 hX2X2X5 y h G a F 2 h g P E B .     X   O                                 ",
"                                O O   . q L T h ) 4 lX<XkX<X3X6X1 Y ] a g 1 e P M 7     X X   .                                 ",
"                                  X * . 7 , d R e _ oXkX+X2X2X2XhXu M d f d e U [ q         O   O                               ",
"                                      + i U R K e o $ 3.%XhX1X2XjX(.8 E 3 h 9 T R 7 .       .                                   ",
"                                    O   . 7 W i.).^.q 9 (.$X2X,XoX$X8 7 _.(.~.f 7 . O       O O                                 ",
"                                . . O O O 0 oX1.|.mXc 6.CXjX<XlXxXCXi.c $X^.| %Xq .         . O                                 ",
"                                o     O   i 4 6 1.xXY E CXxX,X,XlXCXY E xX2.5 w q . .       O                                   ",
"                                .   X X o 3 ` <.V %X1X,X<X<X,X,X,X,X1X,X@XV | W a . . O   O                                     ",
"                              O O O   X   a [ S 6 ..N.#X,X,X,X,X,X,XC.B.u.V K ' 9   . O     X                                   ",
"                                O O X   # w h .X.XXX..w.N.#X<X,X XN.q...+X+XOXS e o     O *   X                                 ",
"                                        b <.hX.X=X6XXX Xw.w.8.0.0.q. X+X3X/.-X>X) u   @                                         ",
"                                . # O ; c (.hX+X.X/.5X/.XXN.N.N.c.XXXX>X/.=X/.4X].c         o                                   ",
"                                    ; %.z 9X$XzXbX).4X5X.XXXV.N.XX+X6X>X).4XvX*XaXz N X o     .                                 ",
"                                X   O %.L.eX7XaXfXvX).5X6X>X3X3X2XhX>X).bXdX8XJ.tXI.@.O O   O                                   ",
"                                  O X x ;.L.uXpX>.8X&X/.>XbX>X4XjXjX).[.{.>.wXP.A.=.k ; O O O                                   ",
"                                      c 5.#.#.-.I.I.MX$X].*X'.'.].{.'.VXY.Y.-.#.v 5.v ; . . + O                                 ",
"                                      q c.@X`.#.E.E.iX0XaX}.8X8X}.aXsXwXE.E.-.`.%X^.q + .     @                                 ",
"                                    . w #X#X^.#.*.Q.U.eXtXeXwXwXtXrXrXR.R.*.#.4.^.5 q 7 X X                                     ",
"                                    . 5 V.B.<.v &.*.G.Z.G.T.7XuXH.>.F.F.=.O.v w 6 6 5 7     X                                   ",
"                                  . $ , ( Q 5 . : 9X[.nXzXzXzXzXvX:XfX'.{.7 0 4 C 6 2X^.8   . O                                 ",
"                                  . $ J 8.~ A # * fXbXOX).oXOXOX>X4XvXvXCX0 , w 1X3X<XkXq     @                                 ",
"                                O . o J ~ / ( e k H.iXMXzX$X/.OX;X[.9X0XH.z w @X0.cXcXxX4                                       ",
"                                @   % ../ ~ ^ h O.P.I.H.6.{.4X4XdXK.H.P.U.&.q 1.0.kXkX2.9 .                                     ",
"                                X   $ K ~ / 2 p O.!.E.S.K.MX$XgX{.J.D.R.E.A.v 2.@X>X~.q . .                                     ",
"                                    $ C ( ^ e ,.&.U.Q.S.O.BXOXbXNX&.D.Q.eXY.c 7 1 a 3 . . .                                     ",
"                                O   . # J ..I B -.W.E.rX+.BX).OXBX+.Y.rXeXL.v . # .     . + O O                                 ",
"                                    o   . . o   :.G.U.rXiXNX&X).9X>.U.eXeXA.l O .       O . O O                                 ",
"                                O       >       ; o.T.S.=.VXdX*XqX;.F.Z.Y.;.;   O       o                                       ",
"                                  . X O         O > @.O.@.@.  - N N @.@.+.x ;     X           @                                 ",
"                                .     O O @ + . . = i.l.7.= . < G z.v.v.3 O   X     O O   X O O O                               ",
"                                  . .   ; O + . = t.p.p.s.A 1 . < d.p.9.< . X   X   O O     O O                                 ",
"                                        + O   . - s.k.h.a.e.= . 1 / f.y.< .   X     . O                                         ",
"                                        O O   o X.g.h.h.j.r.y & A r.y.y.t.&         O O                                         ",
"                                O   X       . = b.g.h.h.m.x., 2 9.a.k.j.y.< 1     . O .   X                                     ",
"                                O             % s.m.m.s.C.< . & f.k.j.n.M.t.1     . O                                           ",
"                                    X X   X   . - < < < <   o 1 Z 9.A e.e.! -       O                                           ",
"                                        X           .     .   - ! ! Z H H -           O O   O O                                 ",
"                                O               .             X o o 8 = &           O O                                         ",
"                                .   O O           O . @     X     O   .   O @         O O                                       "
};
