/* XPM */
static char *_2e56b0c94e84debd012ee65e6034bcc342OVpORWRI8Gb15[] = {
/* columns rows colors chars-per-pixel */
"64 64 74 1 ",
"  c #43443F",
". c #474843",
"X c #484944",
"o c #494A45",
"O c #4A4B46",
"+ c #4B4C47",
"@ c #4C4D48",
"# c #4D4E49",
"$ c #4E4F4A",
"% c #4F504B",
"& c #50514C",
"* c #51524D",
"= c #52534E",
"- c #53544F",
"; c #545550",
": c #555651",
"> c #565752",
", c #575853",
"< c #585954",
"1 c #595A55",
"2 c #5A5B56",
"3 c #5B5C57",
"4 c #5C5D58",
"5 c #5D5E59",
"6 c #5E5F5A",
"7 c #5F605B",
"8 c #60615C",
"9 c #61625D",
"0 c #62635E",
"q c #63645F",
"w c #646560",
"e c #656661",
"r c #666762",
"t c #676863",
"y c #686964",
"u c #696A65",
"i c #6A6B66",
"p c #6B6C67",
"a c #6C6D68",
"s c #6D6E69",
"d c #6E6F6A",
"f c #6F706B",
"g c #70716C",
"h c #71726D",
"j c #72736E",
"k c #73746F",
"l c #747570",
"z c #757671",
"x c #767772",
"c c #777873",
"v c #787974",
"b c #797A75",
"n c #7A7B76",
"m c #7B7C77",
"M c #7C7D78",
"N c #7D7E79",
"B c #7E7F7A",
"V c #7F807B",
"C c #80817C",
"Z c #81827D",
"A c #82837E",
"S c #83847F",
"D c #848580",
"F c #858681",
"G c #868782",
"H c #888984",
"J c #898A85",
"K c #8A8B86",
"L c #8B8C87",
"P c #8C8D88",
"I c #8E8F8A",
"U c #8F908B",
"Y c #949590",
"T c #959691",
/* pixels */
"0tt6-&20de2,6002ee00qpjdxjdjde0eeqixcxkxtijjixCxcxdiijMFCMmxjxvM",
"ete0330ip03,26636667eidpvjfjftiditpkxkjciijjicCxMcd00pMLFCVvcvMC",
"ieeeetideq62,236>,6etipdcjfjjdjcjipjkdjxdejjdxCccxde6ecHCCCMvvMS",
"ie70eipte002,>,2>27idipfxdpjjdjvjddfjpdjjtdjdxCvdjckiijvmMMmccMC",
"i0360te0qq03,>>2,,0iietdfiidddfcjiiddiijxepjjvCvdjxxdpxvxMMMcvCH",
"06260e00eq7632>>3,3q026ddttddiijieeddiidviijjvSMvxdtedvCjvCCMMFI",
"66670eeede76662&e3203&2dpiijjiti060ppiidMttkjcCMmje0efvVdxCCVCLT",
"2660eipdde66002-fq703&2jdidxjiee227idiidMtekkvSMjieedxckefMMMMHT",
"666epdiq0ee06266i0073,20iidiiiid660tddt0ddfjjxMCxi76ijccxkjjxCHU",
"0770iie063333663t0606,6eeiiieeet630eddiekjjfjxvvft00ijkjxkjjxMFI",
"66660eee0626qte0q6663,6eqeie0700337eidpicjddkxxkpe0qidpijjddkMCH",
"2,,,60eie023eit00326326ieeeq070q00etidddcdipcMmcii00eeeejjdpjvCH",
"7622>20eq2>&263>7326226ietieq0qeeitiipdjvkpdxMmxdi03600qjfdpdxMF",
"te03>>>2t0,>,22>7226226eeippitiieiiiiijxCvjjkxkfde03360ejdpifxMC",
"qq062>,6ie72226602262>6eeidpiidf00eqeijvmckdddddieq0770qjjdpfcMF",
"2676337eq062>>2673232>2qeippppdj22600ijMfffdipdj0eee0066kjddfvMC",
"2>>>36766062&+@&>266>>3etifjkjii6q066icmjjjieetiiq0tt0337idjjxxx",
"2>>,66076762-@&&>266227eidffde0620066ijxxxjdiidddeedde00edjffjxc",
">>-,37007062>%%&,2226600pddptq6230q77ijfjjjdiidfdiidde00ffjjjkxM",
">-->6000632>&%@&,>&,2677ettiee760eieedfdieie0eipiq0ii066dpfxxxvC",
">&->300022>>&&@@-&&&>36300qq06630eiqedpt600666eii00ee0220efMMmMS",
",>>,300062-&-&&@@@%&&>23eq0732-&7q060ee6366660epi00ti03266dCFvvF",
"2>>>677602>->>&&O@%&&>27te00662,0q623q02226660epiqqii06607pMCcvH",
"2>>>2776q6,>22,-O@>>&&20eeeteeeite626q02>>2220eii00te036i0ivMkvF",
">&>66>2006663-%&@>362226q00e066ei062662>>0t727tixjie62>-7edxxxmH",
">-,66,2003262-&-@>222>2362266,20iq6600622tde0eddxjde06620edxvvMS",
"2226223q72,22&&>%>23,>26>>>22>3qie00ei067pjdtpjxxkfiq063tqikMmMV",
"3332,2376,>22&&>>,66>>,6>-&>,,6iiq00iie00dkjiijxxkft72>2iqejVCMv",
"2262>2366>>>>%&>&232&&>2-%@&>-6iq07qtie60tdft0ejxxji6>-&p0ejCCmc",
">37323636,&>&@@>&->-+O@-&OOO@%2e0070ti060edde66ekxxd0,>-ieexCVvx",
"&6e00eq60,--&+@&->,&+O@-&+.OO@3ie07eii03eidji220djjd7,>,ieixCMvv",
"&0ieeii70,--&+O&236>&@-,,%+@@&6pe00eii03iijki,200tde3>->eedvVmcv",
"367qtt06006>%>>&>36>&,22>->22,3qet30vve00pkd062>6tde6>>30edxMCVm",
"00qtppt0703&%->&-22&%&>>-&&>>>6iee36kj630iji072-7ept6,>20tdjvMMV",
"6670ee06706>&>>&>22&@->&,-&,>20dfjitxjeiifxdpiq60eit72220edjkxVF",
"66367032007>->>&%>2&&2,>22,6626tfcdpxkdxdjxjjfi00eie06666ixcxcVF",
"e0000q067q0,>>>&O@%%-36,22600>>66ie0dptjiiiiide200qete063ivCVMCF",
"e066662,6q02>,>% O@@-66,62363&@>,066piqddptedji6066qidi06dMFFCCC",
"062,2>>-7002,2>&O@&-20020663,&-67i0exjtdjfiijvj06360djde0ixMFSFC",
"t066632,7002,2>@>>230ii7de62>>6iqieicxeedi0efcd66220fxjiiijvVFSC",
"0770072-e62,6632>->6tddt2002262%qiddfjt66idpidpi2>@%eMVjkdjvCmmC",
"6366062>7762222662>20idp,772232&0epdjjd06ijdpdde2632qxMmxdfvSVMC",
">>>2662>2706>-20i0>>3qti-262232-6etpjxjt6ijdddpe2qe60pmFvdixSSCm",
">>>>22>>26662237ki3>2600>22336226qeeifde2eddipe77qe07ixCvpedCHMj",
"32,>,>-&62227762ie637q00,,26663660070ie6,0ieeq02q666qijxji6imFvp",
"762222>-62>2006>6,>3epit3,30q6366002607,,0q06762q2>6idddde6qxCvt",
"06323322222667622>>2qddd626ee030006,207230q636626>>0dpipie0ejVvt",
"76337006&200626703>27eii066it660006230q67ee626762>2tdiidtieejVvi",
"07766677>270632206330epd6660eeii0te62666iiie7267+&,0ippieqqdxvxj",
"07662670,36076362237eeq06666qeei7et62232ete02>>,%&>6eiieitifcvxf",
"e0622260,2000667>>6eie6>32660qei0tt7222,eeq72-->>>>20qeqdpdjvMxf",
"ie62220e23706670,20idi0,22260eidepi06632qe0062>>>>>,6ettddjjmMcd",
"pt0337qt237666603660te06>>220tfktddt066207076622>>>,7eididjjvVvi",
"ee7660et266622263222670722230ifkeddi0062622666>&>&&>7eiiqdjfcCct",
"0633300e66622,>262>>20qe00660edj0tie0062006673>@-&&>37006tdixMxq",
"2,2236003632>&>>63,26qeipiq000ip2ete773,pteeq6-@&&&>2232,eitfMx0",
">>>22666e02>&>>>>,366670tddiq0pj0eee022,ieq062>->>>&&6766edjkcfe",
",2223366iq6>&&&->26622360qq070td60eq6222eq72,&->,>>&>36,3epjxxd0",
"63222336ie02-&&>,262,>2206227qee26766223e03&%%&->22&>23-20ifkxi6",
"62222660ie72>>>-->,>>>2602>20ie036662,,2062>&&%%&>,&>63&20djxxi6",
"22>,26eeq0662222&&>>>,6062-2qie66776>>->6622,&@O@&-&>76>6efjxxd6",
">>>,20ed00666332&&->>27e6>-,7e020003>&>>23662>+O+%&&>6020ijjxxd0",
"222,20epee076333&>>>>,7e622600030003>>>23662,&@O@&&@&662qidpfjp0",
"732,26eeieq06222>>>>>,600000eeq06672,236622>&%@+>>&@%232qiiidji0"
};
