/* XPM */
static char *ee7a756a195e4ae8acdb8f0574af38afSVJvddkbz0gOgpgM[] = {
/* columns rows colors chars-per-pixel */
"64 64 256 2 ",
"   c black",
".  c #010101",
"X  c #020202",
"o  c gray1",
"O  c #040404",
"+  c gray2",
"@  c #060606",
"#  c #070707",
"$  c gray3",
"%  c #090909",
"&  c gray4",
"*  c #0B0B0B",
"=  c #0C0C0C",
"-  c gray5",
";  c #0E0E0E",
":  c gray6",
">  c #101010",
",  c #111111",
"<  c gray7",
"1  c #131313",
"2  c gray8",
"3  c #151515",
"4  c #161616",
"5  c gray9",
"6  c #181818",
"7  c #191919",
"8  c gray10",
"9  c #1B1B1B",
"0  c gray11",
"q  c #1D1D1D",
"w  c #1E1E1E",
"e  c gray12",
"r  c #202020",
"t  c gray13",
"y  c #222222",
"u  c #232323",
"i  c gray14",
"p  c #252525",
"a  c gray15",
"s  c #272727",
"d  c #282828",
"f  c gray16",
"g  c #2A2A2A",
"h  c gray17",
"j  c #2C2C2C",
"k  c #2D2D2D",
"l  c gray18",
"z  c #2F2F2F",
"x  c gray19",
"c  c #313131",
"v  c #323232",
"b  c gray20",
"n  c #343434",
"m  c #353535",
"M  c gray21",
"N  c #373737",
"B  c gray22",
"V  c #393939",
"C  c #3A3A3A",
"Z  c gray23",
"A  c #3C3C3C",
"S  c gray24",
"D  c #3E3E3E",
"F  c #3F3F3F",
"G  c gray25",
"H  c #414141",
"J  c gray26",
"K  c #434343",
"L  c #444444",
"P  c gray27",
"I  c #464646",
"U  c gray28",
"Y  c #484848",
"T  c #494949",
"R  c gray29",
"E  c #4B4B4B",
"W  c #4C4C4C",
"Q  c gray30",
"!  c #4E4E4E",
"~  c gray31",
"^  c #505050",
"/  c #515151",
"(  c gray32",
")  c #535353",
"_  c gray33",
"`  c #555555",
"'  c #565656",
"]  c gray34",
"[  c #585858",
"{  c gray35",
"}  c #5A5A5A",
"|  c #5B5B5B",
" . c gray36",
".. c #5D5D5D",
"X. c gray37",
"o. c #5F5F5F",
"O. c #606060",
"+. c gray38",
"@. c #626262",
"#. c gray39",
"$. c #646464",
"%. c #656565",
"&. c gray40",
"*. c #676767",
"=. c #686868",
"-. c DimGray",
";. c #6A6A6A",
":. c gray42",
">. c #6C6C6C",
",. c #6D6D6D",
"<. c gray43",
"1. c #6F6F6F",
"2. c gray44",
"3. c #717171",
"4. c #727272",
"5. c gray45",
"6. c #747474",
"7. c gray46",
"8. c #767676",
"9. c #777777",
"0. c gray47",
"q. c #797979",
"w. c gray48",
"e. c #7B7B7B",
"r. c #7C7C7C",
"t. c gray49",
"y. c #7E7E7E",
"u. c gray50",
"i. c #808080",
"p. c #818181",
"a. c gray51",
"s. c #838383",
"d. c #848484",
"f. c gray52",
"g. c #868686",
"h. c gray53",
"j. c #888888",
"k. c #898989",
"l. c gray54",
"z. c #8B8B8B",
"x. c gray55",
"c. c #8D8D8D",
"v. c #8E8E8E",
"b. c gray56",
"n. c #909090",
"m. c gray57",
"M. c #929292",
"N. c #939393",
"B. c gray58",
"V. c #959595",
"C. c gray59",
"Z. c #979797",
"A. c #989898",
"S. c gray60",
"D. c #9A9A9A",
"F. c #9B9B9B",
"G. c gray61",
"H. c #9D9D9D",
"J. c gray62",
"K. c #9F9F9F",
"L. c #A0A0A0",
"P. c gray63",
"I. c #A2A2A2",
"U. c gray64",
"Y. c #A4A4A4",
"T. c #A5A5A5",
"R. c gray65",
"E. c #A7A7A7",
"W. c gray66",
"Q. c #A9A9A9",
"!. c #AAAAAA",
"~. c gray67",
"^. c #ACACAC",
"/. c gray68",
"(. c #AEAEAE",
"). c #AFAFAF",
"_. c gray69",
"`. c #B1B1B1",
"'. c #B2B2B2",
"]. c gray70",
"[. c #B4B4B4",
"{. c gray71",
"}. c #B6B6B6",
"|. c #B7B7B7",
" X c gray72",
".X c #B9B9B9",
"XX c gray73",
"oX c #BBBBBB",
"OX c #BCBCBC",
"+X c gray74",
"@X c gray",
"#X c gray75",
"$X c #C0C0C0",
"%X c #C1C1C1",
"&X c gray76",
"*X c #C3C3C3",
"=X c gray77",
"-X c #C5C5C5",
";X c #C6C6C6",
":X c gray78",
">X c #C8C8C8",
",X c gray79",
"<X c #CACACA",
"1X c #CBCBCB",
"2X c gray80",
"3X c #CDCDCD",
"4X c #CECECE",
"5X c gray81",
"6X c #D0D0D0",
"7X c gray82",
"8X c #D2D2D2",
"9X c LightGray",
"0X c gray83",
"qX c #D5D5D5",
"wX c gray84",
"eX c #D7D7D7",
"rX c #D8D8D8",
"tX c gray85",
"yX c #DADADA",
"uX c gray86",
"iX c gainsboro",
"pX c #DDDDDD",
"aX c gray87",
"sX c #DFDFDF",
"dX c gray88",
"fX c #E1E1E1",
"gX c #E2E2E2",
"hX c gray89",
"jX c #E4E4E4",
"kX c gray90",
"lX c #E6E6E6",
"zX c #E7E7E7",
"xX c gray91",
"cX c #E9E9E9",
"vX c #EAEAEA",
"bX c gray92",
"nX c #ECECEC",
"mX c gray93",
"MX c #EEEEEE",
"NX c #EFEFEF",
"BX c gray94",
"VX c #F1F1F1",
"CX c gray95",
"ZX c #F3F3F3",
"AX c #F4F4F4",
"SX c gray96",
"DX c #F6F6F6",
"FX c gray97",
"GX c #F8F8F8",
"HX c #F9F9F9",
"JX c gray98",
"KX c #FBFBFB",
"LX c gray99",
"PX c #FDFDFD",
"IX c #FEFEFE",
"UX c white",
/* pixels */
"(.).).).(.^.~.!.~./.).(./.(.`.[._._.(.^.~.Q.E.E.!.~.^././.^.~.!.`.(.~.!.!.Q.R.U.U.Y.T.T.T.T.Y.U.U.I.R.^.~.T.R.^.^.E.T.W.E.P.L.U.",
"/././././.^.~.~.~./.(.(.^./.`.[._.).(.^.~.Q.W.E.~.^././././.^.~.`.(.~.!.~.!.E.Y.U.U.Y.T.T.Y.U.U.I.P.T.~.!.Y.T.~./.W.R.Q.W.I.P.Y.",
"!.!.~.~.~.^.^.^.!.^././.^.^._.].).).(.^.~.Q.W.W.^./.(.(.(.(./.^.`.(.~.~.~.~.W.T.U.U.U.U.U.U.U.U.P.L.Y.Q.W.U.Y.!.(.Q.W.~.Q.U.I.R.",
"W.W.W.W.Q.!.^.^.Q.~.^.^.!.~.).'.).(./.^.~.!.Q.W.^./.(.).).(./.^._./.!.!.~.~.W.R.Y.U.U.I.I.U.U.Y.P.L.I.E.R.P.U.!.).!.Q.^.!.Y.U.E.",
"E.R.R.R.R.W.!.~.E.Q.~.!.Q.!./.`.(././.^.~.!.!.Q.^.^./.(.(./.^.^.(.~.Q.Q.!.!.W.T.Y.U.I.P.P.I.U.Y.I.L.I.R.T.P.Y.~.).!.Q.^.!.Y.U.E.",
"E.R.Y.U.Y.T.W.Q.R.W.!.Q.W.Q.^.)././.^.^.~.~.!.!.!.~.^.^.^.^.~.!.~.W.R.E.W.Q.R.Y.Y.U.P.K.K.P.U.Y.Y.P.U.R.T.I.T./.(.Q.W.~.Q.U.I.R.",
"Q.E.Y.I.P.U.T.E.T.E.Q.W.E.W.~.).^.^.^.^.~.~.~.~.W.Q.!.~.~.!.Q.W.W.R.Y.Y.R.E.T.I.Y.I.L.J.J.L.I.Y.R.U.Y.E.R.U.E.)./.W.R.Q.W.I.P.Y.",
"Q.E.Y.P.L.P.U.T.T.E.W.W.E.E.~.(.^.^.^.^.~.~.~.~.E.W.Q.Q.Q.Q.W.E.R.Y.I.U.T.T.Y.P.Y.I.L.J.J.L.I.Y.E.Y.Y.W.E.U.W._.^.E.T.W.E.P.L.U.",
"E.R.R.T.Y.I.I.P.T.R.E.W.W.W.E.R./.^.~.Q.Q.W.Q.Q.E.W.W.Q.W.E.R.T.U.U.U.Y.Y.T.T.T.U.U.I.P.P.I.U.Y.R.T.Y.Y.T.W.~./.^.~.W.I.H.J.Y.!.",
"E.R.T.Y.U.I.P.P.Y.T.E.W.Q.Q.W.W.^.~.!.Q.W.W.W.Q.R.E.E.E.E.R.Y.U.U.U.U.Y.Y.T.T.T.Y.U.I.P.L.P.P.I.T.Y.U.Y.R.Q.^.(.^.^.Q.U.K.K.T.~.",
"R.R.T.Y.U.I.P.P.I.Y.R.W.Q.!.!.!.~.!.W.E.E.E.W.W.Y.T.T.R.T.Y.U.I.U.U.U.Y.Y.T.T.T.R.T.U.P.K.J.J.J.U.I.I.U.R.!./._./.^.Q.T.P.I.E.~.",
"R.T.Y.U.I.P.L.L.L.I.Y.E.Q.!.!.!.W.E.R.T.T.R.E.E.U.U.Y.Y.Y.I.P.L.U.U.U.Y.Y.T.T.T.W.R.U.P.J.H.G.G.P.P.I.U.R.!.).`.(.^.Q.T.Y.T.Q.~.",
"T.T.Y.U.I.P.L.K.K.L.I.T.E.W.W.Q.T.T.Y.U.Y.Y.T.R.I.U.U.U.U.I.L.L.U.U.U.Y.Y.T.T.T.Q.E.T.P.K.H.G.F.P.P.I.U.R.!.).`./.~.E.T.R.W.Q.!.",
"Y.Y.U.I.P.L.K.K.H.J.L.I.Y.T.T.T.U.I.I.P.I.U.Y.T.U.U.Y.Y.U.I.P.L.U.U.U.Y.Y.T.T.T.!.Q.R.U.L.K.J.J.U.I.I.U.R.!./._.^.W.T.Y.E.Q.Q.W.",
"Y.Y.U.I.P.L.K.J.G.H.K.L.P.P.L.L.P.L.L.L.P.I.Y.Y.Y.Y.T.T.Y.U.I.P.U.U.U.Y.Y.T.T.T.~.Q.E.Y.I.P.P.P.T.Y.U.Y.R.Q.^.(.!.R.U.U.E.Q.W.R.",
"Y.U.U.P.L.K.K.J.G.H.J.K.K.J.J.H.L.K.K.K.L.I.U.Y.Y.T.T.T.T.Y.I.I.U.U.U.Y.Y.T.T.T.~.!.W.T.Y.U.U.U.R.T.Y.Y.T.W.~./.Q.T.P.I.R.Q.E.Y.",
"Y.U.U.I.P.K.K.J.J.J.K.K.L.L.P.P.K.K.L.P.I.I.U.U.I.I.U.Y.Y.U.I.I.P.P.P.P.I.U.T.R.I./._.E.L.I.U.L.T.I.K.L.Y.E.E.E.U.I.I.I.U.T.R.E.",
"Y.U.I.P.L.K.J.J.G.G.H.H.J.J.K.K.H.J.J.J.K.K.K.K.P.P.I.I.I.I.P.P.I.I.I.Y.T.E.Q.!.Y.(._.W.P.P.I.K.I.P.I.T.Q.Q.E.Y.P.P.I.U.T.W.!.^.",
"U.U.I.P.L.K.J.J.F.F.F.G.H.H.H.J.H.G.G.G.F.F.F.F.K.K.K.K.K.K.K.K.P.I.Y.R.Q.^.(.).E.).`.Q.P.L.L.K.P.I.T.!./.^.W.U.P.I.U.T.W.~.(._.",
"U.I.P.L.K.J.H.H.G.G.G.H.H.J.J.J.J.H.H.G.F.D.S.S.J.H.H.G.G.H.H.J.K.L.U.E.~./.)._.~.).`.~.U.J.J.K.Y.Y.R.!././.!.R.R.R.R.E.Q.^.(._.",
"I.I.P.L.K.J.H.G.J.J.J.K.K.L.L.L.L.K.K.J.H.G.F.F.H.G.F.D.D.F.G.H.F.H.P.R.!.^.(.(.^.)._./.T.J.J.P.Q.E.T.R.!.^.^.~.~.~.!.Q.!.~.^.^.",
"P.P.L.K.J.H.G.G.J.K.K.K.L.P.P.P.L.L.L.K.K.K.J.J.J.H.F.S.S.F.H.J.S.G.L.T.Q.~.~.~././.).).E.J.J.Y.!.E.Y.Y.W.~.^.^.(./.~.!.Q.!.!.~.",
"P.P.L.K.J.H.G.F.H.H.J.J.K.K.L.L.J.J.J.K.K.L.L.L.K.H.F.S.S.F.H.K.D.H.P.R.Q.!.!.Q.^.~.(._.Q.J.K.E.R.T.Y.R.!.~.!.W.~.~.!.Q.Q.!.~.^.",
"P.L.L.J.H.G.G.F.F.F.G.G.H.H.J.J.G.G.H.J.K.K.L.L.L.J.F.S.S.F.J.L.F.J.U.E.!.~.!.Q.^.!./._.!.K.L.!.I.I.T.Q./.^.W.Y.W.W.W.W.!.~./.(.",
"G.H.J.K.K.K.J.J.L.L.L.L.L.L.L.L.Y.U.P.L.K.L.P.P.H.H.H.H.G.G.G.G.P.P.L.P.I.Y.T.R.E.!.(.(.!.R.Y.U.Q.!.!.~.^././.(.!.E.T.R.Q.~.!.Q.",
"H.H.J.K.K.K.J.J.K.K.K.K.K.K.K.K.I.I.P.P.L.L.K.K.K.K.K.J.J.J.J.J.P.L.P.P.I.Y.T.R.W.~./.^.Q.T.Y.T.Q.!.!.~.^.^././.!.E.T.R.Q.^.^.~.",
"J.J.J.J.J.J.J.J.K.K.K.K.K.K.K.K.K.L.P.I.I.L.J.G.L.L.L.L.L.L.L.L.L.L.P.I.U.Y.T.T.Q.!.~.!.R.Y.T.E.Q.Q.!.!.~.~.~.~.Q.R.T.R.!././.^.",
"L.K.J.H.H.H.H.J.J.J.J.J.J.J.J.J.G.J.P.U.I.K.G.D.J.J.J.K.K.L.L.L.K.L.P.U.Y.Y.T.T.Q.!.!.E.Y.Y.R.Q.Q.Q.Q.Q.Q.Q.Q.!.W.R.Y.R.!./.(./.",
"P.L.J.H.G.G.H.J.J.J.J.J.J.J.J.J.F.H.L.P.P.J.F.A.F.F.G.H.H.J.K.K.J.K.I.Y.T.T.Y.Y.E.Q.Q.E.Y.U.R.Q.W.W.W.W.W.W.W.E.W.T.Y.T.Q.~.^.~.",
"U.P.J.G.F.G.H.J.H.H.H.H.H.H.H.H.F.G.J.K.J.G.D.S.D.D.F.G.H.J.J.K.H.K.I.Y.T.T.Y.U.Y.E.W.E.T.Y.R.W.W.W.E.E.R.R.R.R.W.T.U.U.R.W.W.R.",
"Y.I.K.G.D.F.H.J.H.H.H.H.H.H.H.H.H.G.G.G.F.F.D.D.D.F.G.H.J.K.L.P.H.K.I.T.R.T.Y.I.P.T.W.Q.E.T.T.R.W.E.E.R.T.T.Y.Y.W.T.I.I.U.T.U.I.",
"T.I.K.F.D.F.G.J.G.G.G.G.G.G.G.G.J.H.F.D.S.S.D.F.G.G.H.K.L.P.I.U.G.K.I.T.R.T.U.I.K.Y.Q.!.W.T.Y.Y.W.E.E.R.T.Y.Y.U.W.T.P.P.I.I.P.K.",
"Y.U.L.J.G.F.D.D.H.H.G.F.D.D.S.S.V.C.A.D.G.J.L.P.L.L.L.P.P.I.I.I.T.T.T.Y.Y.U.U.U.L.P.P.I.U.Y.Y.T.W.E.E.R.T.Y.Y.U.U.Y.T.T.T.T.Y.U.",
"Y.I.L.J.G.F.F.F.G.G.G.F.F.F.D.D.A.A.S.F.H.J.K.L.L.L.P.P.I.I.U.U.T.T.T.Y.Y.U.U.I.L.P.P.I.U.U.Y.Y.E.E.R.R.T.Y.Y.U.U.U.Y.T.T.Y.U.U.",
"U.I.L.J.G.F.F.F.F.F.F.F.G.G.G.H.F.G.G.H.J.J.K.K.P.P.I.I.U.U.Y.Y.T.T.Y.Y.U.U.I.I.P.P.P.I.I.U.U.U.R.R.R.T.T.Y.Y.Y.I.U.Y.T.T.Y.U.I.",
"I.P.K.H.G.G.G.G.D.D.F.G.H.H.J.J.K.J.J.J.J.J.J.J.I.I.I.U.U.Y.Y.Y.Y.Y.Y.U.U.I.I.P.P.P.P.P.P.I.I.I.T.T.T.Y.Y.Y.Y.Y.I.I.U.Y.Y.U.I.I.",
"P.L.K.H.G.G.G.H.F.F.G.G.H.J.K.K.K.K.K.J.J.H.H.H.P.P.I.I.U.U.U.Y.Y.U.U.I.I.P.P.P.P.P.P.P.P.L.L.L.U.U.U.Y.Y.Y.Y.Y.P.I.U.U.U.U.I.P.",
"P.L.J.H.H.H.H.J.G.H.H.H.J.J.J.J.J.J.J.H.H.H.H.G.K.L.L.P.P.I.I.I.U.U.I.I.P.P.L.L.P.P.P.L.L.K.K.K.I.I.I.U.U.Y.Y.Y.L.P.I.U.U.I.P.L.",
"L.K.J.H.H.H.J.J.K.K.J.J.J.H.H.H.F.F.G.G.G.G.G.G.J.J.J.K.K.L.L.L.U.I.I.P.P.L.L.L.I.P.P.L.K.K.J.J.P.P.I.I.U.Y.Y.T.L.P.I.I.I.I.P.L.",
"L.K.J.H.H.H.J.K.L.L.K.K.J.H.G.G.S.D.D.F.F.G.G.G.G.H.H.J.J.K.K.K.I.I.I.P.P.L.L.L.I.P.P.L.K.J.J.H.L.P.P.I.U.Y.Y.T.L.L.P.I.I.P.L.L.",
"K.J.H.H.H.H.J.K.G.G.G.G.G.G.G.G.S.F.J.P.Y.T.R.R.K.K.L.P.P.I.U.U.P.L.K.J.J.K.L.P.P.L.L.K.L.P.U.Y.T.Y.U.I.P.P.I.I.K.L.U.T.T.Y.U.I.",
"L.L.K.J.J.K.L.L.H.J.J.J.J.K.K.K.L.P.P.I.I.U.U.Y.K.K.L.P.P.I.U.U.P.L.K.J.J.K.L.P.L.L.L.P.P.I.I.I.Y.U.I.P.L.L.P.P.K.L.I.Y.T.Y.U.P.",
"U.I.P.L.L.P.I.U.K.L.L.P.I.U.U.Y.E.T.U.L.K.L.P.I.L.L.L.P.P.I.I.I.P.L.K.J.J.K.L.P.H.K.P.U.U.U.P.L.I.P.L.K.J.J.K.K.J.L.I.Y.Y.Y.I.P.",
"T.Y.U.I.I.U.Y.T.P.I.I.U.T.T.R.E.E.Y.L.H.G.H.L.P.P.P.P.P.P.P.P.P.P.L.K.J.J.K.L.P.G.J.I.Y.T.U.P.K.P.L.J.H.H.H.H.J.J.K.P.U.Y.U.I.L.",
"R.T.Y.Y.Y.Y.T.R.U.U.Y.Y.T.R.R.R.P.K.G.D.F.H.P.U.P.P.P.P.P.P.P.P.P.L.K.J.J.K.L.P.G.J.I.Y.T.U.P.K.L.K.J.H.G.G.H.H.H.K.P.U.U.I.P.L.",
"R.T.Y.Y.Y.Y.T.R.Y.Y.U.U.U.U.U.U.H.G.G.G.H.L.U.Y.I.I.I.P.P.L.L.L.P.L.K.J.J.K.L.P.H.K.P.U.U.U.P.L.L.L.J.H.H.H.H.J.G.J.L.I.U.I.L.K.",
"R.T.Y.U.U.Y.T.R.Y.U.U.I.L.K.K.J.J.K.L.P.I.U.Y.Y.U.U.I.P.P.L.K.K.P.L.K.J.J.K.L.P.L.L.L.P.P.I.I.I.P.L.K.J.H.J.J.K.G.J.L.I.I.P.L.K.",
"T.Y.Y.U.U.Y.Y.T.Y.U.I.L.J.H.G.F.I.U.Y.T.R.T.Y.Y.U.U.I.P.P.L.K.K.P.L.K.J.J.K.L.P.P.L.L.K.L.P.U.Y.I.P.L.K.J.J.K.K.G.H.L.P.I.P.L.K.",
"E.E.T.T.Y.T.T.R.P.P.P.P.I.U.T.R.U.U.Y.Y.Y.Y.T.T.T.Y.I.L.K.K.K.K.L.L.L.L.L.L.L.L.L.L.L.P.P.I.I.I.L.K.H.G.G.H.K.L.J.H.P.R.T.J.K.Y.",
"E.R.T.Y.Y.T.R.R.Y.U.I.I.I.U.T.T.Y.Y.Y.Y.Y.Y.Y.Y.Y.U.P.L.K.J.J.K.L.L.L.L.L.L.L.L.J.J.J.K.K.L.L.P.K.J.G.F.G.H.K.P.J.H.P.R.Y.J.K.Y.",
"R.R.T.Y.Y.T.R.E.E.R.T.Y.U.Y.Y.T.Y.Y.Y.Y.Y.Y.Y.Y.U.I.P.K.J.H.J.J.L.L.L.L.L.L.L.L.G.H.H.J.J.K.K.K.H.G.F.D.F.H.L.P.J.H.L.T.U.H.J.T.",
"R.T.Y.Y.T.R.E.W.Q.W.R.T.Y.Y.Y.T.T.T.T.Y.Y.U.U.U.U.I.L.J.H.H.H.H.L.L.L.L.L.L.L.L.H.H.J.J.K.K.L.L.F.D.S.S.D.G.K.P.J.H.K.U.I.G.J.T.",
"T.Y.Y.Y.T.R.W.W.Q.W.R.T.Y.Y.Y.T.R.R.T.Y.Y.U.I.I.Y.U.P.K.J.J.J.J.L.L.L.L.L.L.L.L.K.K.L.L.P.P.I.I.F.D.A.A.A.D.H.J.K.G.J.I.L.F.J.T.",
"Y.Y.Y.Y.T.R.W.Q.E.R.T.Y.U.Y.Y.T.E.R.T.T.U.U.I.P.T.Y.I.P.L.K.K.L.L.L.L.L.L.L.L.L.L.L.L.P.P.I.I.U.G.D.A.Z.Z.A.D.F.K.G.H.P.K.F.J.T.",
"U.U.U.Y.T.E.Q.!.Y.U.I.I.I.U.T.T.E.E.R.T.U.I.P.P.E.R.Y.I.P.P.P.P.L.L.L.L.L.L.L.L.J.K.K.L.L.P.P.P.H.G.S.Z.C.C.Z.A.K.G.G.K.J.D.H.R.",
"U.U.U.Y.T.E.Q.!.P.P.P.P.I.U.T.R.W.E.R.T.U.I.P.L.W.E.T.Y.I.I.I.U.L.L.L.L.L.L.L.L.H.H.H.J.J.K.K.K.K.H.S.C.V.B.V.C.K.G.G.K.H.S.H.R.",
"E.E.R.R.T.T.Y.Y.I.U.U.Y.Y.U.I.P.P.I.Y.T.R.R.R.T.W.E.T.Y.U.U.U.U.K.L.P.I.I.P.L.K.F.J.I.U.P.K.K.L.S.D.S.Z.B.B.A.F.K.L.T.W.U.F.G.U.",
"R.T.T.T.Y.Y.U.U.U.U.Y.Y.Y.U.P.P.K.L.P.I.I.I.I.P.I.P.L.K.J.J.J.K.I.I.U.U.U.Y.Y.Y.H.L.U.U.L.H.H.J.K.K.J.D.C.B.C.A.K.K.Y.E.I.D.F.U.",
"T.T.T.Y.Y.U.U.I.U.Y.Y.Y.Y.I.P.L.J.J.J.H.H.H.G.G.K.J.G.F.F.F.G.G.P.P.P.P.I.U.T.R.L.I.U.I.H.D.D.D.G.H.G.D.C.V.Z.S.J.J.I.T.L.A.D.I.",
"R.R.R.T.T.Y.Y.Y.U.Y.Y.Y.U.P.L.K.H.H.F.D.S.S.S.S.J.H.G.F.F.F.G.H.L.K.J.J.K.P.U.T.P.U.U.L.F.A.Z.A.N.V.A.A.Z.A.F.J.H.H.L.U.J.C.S.P.",
"W.E.E.E.R.R.T.T.I.I.I.I.P.K.H.G.G.F.S.Z.Z.Z.Z.A.D.D.S.S.S.D.F.F.P.P.L.L.P.I.Y.Y.L.P.P.J.S.C.Z.S.V.A.F.G.F.F.H.L.G.G.J.L.F.B.Z.L.",
"E.E.R.R.T.T.Y.Y.L.L.L.K.J.G.D.A.S.A.V.B.N.B.C.Z.V.V.B.B.B.V.Z.A.U.Y.T.R.T.T.U.U.G.H.H.F.A.Z.S.G.L.U.T.U.L.H.G.H.F.D.G.H.A.M.C.L.",
"Y.Y.U.U.I.I.P.P.J.J.J.H.F.S.C.V.B.M.n.b.b.m.B.C.B.B.N.N.B.V.Z.A.L.I.Y.R.T.P.H.D.A.S.D.S.Z.A.G.L.P.Y.T.Y.K.F.D.D.F.S.D.F.C.m.V.K.",
"P.P.L.L.K.K.J.J.H.H.G.F.S.Z.V.N.n.v.x.z.x.b.M.B.Z.Z.C.C.Z.S.D.F.S.G.L.I.L.F.V.n.V.C.A.Z.Z.S.J.U.A.F.K.K.G.S.S.D.D.A.D.D.V.n.B.J."
};
