/* XPM */
static char * left2_xpm[] = {
"64 64 274 2",
"  	c #AEAEAE",
". 	c #AFAFAF",
"+ 	c #ACACAC",
"@ 	c #ABABAB",
"# 	c #AAAAAA",
"$ 	c #ADADAD",
"% 	c #B1B1B1",
"& 	c #B4B4B4",
"* 	c #B0B0B0",
"= 	c #A9A9A9",
"- 	c #A7A7A7",
"; 	c #A6A6A6",
"> 	c #A3A3A3",
", 	c #A4A4A4",
"' 	c #A5A5A5",
") 	c #A2A2A2",
"! 	c #A8A8A8",
"~ 	c #A1A1A1",
"{ 	c #A0A0A0",
"] 	c #B3B3B3",
"^ 	c #B2B2B2",
"/ 	c #9F9F9F",
"( 	c #9E9E9E",
"_ 	c #9D9D9D",
": 	c #9C9C9C",
"< 	c #252215",
"[ 	c #2B251A",
"} 	c #9B9B9B",
"| 	c #241C0B",
"1 	c #2B2314",
"2 	c #574A35",
"3 	c #3C3322",
"4 	c #4B4328",
"5 	c #373114",
"6 	c #26271C",
"7 	c #959595",
"8 	c #898989",
"9 	c #352D22",
"0 	c #4D4633",
"a 	c #433A23",
"b 	c #4B3A1C",
"c 	c #433413",
"d 	c #342D1B",
"e 	c #34251A",
"f 	c #332513",
"g 	c #2B2916",
"h 	c #3A3526",
"i 	c #241D12",
"j 	c #443C2A",
"k 	c #413524",
"l 	c #3C331C",
"m 	c #3B3114",
"n 	c #554629",
"o 	c #4B3D25",
"p 	c #44351C",
"q 	c #342C14",
"r 	c #3A2D1D",
"s 	c #54452A",
"t 	c #5F5434",
"u 	c #5C4625",
"v 	c #4A401D",
"w 	c #2B1B12",
"x 	c #4B351C",
"y 	c #4C3D2B",
"z 	c #4C422B",
"A 	c #665539",
"B 	c #634B2B",
"C 	c #2B210A",
"D 	c #2D1D1B",
"E 	c #594D2C",
"F 	c #4A340B",
"G 	c #664B34",
"H 	c #3A361D",
"I 	c #392614",
"J 	c #372B0A",
"K 	c #2C230B",
"L 	c #4F3714",
"M 	c #423A1C",
"N 	c #34240B",
"O 	c #CCC3AA",
"P 	c #38271D",
"Q 	c #3A2E23",
"R 	c #2C1A09",
"S 	c #EBCDB4",
"T 	c #EAD7B8",
"U 	c #352A28",
"V 	c #989898",
"W 	c #331400",
"X 	c #F8D7B5",
"Y 	c #FDD4AC",
"Z 	c #F9D9C3",
"` 	c #F1CDAB",
" .	c #CBA88C",
"..	c #D6A996",
"+.	c #CBB5AD",
"@.	c #FDDBBB",
"#.	c #B48B79",
"$.	c #714E4A",
"%.	c #AD938B",
"&.	c #D3B791",
"*.	c #3C2103",
"=.	c #FED4C2",
"-.	c #361B16",
";.	c #B4AFAB",
">.	c #B2A69A",
",.	c #D5AB89",
"'.	c #432307",
").	c #341D0B",
"!.	c #FCCFB8",
"~.	c #FED3BA",
"{.	c #636782",
"].	c #292824",
"^.	c #F9F5F4",
"/.	c #FFD0A4",
"(.	c #E4A989",
"_.	c #452A19",
":.	c #351905",
"<.	c #919191",
"[.	c #303234",
"}.	c #E6DCC7",
"|.	c #FED3B3",
"1.	c #E2AC7E",
"2.	c #D99E78",
"3.	c #7A4B32",
"4.	c #9A9A9A",
"5.	c #CEA797",
"6.	c #FECEB6",
"7.	c #F9D7C9",
"8.	c #EDDDC4",
"9.	c #ECAB91",
"0.	c #884626",
"a.	c #461A06",
"b.	c #454540",
"c.	c #999999",
"d.	c #C88F6B",
"e.	c #2B1B02",
"f.	c #241C1A",
"g.	c #969696",
"h.	c #924629",
"i.	c #CFB58C",
"j.	c #251924",
"k.	c #C8B89A",
"l.	c #8B5336",
"m.	c #E6BC99",
"n.	c #EBE1BA",
"o.	c #D6A67B",
"p.	c #EADAAE",
"q.	c #BCB998",
"r.	c #F5E2C2",
"s.	c #B8BAA9",
"t.	c #1A232B",
"u.	c #BC926C",
"v.	c #DCDAC7",
"w.	c #BFC4AD",
"x.	c #E4E5D5",
"y.	c #CECFD0",
"z.	c #464B5E",
"A.	c #C8C19A",
"B.	c #DFDAB8",
"C.	c #E2DDE6",
"D.	c #B6BAB6",
"E.	c #606C9E",
"F.	c #9CAAD6",
"G.	c #251936",
"H.	c #2A2B38",
"I.	c #E6E2CA",
"J.	c #B1B5D5",
"K.	c #595F81",
"L.	c #323554",
"M.	c #ACB6C9",
"N.	c #A9B5E7",
"O.	c #292A49",
"P.	c #B7BCC7",
"Q.	c #ACC0BF",
"R.	c #B8C2B4",
"S.	c #D5DDE8",
"T.	c #586998",
"U.	c #1A2765",
"V.	c #392A46",
"W.	c #8E8D8D",
"X.	c #2E3669",
"Y.	c #ADB7D6",
"Z.	c #B4C1EA",
"`.	c #546A96",
" +	c #9DB2CA",
".+	c #AEC5D3",
"++	c #9DB4EB",
"@+	c #4E66B7",
"#+	c #323E92",
"$+	c #52517D",
"%+	c #C9B6B7",
"&+	c #1A2E56",
"*+	c #273778",
"=+	c #4D65B3",
"-+	c #556EAE",
";+	c #ABC1FF",
">+	c #93ADEF",
",+	c #5368B6",
"'+	c #4B64C9",
")+	c #2E428E",
"!+	c #0E142C",
"~+	c #122C6E",
"{+	c #5367AE",
"]+	c #162985",
"^+	c #546AC3",
"/+	c #171824",
"(+	c #1C2742",
"_+	c #354472",
":+	c #212753",
"<+	c #696867",
"[+	c #776B48",
"}+	c #A9AFAF",
"|+	c #E3DED6",
"1+	c #D8E4F0",
"2+	c #D4DEEE",
"3+	c #220D00",
"4+	c #897953",
"5+	c #8C8C8B",
"6+	c #E6BFA0",
"7+	c #AE7855",
"8+	c #9A7B50",
"9+	c #1D1502",
"0+	c #BCBBA6",
"a+	c #DEE0DB",
"b+	c #251807",
"c+	c #B88158",
"d+	c #231500",
"e+	c #7F623B",
"f+	c #523A08",
"g+	c #536D84",
"h+	c #8C4D46",
"i+	c #C97F69",
"j+	c #603F1E",
"k+	c #838281",
"l+	c #191509",
"m+	c #2749A0",
"n+	c #978763",
"o+	c #828181",
"p+	c #929292",
"q+	c #BDC3DB",
"r+	c #A8BCFB",
"s+	c #1C1E47",
"t+	c #DFE2E9",
"u+	c #ACB2BE",
"v+	c #888888",
"w+	c #B2C1CB",
"x+	c #8B978B",
"y+	c #868686",
"z+	c #454541",
"A+	c #858585",
"B+	c #8C8452",
"C+	c #6B6A69",
"D+	c #8F8F8F",
"E+	c #8E8E8E",
"F+	c #7A6A26",
"G+	c #979797",
"H+	c #818080",
"I+	c #98853D",
"J+	c #9B8129",
"K+	c #8B7328",
"L+	c #C4A846",
"M+	c #949494",
"N+	c #C8A83A",
"O+	c #C6A32B",
"P+	c #CAA951",
"Q+	c #B9A662",
"R+	c #BFA74F",
"S+	c #BDA13D",
"T+	c #7B7A7A",
"U+	c #696866",
"V+	c #939393",
"W+	c #909090",
"X+	c #8C8C8C",
"Y+	c #8B8B8B",
"  . . .   + @ # @ $ .   $   % & * *   + @ = - - # @ + $ $ + @ # %   @ # # = ; > > , ' ' ' ' , > > ) ; + @ ' ; + + - ' ! - ~ { > ",
"$ $ $ $ $ + @ @ @ $     + $ % & * .   + @ = ! - @ + $ $ $ $ + @ %   @ # @ # - , > > , ' ' , > > ) ~ ' @ # , ' @ $ ! ; = ! ) ~ , ",
"# # @ @ @ + + + # + $ $ + + * ] . .   + @ = ! ! + $         $ + %   @ @ @ @ ! ' > > > > > > > > ~ { , = ! > , #   = ! @ = > ) ; ",
"! ! ! ! = # + + = @ + + # @ . ^ .   $ + @ # = ! + $   . .   $ + * $ # # @ @ ! ; , > > ) ) > > , ~ { ) - ; ~ > # . # = + # , > - ",
"- ; ; ; ; ! # @ - = @ # = # $ %   $ $ + @ # # = + + $     $ + +   @ = = # # ! ' , > ) ~ ~ ) > , ) { ) ; ' ~ , @ . # = + # , > - ",
"- ; , > , ' ! = ; ! # = ! = + . $ $ + + @ @ # # # @ + + + + @ # @ ! ; - ! = ; , , > ~ / / ~ > , , ~ > ; ' ) ' $   = ! @ = > ) ; ",
"= - , ) ~ > ' - ' - = ! - ! @ . + + + + @ @ @ @ ! = # @ @ # = ! ! ; , , ; - ' ) , ) { ( ( { ) , ; > , - ; > - . $ ! ; = ! ) ~ , ",
"= - , ~ { ~ > ' ' - ! ! - - @   + + + + @ @ @ @ - ! = = = = ! - ; , ) > ' ' , ~ , ) { ( ( { ) , - , , ! - > ! * + - ' ! - ~ { > ",
"- ; ; ' , ) ) ~ ' ; - ! ! ! - ; $ + @ = = ! = = - ! ! = ! - ; ' > > > , , ' ' ' > > ) ~ ~ ) > , ; ' , , ' ! @ $ + @ ! ) _ ( , # ",
"- ; ' , > ) ~ ~ , ' - ! = = ! ! + @ # = ! ! ! = ; - - - - ; , > > > > , , ' ' ' , > ) ~ { ~ ~ ) ' , > , ; = +   + + = > / / ' @ ",
"; ; ' , > ) ~ ~ ) , ; ! = # # # @ # ! - - - ! ! , ' ' ; ' , > ) > > > , , ' ' ' ; ' > ~ / ( ( ( > ) ) > ; # $ * $ + = ' ~ ) - @ ",
"; ' , > ) ~ { { { ) , - = # # # ! - ; ' ' ; - - > > , , , ) ~ { > > > , , ' ' ' ! ; > ~ ( _ : : ~ ~ ) > ; # . %   + = ' , ' = @ ",
"' ' , > ) ~ { / / { ) ' - ! ! = ' ' , > , , ' ; ) > > > < < < < [ > > , , ' ' ' = - ' ~ / _ : } ~ ~ ) > ; # . % $ @ - ' ; ! = # ",
", , > ) ~ { / / _ ( { ) , ' ' ' > ) ) ~ ) > , ' > > | 1 2 3 4 5 3 1 1 , , ' < < 6 7 ; > { / ( ( > ) ) > ; # $ * + ! ' , - = = ! ",
", , > ) ~ { / ( : _ / { ~ ~ { { ~ { { { ~ ) , , 8 9 0 a 4 5 b c a d e | f g d [ h h i , ) ~ ~ ~ ' , > , ; = +   # ; > > - = ! ; ",
", > > ~ { / / ( : _ ( / / ( ( _ { / / / { ) > i j 0 k l m n n n a o p f q | g j 3 k h i , > > > ; ' , , ' ! @ $ = ' ~ ) ; = - , ",
", > > ) ~ / / ( ( ( / / { { ~ ~ / / { ~ ) ) 1 3 0 r k j s s t 4 u a v 5 5 q | d l 2 a w { ) > { ' ) / { , - - - > ) ) ) > ' ; - ",
", > ) ~ { / ( ( : : _ _ ( ( / / _ ( ( ( / [ r x y 3 z s u o 4 A x B b v 5 g C 3 s c l D ~ ~ ) / ) ~ ) ' = = - , ~ ~ ) > ' ! # + ",
"> > ) ~ { / ( ( } } } : _ _ _ ( _ : : : } f x u E c c B u u F u G x n E 5 H 3 | o o r [ ~ { { / ~ ) ' # $ + ! > ~ ) > ' ! @   * ",
"> ) ~ { / ( _ _ : : : _ _ ( ( ( ( _ _ : | I B B b b n A B B c J s A J 5 H 3 g f K a f w > ( ( / , , ; # $ $ # ; ; ; ; - = +   * ",
") ) ~ { / ( _ : ( ( ( / / { { { { / / ( l b u b 2 G 0 H L u A z k K o J M 3 g | 3 K d i ' ( ( ~ = - ' ; # + + @ @ @ # = # @ + + ",
"~ ~ { / ( _ : : ( / / / { ~ ~ ~ { { { < b n b s 2 o 5 5 E x 2 G z m 5 H 1 d h e j 9 < . - ( ( , # - , , ! @ + +   $ @ # = # # @ ",
"~ ~ { / ( _ : } _ _ ( ( / / { { ( ( ( g M M N 0 h l c O J 4 f 2 2 H H 5 3 P Q i | <   * = ( / - ; ' , ; # @ # ! @ @ # = = # @ + ",
"~ { { ( _ : : } } } : : _ _ ( ( : : _ g 0 l p k R J S S T J j d M H C l l e U i V # $ * # / { # ) ) ' = $ + ! , ! ! ! ! # @ $   ",
": _ ( / / / ( ( { { { { { { { { , > ~ P Q 0 3 p W T X Y Z S f a 5 5 f P R h 9 < - #     # ; , > = # # @ + $ $   # - ' ; = @ # = ",
"_ _ ( / / / ( ( / / / / / / / / ) ) ~ ~ D R d J ` X  .Z ..+.I K m m s p P R U i ! @ $ + = ' , ' = # # @ + + $ $ # - ' ; = + + @ ",
"( ( ( ( ( ( ( ( / / / / / / / / / { ~ ) U w I Z S @.#.$.$.%. .&.*.*.b x e k [ [ = # @ # ; , ' - = = # # @ @ @ @ = ; ' ; # $ $ + ",
"{ / ( _ _ _ _ ( ( ( ( ( ( ( ( ( : ( ~ > ) w G =.@.Z -.D ;.>...Y ,.'.'.I y f < ' = # # - , , ; = = = = = = = = # ! ; , ; # $   $ ",
"~ { ( _ : : _ ( ( ( ( ( ( ( ( ( } _ { ~ ~ ( ).!.~.=.{.].^.^.` /.(.,.=._.:.1 3 <.- = = - , > ; = ! ! ! ! ! ! ! - ! ' , ' = @ + @ ",
"> ~ ( : } : _ ( _ _ _ _ _ _ _ _ } : ( / ( : W =.=.=.0 [.^.}.|.1.2.(.3.$.).r h ]., - ! - ' , ; ! ! ! - - ; ; ; ; ! ' > > ; ! ! ; ",
", ) / : 4.} _ ( _ _ _ _ _ _ _ _ _ : : : } } e 5.!.6.!.7.7.8.@./.2.9.0.a.K K z b.~ ' ! = - ' ' ; ! - - ; ' ' , , ! ' ) ) > ' > ) ",
"' ) / } 4.} : ( : : : : : : : : ( _ } 4.c.c.4.).#.~.~.!.Z Z Y (.d.0.a.:.e.5 H 9 f., = # ! ' , , ! - - ; ' , , > ! ' ~ ~ ) ) ~ / ",
", > { ( : } 4.4._ _ : } 4.4.c.c.7 g.V 4.: ( { ~ :.d. .|.6.9.d.h.h.3.,.i.N M 5 9 j.~ ~ ) > , , ' ! - - ; ' , , > > , ' ' ' ' , > ",
", ) { ( : } } } : : : } } } 4.4.V V c.} _ ( / { k.,.@.l.0.h.h.h.1.m.n.i.i.K e.9 [.[.~ ) > > , , - - ; ; ' , , > > > , ' ' , > > ",
"> ) { ( : } } } } } } } : : : _ } : : _ ( ( / / 8.&.k.'.d.d.o.,.i.p.q.q.T r.k.s.t.t.~ ) ) > > > ; ; ; ' ' , , , ) > , ' ' , > ) ",
") ~ / _ : : : : 4.4.} : _ _ ( ( / ( ( ( ( ( ( O i.T k.k.u.2.&.&.n.v.w.x.v.k.;.y.z.t.~ ~ ~ ) ) ) ' ' ' , , , , , ) ) > , , > ) ) ",
"~ { / _ : : : _ } } : : _ ( / / / / / ( ( _ s.}.A.n.B.n.p.S 8.8.p.>.C.C.D.D.E.F.{.G.j.~ ~ { { { > > > , , , , , ~ ) > > > > ) ~ ",
"~ { ( _ _ _ _ ( : _ _ _ ( ( ( ( ( ( ( _ _ _ H.D.B.q.I.I.x.I.I.v.k.+.J.K.L.M.N.E.O.[.j.i { / / / ) ) ) > > , , , { ~ ) > > ) ~ { ",
"{ / ( _ _ _ ( ( / / ( ( ( _ _ _ } } : : : : O.J.P.s.M.Q.D.s.R.R.D.S.T.U.V.V.G.H.j.h 9 W./ / ( ( ~ ~ ) ) > , , ' { ~ ) ) ) ) ~ { ",
"{ / ( _ _ _ ( / { { / / ( _ : : c.4.4.} } : X.T.Y.Z.`.`. +.+.+.+ +++@+#+$+%+%+%.-.Q 0 g / ( ( _ { ~ ~ ) > , , ' { { ~ ) ) ~ { { ",
"/ ( _ _ _ _ ( / : : : : : : : : c.} ( ~ , ' ; &+*+@+@+=+-+;+;+>+,+@+'+)+G.%. .,.G x I k i ~ > , ' , > ) ~ ~ ) ) / { > ' ' , > ) ",
"{ { / ( ( / { { _ ( ( ( ( / / / { ~ ~ ) ) > > !+*+~+>+++=+=+,+{+,+]+^+U./+:.~.|...W ).U 6 ) ) ) , > ) ~ { { ~ ~ / { ) , ' , > ~ ",
"> ) ~ { { ~ ) > / { { ~ ) > > , - ' > { / { ~ h (+_+M.J.F._+:+:+&+`.E.O.f.| ).W :.f R k D > ~ { ) ~ { / ( ( / / ( { ) , , , ) ~ ",
"' , > ) ) > , ' ~ ) ) > ' ' ; - - , { _ : <+[+H R.}+|+D.1+2+C.S.2+1+P.P.( | -._.R :.).W I > ~ / ~ { ( _ _ _ _ ( ( / ~ > , > ) { ",
"; ' , , , , ' ; > > , , ' ; ; ; ~ / : 4.3+4+*.c I.r.}.8.v.s.k.k.s.s.|+v.5+i 5.6+=.@.,.2.7+> ~ / { / ( _ : : _ _ _ / ~ > > ) ~ { ",
"; ' , , , , ' ; , , > > > > > > _ : : : 3+4+8+F 9+A.k.q.w.s.w.0+a+y.%+].( b+..9.6.m.c+c+7+> ~ { { { ( _ _ _ _ ( : ( { ) > ) { / ",
"; ' , > > , ' ; , > > ) { / / ( ( / { ~ d+e+8+f+9+n.n.I.Q.g+T.~+~+E.L.G.( -.h+i+@.|.j+W :.:.) ) ~ { / ( _ ( ( / : ( { ) ) ~ { / ",
"' , , > > , , ' , > ) { ( _ : } ) > , ' k+b l.F l+w.B.w.Z.`.)+^+m+=+X.( ( f.$.=.6+n+*.I I f D , ) ~ { / ( ( / / : _ { ~ ) ~ { / ",
"- - ' ' , ' ' ; ~ ~ ~ ~ ) > ' ; > > , , , , o+p+H.S.8.0+q+Z.r+;+{+U.s+{ { { w -.b+f i k l l i ) { / _ : : _ / { ( _ ~ ; ' ( / , ",
"- ; ' , , ' ; ; , > ) ) ) > ' ' , , , , , , , , {.t+0++.q+r+r+r+:+s+!+{ { { { { ( U [ z d d 1 ~ / ( : } : _ / ~ ( _ ~ ; , ( / , ",
"; ; ' , , ' ; - - ; ' , > , , ' , , , , , , , /+$+u+R.].*+r+;+Z.!+G.{ { { { { { : _ < [ h < / / _ : } 4.} _ { ~ ( _ { ' > _ ( ' ",
"; ' , , ' ; - ! = ! ; ' , , , ' ' ' ' , , > > v+[.w+x+t.K._+.+H.y+y+{ { { { { { _ _ 5+].< / { { } 4.c.c.4.: / ~ ( _ / > ) : ( ' ",
"' , , , ' ; ! ! = ! ; ' , , , ' ; ; ' , , > ) ) 8 z+U A+H.t.H B+C+4 { { { { { { / / ].{ ~ ~ ) ) } 4.V V V 4._ ( / : ( ) { } ( ' ",
", , , , ' ; ! = - ; ' , > , , ' - ; ' ' > > ) ~ ' , D+E+W.n+B+F+b+B+| { { { { { { { { ~ ~ ) ) > : 4.V G+G+V 4.} / : _ ~ / } ( ' ",
"> > > , ' - = # , > ) ) ) > ' ' - - ; ' > ) ~ ~ - ; H+:.F+I+J+K+C [+C+{ { { { { ( / / { { ~ ~ ~ _ : c.G+g.g.G+V / : : / ( 4._ ; ",
"> > > , ' - = # ~ ~ ~ ~ ) > ' ; ! - ; ' > ) ~ { ! b+f+K+L+L+J+K+9+e.{ { { { { { _ _ _ ( ( / / / / _ c.g.7 M+7 g./ : : / _ c._ ; ",
"- - ; ; ' ' , , ) > > , , > ) ~ ~ ) , ' ; ; ; ' e.B+L+N+O+O+P+f+d+{ ~ ) ) ~ { / } ( ) > ~ / / { c.4.c.G+M+M+V } / { ' ! > } : > ",
"; ' ' ' , , > > > > , , , > ~ ~ / { ~ ) ) ) ) ~ d+Q+R+S+L+P+K+f+) ) > > > , , , _ { > > { _ _ ( / / ( 4.g.M+g.V / / , - ) 4.} > ",
"' ' ' , , > > ) > , , , , ) ~ { ( ( ( _ _ _ : : / d+d+d+3+d+T+U+~ ~ ~ ~ ) > ' ; { ) > ) _ 4.4.4.: _ : 4.g.7 G+c.( ( ) ' { V 4.) ",
"; ; ; ' ' , , , > , , , > ~ { / _ _ } 4.c.c.c.c.( _ : } } } : _ { / ( ( / ~ > ' ~ > > { } V G+V V+7 V V G+V } ( _ _ { > ( g.c.~ ",
"! - - - ; ; ' ' ) ) ) ) ~ / _ : : } c.G+G+G+G+V 4.4.c.c.c.4.} } ~ ~ { { ~ ) , , { ~ ~ ( c.g.G+c.7 V } : } } _ { : : ( { } M+G+{ ",
"- - ; ; ' ' , , { { { / ( : 4.V c.V 7 M+V+M+g.G+7 7 M+M+M+7 G+V > , ' ; ' ' > > : _ _ } V G+c.: { > ' > { _ : _ } 4.: _ V p+g.{ ",
", , > > ) ) ~ ~ ( ( ( _ } c.g.7 M+p+W+D+D+<.M+g.M+M+V+V+M+7 G+V { ) , ; ' ~ _ 4.V c.4.c.G+V : { ~ , ' , / } 4.4.} c.4.} g.<.7 / ",
"~ ~ { { / / ( ( _ _ : } c.G+7 V+W+E+X+Y+X+D+p+M+G+G+g.g.G+c.4.} c.: { ) { } 7 W+7 g.V G+G+c.( > V } / / : c.c.4.4.V 4.4.7 W+M+( "};
