/* XPM */
static char *b8f2c3932874408ce24321b1505fd0c5hCLvabCRP7JOcinZ[] = {
/* columns rows colors chars-per-pixel */
"64 64 237 2 ",
"   c #000000",
".  c #0A0301",
"X  c #040A01",
"o  c #0C0A02",
"O  c #02020B",
"+  c #08090B",
"@  c #130D04",
"#  c #1B0D00",
"$  c #140405",
"%  c #1D1502",
"&  c #191509",
"*  c #050414",
"=  c #1A1718",
"-  c #0C120E",
";  c #220D00",
":  c #231500",
">  c #2B1B02",
",  c #241C0B",
"<  c #2C1A09",
"1  c #251807",
"2  c #331400",
"3  c #341D0B",
"4  c #351905",
"5  c #241D12",
"6  c #2B1B12",
"7  c #2D1D1B",
"8  c #241C1A",
"9  c #361B16",
"0  c #1F2012",
"q  c #2C230B",
"w  c #2B210A",
"e  c #3C2103",
"r  c #34240B",
"t  c #372B0A",
"y  c #252215",
"u  c #2B2314",
"i  c #2B2916",
"p  c #2B251A",
"a  c #26271C",
"s  c #332513",
"d  c #392614",
"f  c #342C14",
"g  c #392B13",
"h  c #34251A",
"j  c #342D1B",
"k  c #3A2D1D",
"l  c #38271D",
"z  c #373114",
"x  c #3B3114",
"c  c #3C331C",
"v  c #3A361D",
"b  c #171824",
"n  c #0E142C",
"m  c #251924",
"M  c #251936",
"N  c #1A232B",
"B  c #292824",
"V  c #352D22",
"C  c #3A2E23",
"Z  c #352A28",
"A  c #3C3322",
"S  c #3A3526",
"D  c #2A2B38",
"F  c #303234",
"G  c #461A06",
"H  c #432307",
"J  c #4A340B",
"K  c #523A08",
"L  c #452A19",
"P  c #433413",
"I  c #44351C",
"U  c #4B351C",
"Y  c #423A1C",
"T  c #4B3A1C",
"R  c #4F3714",
"E  c #603F1E",
"W  c #413524",
"Q  c #433A23",
"!  c #4B3D25",
"~  c #443C2A",
"^  c #4C3D2B",
"/  c #453C33",
"(  c #4A401D",
")  c #4C422B",
"_  c #4B4328",
"`  c #5C4625",
"'  c #54452A",
"]  c #594D2C",
"[  c #554629",
"{  c #4D4633",
"}  c #574A35",
"|  c #5F5434",
" . c #634B2B",
".. c #664B34",
"X. c #665539",
"o. c #7A4B32",
"O. c #7F623B",
"+. c #7A6A26",
"@. c #1C1E47",
"#. c #1C2742",
"$. c #1A2E56",
"%. c #292A49",
"&. c #392A46",
"*. c #212753",
"=. c #323554",
"-. c #1A2765",
";. c #122C6E",
":. c #273778",
">. c #2E3669",
",. c #354472",
"<. c #464B5E",
"1. c #714E4A",
"2. c #776B48",
"3. c #52517D",
"4. c #884626",
"5. c #924629",
"6. c #8B5336",
"7. c #8B7328",
"8. c #897953",
"9. c #9A7B50",
"0. c #AE7855",
"q. c #817B7B",
"w. c #8C4D46",
"e. c #C97F69",
"r. c #9B8129",
"t. c #98853D",
"y. c #BDA13D",
"u. c #C8A83A",
"i. c #C6A32B",
"p. c #8C8452",
"a. c #B88158",
"s. c #BFA74F",
"d. c #978763",
"f. c #B48B79",
"g. c #BC926C",
"h. c #B9A662",
"j. c #CAA951",
"k. c #C4A846",
"l. c #D99E78",
"z. c #C88F6B",
"x. c #D6A67B",
"c. c #E2AC7E",
"v. c #323E92",
"b. c #162985",
"n. c #2E428E",
"m. c #2749A0",
"M. c #595F81",
"N. c #546A96",
"B. c #586998",
"V. c #536D84",
"C. c #636782",
"Z. c #606C9E",
"A. c #5367AE",
"S. c #4D65B3",
"D. c #4E66B7",
"F. c #5368B6",
"G. c #556EAE",
"H. c #546AC3",
"J. c #4B64C9",
"K. c #AD938B",
"L. c #BCB998",
"P. c #B2A69A",
"I. c #B4AFAB",
"U. c #BCBBA6",
"Y. c #B8BAA9",
"T. c #ACB2BE",
"R. c #B6BAB6",
"E. c #A9AFAF",
"W. c #8B978B",
"Q. c #CBA88C",
"!. c #D5AB89",
"~. c #CEA797",
"^. c #D6A996",
"/. c #C8B89A",
"(. c #D3B791",
"). c #CFB58C",
"_. c #E4A989",
"`. c #ECAB91",
"'. c #E6BC99",
"]. c #C9B6B7",
"[. c #CBB5AD",
"{. c #E6BFA0",
"}. c #BFC4AD",
"|. c #B8C2B4",
" X c #ACC0BF",
".X c #C8C19A",
"XX c #DFDAB8",
"oX c #CCC3AA",
"OX c #EADAAE",
"+X c #FDD4AC",
"@X c #FFD0A4",
"#X c #EBCDB4",
"$X c #FECEB6",
"%X c #FCCFB8",
"&X c #EAD7B8",
"*X c #FED3B3",
"=X c #FED3BA",
"-X c #FDDBBB",
";X c #F8D7B5",
":X c #F1CDAB",
">X c #EBE1BA",
",X c #F2E3B8",
"<X c #9DB2CA",
"1X c #9CAAD6",
"2X c #ACB6C9",
"3X c #B7BCC7",
"4X c #ADB7D6",
"5X c #B1B5D5",
"6X c #93ADEF",
"7X c #9DB4EB",
"8X c #A9B5E7",
"9X c #A8BCFB",
"0X c #B0BBF3",
"qX c #AEC5D3",
"wX c #BDC3DB",
"eX c #B2C1CB",
"rX c #B4C1EA",
"tX c #ABC1FF",
"yX c #B4C4FF",
"uX c #DCDAC7",
"iX c #CECFD0",
"pX c #EDDDC4",
"aX c #E6DCC7",
"sX c #FED4C2",
"dX c #F9D9C3",
"fX c #E3DED6",
"gX c #F9D7C9",
"hX c #DEE0DB",
"jX c #E6E2CA",
"kX c #F5E2C2",
"lX c #E4E5D5",
"zX c #D5DDE8",
"xX c #D4DEEE",
"cX c #E2DDE6",
"vX c #D8E4F0",
"bX c #DFE2E9",
"nX c #F9F5F4",
/* pixels */
"                                                      O O   O                   O         O X                                   ",
"                                      X                                                                                         ",
"                                                                                                                                ",
"                                                                                                                                ",
"                                O                                                                                               ",
"                                                                                                                                ",
"                                                                                                                                ",
"                                                                      O           O   .                                         ",
"                                          X               +     +             +     O       O                                   ",
"                                              X O O O         .                           O                                     ",
"                                      X       O   +       X       O       X     O       O                                       ",
"                                X                   .                 o         X                                               ",
"                                    O       .       . . y y y y p           @             X                                     ",
"                                    X           . . , u } A _ z A u u . . . y y a & o                                           ",
"                                          .   o = V { Q _ z T P Q j h , s i j p S S 5 .                                         ",
"                                  O   O     o 5 ~ { W c x [ [ [ Q ! I s f , i ~ A W S 5 .                                       ",
"                                    O O     u A { k W ~ ' ' | _ ` Q ( z z f , j c } Q 6 . .   X                                 ",
"                                    O O   p k U ^ A ) ' ` ! _ X.U  .T ( z i w A ' P c 7 .     .                                 ",
"                                .         s U ` ] P P  .` ` J ` ..U [ ] z v A , ! ! k p .                                       ",
"                                . .   . , d  . .T T [ X. . .P t ' X.t z v A i s q Q s 6 .                                       ",
"                                    X X c T ` T } ..{ v R ` X.) W q ! t Y A i , A q j 5                                         ",
"                                *   X y T [ T ' } ! z z ] U } ..) x z v u j S h ~ V y - .   .                                   ",
"                                O O X i Y Y r { S c P oXt _ s } } v v z A l C 5 , y         . .                                 ",
"                                  O o i { c I W < t #X#X&Xt ~ j Y v w c c h Z 5 &   X         O                                 ",
"                                    $ l C { A I 2 &X;X+XdX#Xs Q z z s l < S V y                                                 ",
"                                X   . . 7 < j t :X;XQ.dX^.[.d q x x ' I l < Z 5 X     X     . O                                 ",
"                                    o   Z 6 d dX#X-Xf.1.1.K.Q.(.e e T U h W p p                                                 ",
"                                  + O     6 ..sX-XdX9 7 I.P.^.+X!.H H d ^ s y .               O                                 ",
"                                  O *     o 3 %X=XsXC.B nXnX:X@X_.!.sXL 4 u A &               O                                 ",
"                                  O   X O   2 sXsXsX{ F nXaX*Xc.l._.o.1.3 k S B                                                 ",
"                                  .   +     h ~.%X$X%XgXgXpX-X@Xl.`.4.G q q ) 0 .             O                                 ",
"                                . .       + . 3 f.=X=X%XdXdX+X_.z.4.G 4 > z v V 8 -     +                                       ",
"                                  . X   + O   $ 4 z.Q.*X$X`.z.5.5.o.!.).r Y z V m   X     O                                     ",
"                                O     X       . /.!.-X6.4.5.5.5.c.'.>X).).q > V F F   X   O X                                   ",
"                                  O + O   +     pX(./.H z.z.x.!.).OXL.L.&XkX/.Y.N N   X     O X                                 ",
"                                      O       oX).&X/./.g.l.(.(.>XuX}.lXuX/.I.iX<.N     .   + O                                 ",
"                                X X X   + O Y.aX.X>XXX>XOX#XpXpXOXP.cXcXR.R.Z.1XC.M m . . o   O                                 ",
"                                          O D R.XXL.jXjXlXjXjXuX/.[.5XM.=.2X8XZ.%.F m 5 .     .                                 ",
"                                  O O O   O %.5X3XY.2X XR.Y.|.|.R.zXB.-.&.&.M D m S V & . .                                     ",
"                                O * O     O >.B.4XrXN.N.<XqXqXqX<X7XD.v.3.].].K.9 C { i .                                       ",
"                                O     +   O * $.:.D.D.S.G.tXtX6XF.D.J.n.M K.Q.!...U d W 5     X                                 ",
"                                  .       - - n :.;.6X7XS.S.F.A.F.b.H.-.b 4 =X*X^.2 3 Z a   X                                   ",
"                                  .   X + X o S #.,.2X5X1X,.*.*.$.N.Z.%.8 , 3 2 4 s < W 7     X                                 ",
"                                +     .   % 2.v |.E.fXR.vXxXcXzXxXvX3X3X  , 9 L < 4 3 2 d .   O                                 ",
"                                  X   . ; 8.e P jXkXaXpXuXY././.Y.Y.fXuX& 5 ~.{.sX-X!.l.0.$ .                                   ",
"                                X   + $ ; 8.9.J % .X/.L.}.Y.}.U.hXiX].B   1 ^.`.$X'.a.a.0.$ . O                                 ",
"                                      . : O.9.K % >X>XjX XV.B.;.;.Z.=.M O 9 w.e.-X*XE 2 4 4                                     ",
"                                    O . # T 6.J & }.XX}.rXN.n.H.m.S.>.* * 8 1.sX{.d.e d d s 7                                   ",
"                                    O . + @ # & D zXpXU.wXrX9XtXA.-.@.*     6 9 1 s 5 W c c 5 .                                 ",
"                                O   O     X   - C.bXU.[.wX9X9X9X*.@.n       @ $ . Z p ) j j u .                                 ",
"                                      X     O b 3.T.|.B :.9XtXrXn M * O         $   y p S y o                                   ",
"                                        X   O = F eXW.N M.,.qXD = = .     . . . . @ & B y o o .                                 ",
"                                              $ = 0 Z = D N v p.% _ @ X O O .       B   +                                       ",
"                                      .   . . . + X & & & d.p.+.1 p.,   O O O     X       O +                                   ",
"                                  X       .   .   . # 4 +.t.r.7.w 2.%   O O O   X   X   O O   O                                 ",
"                                X   +         . . 1 K 7.k.k.r.7.% >   . O O       X       O O                                   ",
"                                      .   O O   > p.k.u.i.i.j.K : @ .     O       X           O                                 ",
"                                O .       O     : h.s.y.k.j.7.K @ o               X           O                                 ",
"                                O       X       . : : : ; : # % . O                         .                                   ",
"                                O     X   X O X . . .   .   X     O O       X                                                   ",
"                                .     X     O O O $       X     O O   X                                                         ",
"                                              O O . O X     O O O               O                                               ",
"                                                    X X . O O                 O           X X                                   ",
"                                X O   O   . X   O   X     O   X                                                                 "
};
