/* XPM */
static char * right2_xpm[] = {
"64 64 298 2",
"  	c #AEAEAE",
". 	c #AFAFAF",
"+ 	c #ACACAC",
"@ 	c #ABABAB",
"# 	c #AAAAAA",
"$ 	c #ADADAD",
"% 	c #B1B1B1",
"& 	c #B4B4B4",
"* 	c #B0B0B0",
"= 	c #A9A9A9",
"- 	c #A7A7A7",
"; 	c #A6A6A6",
"> 	c #A3A3A3",
", 	c #A4A4A4",
"' 	c #A5A5A5",
") 	c #A2A2A2",
"! 	c #A8A8A8",
"~ 	c #A1A1A1",
"{ 	c #A0A0A0",
"] 	c #B3B3B3",
"^ 	c #B2B2B2",
"/ 	c #9F9F9F",
"( 	c #9E9E9E",
"_ 	c #9D9D9D",
": 	c #9C9C9C",
"< 	c #9B9B9B",
"[ 	c #828281",
"} 	c #302A29",
"| 	c #818181",
"1 	c #777676",
"2 	c #2F2928",
"3 	c #767574",
"4 	c #251D0C",
"5 	c #251C13",
"6 	c #331D1A",
"7 	c #38271D",
"8 	c #3B2C1A",
"9 	c #3B2D21",
"0 	c #493729",
"a 	c #767675",
"b 	c #7C7C7C",
"c 	c #2C2625",
"d 	c #352A26",
"e 	c #2C2A13",
"f 	c #747473",
"g 	c #2B2314",
"h 	c #443521",
"i 	c #2A1D0B",
"j 	c #3B2C14",
"k 	c #423C23",
"l 	c #989898",
"m 	c #2A1D15",
"n 	c #332413",
"o 	c #402B26",
"p 	c #717170",
"q 	c #24250D",
"r 	c #3D341C",
"s 	c #443C2B",
"t 	c #3D3323",
"u 	c #373124",
"v 	c #7C7C7B",
"w 	c #231502",
"x 	c #533D23",
"y 	c #211816",
"z 	c #252414",
"A 	c #3A3518",
"B 	c #4A3B24",
"C 	c #44381B",
"D 	c #534436",
"E 	c #3A3A23",
"F 	c #4C442B",
"G 	c #7F7F7E",
"H 	c #2A1D1A",
"I 	c #2C150D",
"J 	c #332B12",
"K 	c #33311B",
"L 	c #757473",
"M 	c #2C251B",
"N 	c #1A140B",
"O 	c #392A0E",
"P 	c #352B1D",
"Q 	c #534429",
"R 	c #462D16",
"S 	c #33251D",
"T 	c #8D8D8D",
"U 	c #828282",
"V 	c #272819",
"W 	c #1C1402",
"X 	c #2C260B",
"Y 	c #888888",
"Z 	c #33260D",
"` 	c #341501",
" .	c #D9C1AA",
"..	c #351C03",
"+.	c #878887",
"@.	c #2A230D",
"#.	c #24170A",
"$.	c #361A08",
"%.	c #EAC3AD",
"&.	c #FED4BA",
"*.	c #39210B",
"=.	c #2C1C03",
"-.	c #1C2310",
";.	c #2B1503",
">.	c #E8C4B3",
",.	c #F8D7C3",
"'.	c #FDCCB7",
").	c #FBDCCA",
"!.	c #231B04",
"~.	c #312B2A",
"{.	c #F8BEB2",
"].	c #DD9B8D",
"^.	c #FFCEC3",
"/.	c #C6A89A",
"(.	c #848484",
"_.	c #230E01",
":.	c #C6BAA7",
"<.	c #BB9480",
"[.	c #794D43",
"}.	c #884C42",
"|.	c #AC886E",
"1.	c #EBE6BB",
"2.	c #9A9A9A",
"3.	c #828181",
"4.	c #431A03",
"5.	c #4D1B0D",
"6.	c #FDD4C1",
"7.	c #BBB595",
"8.	c #9EB69C",
"9.	c #B2B2A3",
"0.	c #1C1B12",
"a.	c #F4D5BE",
"b.	c #7A5548",
"c.	c #80807F",
"d.	c #E8A686",
"e.	c #E39C80",
"f.	c #E8E1C7",
"g.	c #E0FEE2",
"h.	c #DFFFEA",
"i.	c #8A7972",
"j.	c #999999",
"k.	c #959595",
"l.	c #969696",
"m.	c #7B4C3D",
"n.	c #8B4A34",
"o.	c #E49F78",
"p.	c #E5A57A",
"q.	c #D4A888",
"r.	c #FBD9BB",
"s.	c #F8F3DF",
"t.	c #838383",
"u.	c #84492B",
"v.	c #FFCCAF",
"w.	c #CBB59A",
"x.	c #929292",
"y.	c #2B0B02",
"z.	c #422806",
"A.	c #7E492A",
"B.	c #C98872",
"C.	c #FFD4B4",
"D.	c #939393",
"E.	c #D6B594",
"F.	c #D5B28A",
"G.	c #9B9A9A",
"H.	c #E9DCC4",
"I.	c #C5BA96",
"J.	c #C8B888",
"K.	c #F4D8B3",
"L.	c #1A1E22",
"M.	c #282638",
"N.	c #AEB8BC",
"O.	c #E8DAAC",
"P.	c #E8AA93",
"Q.	c #B5897B",
"R.	c #E8DBBA",
"S.	c #1D2B45",
"T.	c #2E437A",
"U.	c #B8C3EF",
"V.	c #B8BAC9",
"W.	c #BEBCB3",
"X.	c #DBE2C1",
"Y.	c #BEC08F",
"Z.	c #D3BE7F",
"`.	c #8F8F8F",
" +	c #5A69A8",
".+	c #92AEF8",
"++	c #5C688D",
"@+	c #ADB5C1",
"#+	c #B6BAB7",
"$+	c #DDE6DA",
"%+	c #B5B78F",
"&+	c #F3E4BC",
"*+	c #F8D8AF",
"=+	c #EFDDB3",
"-+	c #818281",
";+	c #747472",
">+	c #273466",
",+	c #585FAF",
"'+	c #98ABEA",
")+	c #EAE3B3",
"!+	c #B8B7A7",
"~+	c #261F40",
"{+	c #272862",
"]+	c #23275D",
"^+	c #D7DCF0",
"/+	c #C8B9C0",
"(+	c #CBAEB0",
"_+	c #332F30",
":+	c #5F4F66",
"<+	c #97B1E7",
"[+	c #B3BEF7",
"}+	c #B3B9DB",
"|+	c #5267B5",
"1+	c #6769A2",
"2+	c #23224E",
"3+	c #D7A892",
"4+	c #4869C5",
"5+	c #A3BAFF",
"6+	c #4E74C9",
"7+	c #132B6C",
"8+	c #00042C",
"9+	c #CCA481",
"0+	c #596791",
"a+	c #4565BC",
"b+	c #3E68BA",
"c+	c #C49270",
"d+	c #010313",
"e+	c #2B4E86",
"f+	c #9CB4DC",
"g+	c #22324C",
"h+	c #8F734E",
"i+	c #8B6B37",
"j+	c #DAD8D6",
"k+	c #DFDACD",
"l+	c #A87C61",
"m+	c #797878",
"n+	c #290A12",
"o+	c #795419",
"p+	c #6A4B1A",
"q+	c #75562B",
"r+	c #E4DBD7",
"s+	c #928161",
"t+	c #AC7E5A",
"u+	c #797877",
"v+	c #754C0B",
"w+	c #4A5577",
"x+	c #744D16",
"y+	c #6E4E15",
"z+	c #130A01",
"A+	c #1B255D",
"B+	c #463405",
"C+	c #737175",
"D+	c #ACACE6",
"E+	c #4A5290",
"F+	c #8A8A89",
"G+	c #513E14",
"H+	c #170C14",
"I+	c #8B8B8A",
"J+	c #777776",
"K+	c #1F2C34",
"L+	c #656696",
"M+	c #7A7A79",
"N+	c #777675",
"O+	c #9B8A52",
"P+	c #958446",
"Q+	c #343344",
"R+	c #161733",
"S+	c #979797",
"T+	c #86702B",
"U+	c #A58532",
"V+	c #8A6B13",
"W+	c #757574",
"X+	c #9B8432",
"Y+	c #A67F20",
"Z+	c #563D00",
"`+	c #2F2A29",
" @	c #888787",
".@	c #998239",
"+@	c #949494",
"@@	c #A48429",
"#@	c #846C23",
"$@	c #C5A547",
"%@	c #BEAB50",
"&@	c #BFA939",
"*@	c #787776",
"=@	c #C6A934",
"-@	c #BDA743",
";@	c #9A8229",
">@	c #D1B246",
",@	c #7E713B",
"'@	c #706F6E",
")@	c #727170",
"!@	c #9B7F27",
"~@	c #909090",
"{@	c #919191",
"]@	c #8E8E8E",
"^@	c #8C8C8C",
"/@	c #8B8B8B",
"  . . .   + @ # @ $ .   $   % & * *   + @ = - - # @ + $ $ + @ # %   @ # # = ; > > , ' ' ' ' , > > ) ; + @ ' ; + + - ' ! - ~ { > ",
"$ $ $ $ $ + @ @ @ $     + $ % & * .   + @ = ! - @ + $ $ $ $ + @ %   @ # @ # - , > > , ' ' , > > ) ~ ' @ # , ' @ $ ! ; = ! ) ~ , ",
"# # @ @ @ + + + # + $ $ + + * ] . .   + @ = ! ! + $         $ + %   @ @ @ @ ! ' > > > > > > > > ~ { , = ! > , #   = ! @ = > ) ; ",
"! ! ! ! = # + + = @ + + # @ . ^ .   $ + @ # = ! + $   . .   $ + * $ # # @ @ ! ; , > > ) ) > > , ~ { ) - ; ~ > # . # = + # , > - ",
"- ; ; ; ; ! # @ - = @ # = # $ %   $ $ + @ # # = + + $     $ + +   @ = = # # ! ' , > ) ~ ~ ) > , ) { ) ; ' ~ , @ . # = + # , > - ",
"- ; , > , ' ! = ; ! # = ! = + . $ $ + + @ @ # # # @ + + + + @ # @ ! ; - ! = ; , , > ~ / / ~ > , , ~ > ; ' ) ' $   = ! @ = > ) ; ",
"= - , ) ~ > ' - ' - = ! - ! @ . + + + + @ @ @ @ ! = # @ @ # = ! ! ; , , ; - ' ) , ) { ( ( { ) , ; > , - ; > - . $ ! ; = ! ) ~ , ",
"= - , ~ { ~ > ' ' - ! ! - - @   + + + + @ @ @ @ - ! = = = = ! - ; , ) > ' ' , ~ , ) { ( ( { ) , - , , ! - > ! * + - ' ! - ~ { > ",
"- ; ; ' , ) ) ~ ' ; - ! ! ! - ; $ + @ = = ! = = - ! ! = ! - ; ' > > > , , ' ' ' > > ) ~ ~ ) > , ; ' , , ' ! @ $ + @ ! ) _ ( , # ",
"- ; ' , > ) ~ ~ , ' - ! = = ! ! + @ # = ! ! ! = ; - - - - ; , > > > > , , ' ' ' , > ) ~ { ~ ~ ) ' , > , ; = +   + + = > / / ' @ ",
"; ; ' , > ) ~ ~ ) , ; ! = # # # @ # ! - - - ! ! , ' ' ; ' , > ) > > > , , ' ' ' ; ' > ~ / ( ( ( > ) ) > ; # $ * $ + = ' ~ ) - @ ",
"; ' , > ) ~ { { { ) , - = # # # ! - ; ' ' ; - - > > , , , ) ~ { > > > , , ' ' ' ! ; > ~ ( _ : : ~ ~ ) > ; # . %   + = ' , ' = @ ",
"' ' , > ) ~ { / / { ) ' - ! ! = ' ' , > , , ' ; ) > > > > ) { { > > > , , ' ' ' = - ' ~ / _ : < ~ ~ ) > ; # . % $ @ - ' ; ! = # ",
", , > ) ~ { / / _ ( { ) , ' ' ' > ) ) ~ ) > , ' > > , , > ) ~ { > > > , , ' ' ' # = ; > { / ( ( > ) ) > ; # $ * + ! ' , - = = ! ",
", , > ) ~ { / ( : _ / { ~ ~ { { ~ { { { ~ ) , , , , ' ' , > ) ~ > > > , , ' ' ' @ = - , ) ~ ~ ~ ' , > , ; = +   # ; > > - = ! ; ",
", > > ~ { / / ( : _ ( / / ( ( _ { / / / { ) > , , ' ' [ } | 1 1 > > > , , ' ' ' @ # ! ' , > > > ; ' , , ' ! @ $ = ' ~ ) ; = - , ",
", > > ) ~ / / ( ( ( / / { { ~ ~ / / 2 3 4 _ > > ) 5 5 6 7 8 9 0 4 a ~ ~ ) > ' ; ) $ * - { ) > { ' ) / { , - - - > ) ) ) > ' ; - ",
", > ) ~ { / ( ( : : _ _ ( ( / / _ b c d 4 e f f a g 7 9 7 h i h j k 1 l ' - = # ,   * ! ~ ~ ) / ) ~ ) ' = = - , ~ ~ ) > ' ! # + ",
"> > ) ~ { / ( ( < < < : _ _ _ ( m n o 6 o m p q q e e r 0 r s j e t t u v +   . - . % = ~ { { / ~ ) ' # $ + ! > ~ ) > ' ! @   * ",
"> ) ~ { / ( _ _ : : : _ _ ( ( ( w j x d 6 y z e q A A B C D E k 8 8 g F g G . * @ . % @ > ( ( / , , ; # $ $ # ; ; ; ; - = +   * ",
") ) ~ { / ( _ : ( ( ( / / { { { 4 i 9 s c H I g C C B J F r K C B j j 8 h g )   + . * $ ' ( ( ~ = - ' ; # + + @ @ @ # = # @ + + ",
"~ ~ { / ( _ : : ( / / / { ~ ~ ~ L M t u N 5 9 n h C j F k A C r F A O B h o ; @ $ $ . . - ( ( , # - , , ! @ + +   $ @ # = # # @ ",
"~ ~ { / ( _ : < _ _ ( ( / / { { z 5 z g q 4 9 9 P q F C J O x Q Q A j R Q x S T + @   * = ( / - ; ' , ; # @ # ! @ @ # = = # @ + ",
"~ { { ( _ : : < < < : : _ _ ( ( U M q V W g H M z A e X C Q Q R J B Q C R 0 9 P + # $ * # / { # ) ) ' = $ + ! , ! ! ! ! # @ $   ",
": _ ( / / / ( ( { { { { { { { { , Y m u 4 M M 5 S P Z C Q Q j B X O j Q B 8 h 9 H #     # ; , > = # # @ + $ $   # - ' ; = @ # = ",
"_ _ ( / / / ( ( / / / / / / / / ) ) a 5 < z M S 5 8 n B C Z h `  ...O j r X S h 5 @ $ + = ' , ' = # # @ + + $ $ # - ' ; = + + @ ",
"( ( ( ( ( ( ( ( / / / / / / / / / { ~ ) +.V g @.n #.u t m j $.%.&.%.*.=.e K K t g # @ # ; , ' - = = # # @ @ @ @ = ; ' ; # $ $ + ",
"{ / ( _ _ _ _ ( ( ( ( ( ( ( ( ( : ( ~ > +.z i =.n i V -.t ;.>.,.'.).>.!.q V E K ~.# # - , , ; = = = = = = = = # ! ; , ; # $   $ ",
"~ { ( _ : : _ ( ( ( ( ( ( ( ( ( < _ { ~ -.-.q !.X E K c N $.{.].^./.). .X e q , - = = - , > ; = ! ! ! ! ! ! ! - ! ' , ' = @ + @ ",
"> ~ ( : < : _ ( _ _ _ _ _ _ _ _ < : ( / (.q X e e h w _.:./.<.[.}.|.).).1.i #.V , - ! - ' , ; ! ! ! - - ; ; ; ; ! ' > > ; ! ! ; ",
", ) / : 2.< _ ( _ _ _ _ _ _ _ _ _ : : : < 3.-.K ..4.5.].6.7.8.9.0.I ,.,.a.b.m ) ~ ' ! = - ' ' ; ! - - ; ' ' , , ! ' ) ) > ' > ) ",
"' ) / < 2.< : ( : : : : : : : : ( _ < 2.c.z 0.#.4.'.d.e.&.f.g.h.y i.,.6.6.` > ) / , = # ! ' , , ! - - ; ' , , > ! ' ~ ~ ) ) ~ / ",
", > { ( : < 2.2._ _ : < 2.2.j.j.k.l.l 2.V d c I m.n.o.p.q.r.f.s.0 0 ).a.a.` > > { ~ ~ ) > , , ' ! - - ; ' , , > > , ' ' ' ' , > ",
", ) { ( : < < < : : : < < < 2.2.l l j.< t.E 5 _.4.u.p.p.v.&.'.,.,.,.a.a.w.i > ) { ~ ~ ) > > , , - - ; ; ' , , > > > , ' ' , > > ",
"> ) { ( : < < < < < < < : : : _ < : : x.z g n ;.y.z.A.B.d.v.C.C.'.&.&.<.;.> ) ) ~ ~ ~ ) ) > > > ; ; ; ' ' , , , ) > , ' ' , > ) ",
") ~ / _ : : : : 2.2.< : _ _ ( ( / ( ( D.z q J ;.E.F.E.n.u.B.d.v.&.q.|...> ) ) ~ ~ ~ ~ ~ ~ ) ) ) ' ' ' , , , , , ) ) > , , > ) ) ",
"~ { / _ : : : _ < < : : _ ( / / / / G.c V -.q H.I.J.K.q.E.A.n.n.}.n.,.w.I.~ ~ ~ ~ ~ ~ ~ ~ { { { > > > , , , , , ~ ) > > > > ) ~ ",
"~ { ( _ _ _ _ ( : _ _ _ ( ( ( ( ( ( L.c M.N.9.H.1.I.I.O.F.E.P.B.Q.R w.w.R.~ { { ~ ~ ~ { { / / / ) ) ) > > , , , { ~ ) > > ) ~ { ",
"{ / ( _ _ _ ( ( / / ( ( ( _ _ _ < < L.S.T.U.V.W.X.X.Y.1.O.J.Z.F.Q.E.w.H.I.:.{ { ) ~ ~ { / / ( ( ~ ~ ) ) > , , ' { ~ ) ) ) ) ~ { ",
"{ / ( _ _ _ ( / { { / / ( _ : : j.2.`.S. +.+++@+#+$+X.%+&+*+O.O.=+=+=+f.7.H.k { ) ~ ~ { / ( ( _ { ~ ~ ) > , , ' { { ~ ) ) ~ { { ",
"/ ( _ _ _ _ ( / : : : : : : : : j.-+;+a >+,+'+'+T.++V.:.w.K.&+)+)+O.)+Y.H.!+{ ~ ~ { { / { ~ > , ' , > ) ~ ~ ) ) / { > ' ' , > ) ",
"{ { / ( ( / { { _ ( ( ( ( / / / { a J 5 ~+{+>+{+{+]+++^+/+(+!+!+#+#+#+!+#+_+{ ~ { { { ~ ~ ) ) ) , > ) ~ { { ~ ~ / { ) , ' , > ~ ",
"> ) ~ { { ~ ) > / { { ~ ) > > , d } 9 @.d H /./.(+:+ +.+<+[+}+U.'+|+ +[+1+2+{ ~ _ / ~ > > > ~ { ) ~ { / ( ( / / ( { ) , , , ) ~ ",
"' , > ) ) > , ' ~ ) ) > ' ' ; - d } 9 j g i q.&.3+#. +4+4+5+5+5+4+6+4+|+7+8+{ ~ : ( ) , ' > ~ / ~ { ( _ _ _ _ ( ( / ~ > , > ) { ",
"; ' , , , , ' ; > > , , ' ; ; ; d M w @.d I 9+'.r.g 0+7+a+a+6+b+4+.+.+7+8+/ { ~ : ( ) , ' > ~ / { / ( _ : : _ _ _ / ~ > > ) ~ { ",
"; ' , , , , ' ; , , > > > > > > S ;.Z J 5 I [.^.c+R d+0+>+7+7+e+<+<+f+g+( / { ~ _ / ~ > > > ~ { { { ( _ _ _ _ ( : ( { ) > ) { / ",
"; ' , > > , ' ; , > > ) { / / ( ( ` ;.*.g N 5.h+i+u.O 5 j+j+$+j+#+k+W.#+( / { ~ { { { ~ ~ ) ) ) ~ { / ( _ ( ( / : ( { ) ) ~ { / ",
"' , , > > , , ' , > ) { ( _ : < ) l+9+3+m+n+y.5.i+o+p+q+*.w.I.)+O.)+r+j+( / { ~ ~ { { / { ~ > , ) ~ { / ( ( / / : _ { ~ ) ~ { / ",
"- - ' ' , ' ' ; ~ ~ ~ ~ ) > ' ; > s+t+t+, , ' u+p+v+u...$.;.I.J.J.%+V.w+{ { { { { { { ~ ~ ) ) ) { / _ : : _ / { ( _ ~ ; ' ( / , ",
"- ; ' , , ' ; ; , > ) ) ) > ' ' , *.4.y., , , , p+x+v+y+0 z+I.)+)+$+0+A+{ { { { ( ( ( / / { { ~ / ( : < : _ / ~ ( _ ~ ; , ( / , ",
"; ; ' , , ' ; - - ; ' , > , , ' 5 8 n ;., , , , B+y+v+p+0 0.C+9.1.#+D+E+{ { { { : _ _ ( ( / / / _ : < 2.< _ { ~ ( _ { ' > _ ( ' ",
"; ' , , ' ; - ! = ! ; ' , , , H M S F+g , > > > 1 z.y+G+H+C+#+V.H.r+D+E+{ { { { _ _ ( ( / / { { < 2.j.j.2.: / ~ ( _ / > ) : ( ' ",
"' , , , ' ; ! ! = ! ; ' , , , z u I+j., , > ) ) , J+~ / K+>+++N.!+f.L+A+{ { { { / / { { ~ ~ ) ) < 2.l l l 2._ ( / : ( ) { < ( ' ",
", , , , ' ; ! = - ; ' , > , , ' M+; ' ' Y > N+3 B+O+P+C+Q+++w+N.I.7.Q+R+{ { { { { { { ~ ~ ) ) > : 2.l S+S+l 2.< / : _ ~ / < ( ' ",
"> > > , ' - = # , > ) ) ) > ' ' - - ~ ' > ) B+T+U+U+V+h+i.M.:+d J.Z.h+W+{ { { { ( / / { { ~ ~ ~ _ : j.S+l.l.S+l / : : / ( 2._ ; ",
"> > > , ' - = # ~ ~ ~ ~ ) > ' ; ! - ; ' > ) T+X+Y+Y+Z+B+w `+ @1 .@X+P+w { { { { _ _ _ ( ( / / / / _ j.l.k.+@k.l./ : : / _ j._ ; ",
"- - ; ; ' ' , , ) > > , , > ) ~ ~ ) , ' ; ; P+X+@@V+Z+!.> > > J+X+@@#@;.) ~ { / < ( ) > ~ / / { j.2.j.S++@+@l < / { ' ! > < : > ",
"; ' ' ' , , > > > > , , , > ~ ~ / { ~ ) ) ) N+.@$@$@%@f ( ( ( i+X+&@V+Z+;.*@, , _ { > > { _ _ ( / / ( 2.l.+@l.l / / , - ) 2.< > ",
"' ' ' , , > > ) > , , , , ) ~ { ( ( ( _ _ _ : i+$@=@=@-@p < w h+;@>@=@$@X+,@u+; { ) > ) _ 2.2.2.: _ : 2.l.k.S+j.( ( ) ' { l 2.) ",
"; ; ; ' ' , , , > , , , > ~ { / _ _ < 2.j.j.j.'@T+@@&@$@p < )@G+.@!@U+!@X+P+w ' ~ > > { < l S+l D.k.l l S+l < ( _ _ { > ( l.j.~ ",
"! - - - ; ; ' ' ) ) ) ) ~ / _ : : < j.S+S+S+S+l 2.2.'@w j.2.-.< w _.;.y.w w , , { ~ ~ ( j.l.S+j.k.l < : < < _ { : : ( { < +@S+{ ",
"- - ; ; ' ' , , { { { / ( : 2.l j.l k.+@D.+@l.S+k.k.+@+@+@k.S+l > , ' ; ' ' > > : _ _ < l S+j.: { > ' > { _ : _ < 2.: _ l x.l.{ ",
", , > > ) ) ~ ~ ( ( ( _ < j.l.k.+@x.~@`.`.{@+@l.+@+@D.D.+@k.S+l { ) , ; ' ~ _ 2.l j.2.j.S+l : { ~ , ' , / < 2.2.< j.2.< l.{@k./ ",
"~ ~ { { / / ( ( _ _ : < j.S+k.D.~@]@^@/@^@`.x.+@S+S+l.l.S+j.2.< j.: { ) { < k.~@k.l.l S+S+j.( > l < / / : j.j.2.2.l 2.2.k.~@+@( "};
