/* XPM */
static char *_ab11c03ef764e92e86f735a518dd27e7gwVwnRa93ebt4et[] = {
/* columns rows colors chars-per-pixel */
"64 64 240 2 ",
"   c #000000",
".  c #0B0201",
"X  c #010901",
"o  c #0C0B04",
"O  c #02010A",
"+  c #0B010C",
"@  c #010909",
"#  c #0D0D0E",
"$  c #130101",
"%  c #130A01",
"&  c #1C0D00",
"*  c #11010E",
"=  c #151300",
"-  c #1C1402",
";  c #1A140B",
":  c #141A0C",
">  c #1C1B0B",
",  c #171508",
"<  c #010313",
"1  c #060716",
"2  c #1B1512",
"3  c #1C1B12",
"4  c #151815",
"5  c #170C14",
"6  c #230E01",
"7  c #2B0B02",
"8  c #231502",
"9  c #2B1503",
"0  c #231B04",
"q  c #2C1C03",
"w  c #24170A",
"e  c #251D0C",
"r  c #2A1D0B",
"t  c #2C150D",
"y  c #341501",
"u  c #351C03",
"i  c #361A08",
"p  c #251C13",
"a  c #2A1D15",
"s  c #2A1D1A",
"d  c #211816",
"f  c #331D1A",
"g  c #290A12",
"h  c #1C2310",
"j  c #24250D",
"k  c #2A230D",
"l  c #2C260B",
"z  c #39210B",
"x  c #392A0E",
"c  c #33260D",
"v  c #252414",
"b  c #2B2314",
"n  c #2C2A13",
"m  c #2C251B",
"M  c #272819",
"N  c #332413",
"B  c #332B12",
"V  c #3B2C14",
"C  c #33251D",
"Z  c #352B1D",
"A  c #3B2C1A",
"S  c #38271D",
"D  c #33311B",
"F  c #3D341C",
"G  c #3A3518",
"H  c #00042C",
"J  c #1A1E22",
"K  c #161733",
"L  c #211A22",
"P  c #1F2C34",
"I  c #2C2625",
"U  c #3B2D21",
"Y  c #352A26",
"T  c #373124",
"R  c #3D3323",
"E  c #3A3A23",
"W  c #282638",
"Q  c #332F30",
"!  c #431A03",
"~  c #4D1B0D",
"^  c #422806",
"/  c #463405",
"(  c #563D00",
")  c #462D16",
"_  c #44381B",
"`  c #513E14",
"'  c #443521",
"]  c #423C23",
"[  c #4A3B24",
"{  c #443C2B",
"}  c #493729",
"|  c #533D23",
" . c #402B26",
".. c #754C0B",
"X. c #6A4B1A",
"o. c #744D16",
"O. c #795419",
"+. c #6E4E15",
"@. c #4C442B",
"#. c #534429",
"$. c #534436",
"%. c #7E492A",
"&. c #7B4C3D",
"*. c #75562B",
"=. c #7E713B",
"-. c #261F40",
";. c #1B255D",
":. c #1D2B45",
">. c #22324C",
",. c #343344",
"<. c #23275D",
"1. c #23224E",
"2. c #132B6C",
"3. c #272862",
"4. c #273466",
"5. c #2C3F77",
"6. c #2E437A",
"7. c #794D43",
"8. c #7A5548",
"9. c #4A5577",
"0. c #737175",
"q. c #5F4F66",
"w. c #8A6B13",
"e. c #8B4A34",
"r. c #84492B",
"t. c #846C23",
"y. c #86702B",
"u. c #9B7F27",
"i. c #8B6B37",
"p. c #A67F20",
"a. c #884C42",
"s. c #8F734E",
"d. c #AC7E5A",
"f. c #8A7972",
"g. c #A87C61",
"h. c #9A8229",
"j. c #9B8432",
"k. c #998239",
"l. c #A48429",
"z. c #A58532",
"x. c #BFA939",
"c. c #C6A934",
"v. c #958446",
"b. c #9B8A52",
"n. c #BDA743",
"m. c #BEAB50",
"M. c #928161",
"N. c #B5897B",
"B. c #AC886E",
"V. c #C5A547",
"C. c #D1B246",
"Z. c #C98872",
"A. c #C49270",
"S. c #E49F78",
"D. c #D3BE7F",
"F. c #E5A57A",
"G. c #3E68BA",
"H. c #2B4E86",
"J. c #4A5290",
"K. c #5C688D",
"L. c #596791",
"P. c #656696",
"I. c #585FAF",
"U. c #5A69A8",
"Y. c #4565BC",
"T. c #5267B5",
"R. c #6769A2",
"E. c #4869C5",
"W. c #4E74C9",
"Q. c #BB9480",
"!. c #9EB69C",
"~. c #BBB595",
"^. c #B5B78F",
"/. c #B8B7A7",
"(. c #AEB8BC",
"). c #BEBCB3",
"_. c #B6BAB7",
"`. c #B2B2A3",
"'. c #DD9B8D",
"]. c #E39C80",
"[. c #D4A888",
"{. c #C8B888",
"}. c #D5B28A",
"|. c #C6A89A",
" X c #D7A892",
".X c #CBB59A",
"XX c #C5BA96",
"oX c #D6B594",
"OX c #CCA481",
"+X c #E8A686",
"@X c #E8AA93",
"#X c #C6BAA7",
"$X c #CBAEB0",
"%X c #F8BEB2",
"&X c #BEC08F",
"*X c #D9C1AA",
"=X c #CDCFB0",
"-X c #EAC3AD",
";X c #FFCCAF",
":X c #E8DAAC",
">X c #F8D8AF",
",X c #E8C4B3",
"<X c #FDCCB7",
"1X c #EFDDB3",
"2X c #E8DBBA",
"3X c #FFD4B4",
"4X c #F4D5BE",
"5X c #FED4BA",
"6X c #FBD9BB",
"7X c #F4D8B3",
"8X c #EAE3B3",
"9X c #EBE6BB",
"0X c #F3E4BC",
"qX c #9CB4DC",
"wX c #ADB5C1",
"eX c #B8BAC9",
"rX c #B3B9DB",
"tX c #98ABEA",
"yX c #97B1E7",
"uX c #92AEF8",
"iX c #ACACE6",
"pX c #A3BAFF",
"aX c #B3BEF7",
"sX c #C8B9C0",
"dX c #B8C3EF",
"fX c #DFDACD",
"gX c #DAD8D6",
"hX c #E9DCC4",
"jX c #FDD4C1",
"kX c #FBDCCA",
"lX c #F8D7C3",
"zX c #E4DBD7",
"xX c #FFCEC3",
"cX c #DBE2C1",
"vX c #DDE6DA",
"bX c #E8E1C7",
"nX c #F8F3DF",
"mX c #D7DCF0",
"MX c #DFFFEA",
"NX c #E0FEE2",
/* pixels */
"                                                                                                                                ",
"                                                                                                                                ",
"                                                                                                                                ",
"                                                                                                                                ",
"                                                                                                                                ",
"                                                                                                                                ",
"                                                                                                                                ",
"                                                                                                                                ",
"                                                      @       .                                                                 ",
"                                                                                                                                ",
"                                                  @                                                                             ",
"                                                                                                                                ",
"                                                            O                                                                   ",
"                                                @                                                                               ",
"                                                        @                                                                       ",
"                                                    . 2 d 2 3 3                                                                 ",
"                                O   d - e , .     p p f S A U } e >   .       .   .     @   .                                   ",
"                                  2 I Y e n - > > b S U S ' r ' V ] 3 4   . . . . .                                             ",
"                                a N  .f  .a > j j n n F } F { V n R R T 3                                                       ",
"                                8 V | Y f d v n j G G [ _ $.E ] A A b @.b 3 X                                                   ",
"                                e r U { I s t b _ _ [ B @.F D _ [ V V A ' b 4                                                   ",
"                                - m R T ; p U N ' _ V @.] G _ F @.G x [ '  .,           O     O                                 ",
"                                v p v b j e U U Z j @._ B x | #.#.G V ) #.| C ;   X X                                           ",
"                                ; m j M - b s m v G n l _ #.#.) B [ #._ ) } U Z                                                 ",
"                                o ; a T e m m p C Z c _ #.#.V [ l x V #.[ A ' U s             X                                 ",
"                                  o 3 p , v m C p A N [ _ c ' y *Xu x V F l C ' p . O O O @                                     ",
"                                . .   X : M b k N w T R a V i -X5X-Xz q n D D R b . . O O O                                     ",
"                                .       : v r q N r M h R 9 ,XlX<XkX,X0 j M E D d . . O                                         ",
"                                O   @   h h j 0 l E D I ; i %X'.xX|.kX*Xl n j = .   . O O                                       ",
"                                O     . : j l n n ' 8 6 #X|.Q.7.a.B.kXkX9Xr w M       O O                                       ",
"                                    .   o ; h D u ! ~ '.jX~.!.`.3 t lXlX4X8.a . . @                                             ",
"                                .       ; v 3 w ! <X+X].5XbXNXMXd f.lXjXjXy $ . O @                                             ",
"                                    . O M Y I t &.e.S.F.[.6XbXnX} } kX4X4Xy $ $ . O           .                                 ",
"                                .     O ; E p 6 ! r.F.F.;X5X<XlXlXlX4X4X.Xr $ .   @                                             ",
"                                .     4 v b N 9 7 ^ %.Z.+X;X3X3X<X5X5XQ.9 . o                 .                                 ",
"                                    # 4 v j B 9 oX}.oXe.r.Z.+X;X5X[.B.u $       X   X                                           ",
"                                + 1 5 I M h j hXXX{.7X[.oX%.e.e.a.e.lX.XXX    @ O                                               ",
"                                O O J I W (.`.hX9XXXXX:X}.oX@XZ.N.) .X.X2X@       O   O O                                       ",
"                                    J :.6.dXeX).cXcX&X9X:X{.D.}.N.oX.XhXXX#Xo   O . O + + O                                     ",
"                                @   4 :.U.uXK.wX_.vXcX^.0X>X:X:X1X1X1XbX~.hX] .     O O O O                                     ",
"                                  : > 3 4.I.tXtX6.K.eX#X.X7X0X8X8X:X8X&XhX/..               @                                   ",
"                                O 3 B p -.3.4.3.3.<.K.mXsX$X/./._._._./._.Q           X                                         ",
"                                Y d U k Y s |.|.$Xq.U.uXyXaXrXdXtXT.U.aXR.1.1 @     X       .                                   ",
"                                Y d U V b r [.5X Xw U.E.E.pXpXpXE.W.E.T.2.H < O                                                 ",
"                                Y m 8 k Y t OX<X6Xb L.2.Y.Y.W.G.E.uXuX2.H @ O     . .     O                                     ",
"                                C 9 c B p t 7.xXA.) < L.4.2.2.H.yXyXqX>.O @ X         O   O                                     ",
"                              . . y 9 z b ; ~ s.i.r.x p gXgXvXgX_.fX)._.@ .         @ O O                                       ",
"                                . g.OX X& g 7 ~ i.O.X.*.z .XXX8X:X8XzXgX      X       O O     O                                 ",
"                              . $ M.d.d.$ . o & X...r.u i 9 XX{.{.^.eX9.< @   . .   O         O                                 ",
"                        @       . z ! 7 $ . . o X.o...+.} % XX8X8XvXL.;.< X +   O O     .     O                                 ",
"                                p A N 9 *     o / +...X.} 3 0.`.9X_.iXJ.1 X   +             O                                   ",
"                            # s m C ; b .   o . & ^ +.` 5 0._.eXhXzXiXJ.1   @       O O O                                       ",
"                            # v T ; 4 o         % - % . P 4.K.(./.bXP.;.< X X X     @ < +                                       ",
"                                > =     : . - - / b.v.0.,.K.9.(.XX~.,.K     X       O O   @                                     ",
"                        @ O     .   5     = / y.z.z.w.s.f.W q.Y {.D.s.> .   @     @   O                                         ",
"                                          % y.j.p.p.( / 8 d ; & k.j.v.8 . . O             X                                     ",
"                                .     .   = v.j.l.w.( 0 .   X - j.l.t.9 . .   O     O O                                         ",
"                                    . .     - k.V.V.m.- . X = i.j.x.w.( 9 & .     O O                                           ",
"                                      O . . % i.V.c.c.n.- . 8 s.h.C.c.V.j.=.-                                                   ",
"                                @ @     O . $ & y.l.x.V.- . - ` k.u.z.u.j.v.8     .     .   @                                   ",
"                                O   @   . .   . = = - 8 =   h = 8 6 9 7 8 8 o @                                                 ",
"                                @               o   $     .   X     . $ .   @ @             O                                   ",
"                                      o   . o     1   . * O   X X   $ . O   @ @ @         O O                                   ",
"                                O .     X       O < 1 + + + X X   X   . + O @         @       O                                 "
};
