/* XPM */
static char * saphir_xpm[] = {
"64 64 223 2",
"  	c #AEAEAE",
". 	c #AFAFAF",
"+ 	c #ACACAC",
"@ 	c #ABABAB",
"# 	c #AAAAAA",
"$ 	c #ADADAD",
"% 	c #B1B1B1",
"& 	c #B4B4B4",
"* 	c #B0B0B0",
"= 	c #A9A9A9",
"- 	c #A7A7A7",
"; 	c #A6A6A6",
"> 	c #A3A3A3",
", 	c #A4A4A4",
"' 	c #A5A5A5",
") 	c #A2A2A2",
"! 	c #A8A8A8",
"~ 	c #A1A1A1",
"{ 	c #A0A0A0",
"] 	c #B3B3B3",
"^ 	c #B2B2B2",
"/ 	c #9F9F9F",
"( 	c #9E9E9E",
"_ 	c #9D9D9D",
": 	c #9C9C9C",
"< 	c #9B9B9B",
"[ 	c #444964",
"} 	c #2A3354",
"| 	c #414765",
"1 	c #51566E",
"2 	c #2B355A",
"3 	c #4C546D",
"4 	c #4E5878",
"5 	c #3D4769",
"6 	c #4B5574",
"7 	c #9A9A9A",
"8 	c #999999",
"9 	c #444D6D",
"0 	c #222E58",
"a 	c #222E53",
"b 	c #3E4B65",
"c 	c #414A71",
"d 	c #21336B",
"e 	c #293559",
"f 	c #203678",
"g 	c #283869",
"h 	c #313A46",
"i 	c #636C7B",
"j 	c #313A69",
"k 	c #2A468A",
"l 	c #354155",
"m 	c #7986A3",
"n 	c #545D79",
"o 	c #45528B",
"p 	c #333F73",
"q 	c #293D7B",
"r 	c #677288",
"s 	c #2A3D72",
"t 	c #3A4B75",
"u 	c #324472",
"v 	c #2D406D",
"w 	c #42537B",
"x 	c #445171",
"y 	c #333E64",
"z 	c #455080",
"A 	c #3B4464",
"B 	c #29334B",
"C 	c #384772",
"D 	c #39445B",
"E 	c #333E52",
"F 	c #989898",
"G 	c #2F3953",
"H 	c #313D5C",
"I 	c #3C4F7B",
"J 	c #2C3242",
"K 	c #3A425A",
"L 	c #58647E",
"M 	c #6B7A97",
"N 	c #364063",
"O 	c #2C3A62",
"P 	c #354A78",
"Q 	c #1F2743",
"R 	c #617091",
"S 	c #687999",
"T 	c #1F284F",
"U 	c #55668E",
"V 	c #7586AE",
"W 	c #6377A0",
"X 	c #30406E",
"Y 	c #2C4272",
"Z 	c #394A6F",
"` 	c #242E4E",
" .	c #516496",
"..	c #738ABA",
"+.	c #959595",
"@.	c #969696",
"#.	c #697FB6",
"$.	c #5B72A3",
"%.	c #2A4379",
"&.	c #4B629B",
"*.	c #728AC3",
"=.	c #4B64A4",
"-.	c #4B68A6",
";.	c #39559B",
">.	c #415592",
",.	c #4560AA",
"'.	c #4D68B0",
").	c #5975B2",
"!.	c #6580B5",
"~.	c #465C8C",
"{.	c #294E96",
"].	c #6483C9",
"^.	c #3E5AA2",
"/.	c #25478A",
"(.	c #2C4B8D",
"_.	c #3C528C",
":.	c #7F91B3",
"<.	c #9AB0D1",
"[.	c #6C8AD9",
"}.	c #5776C6",
"|.	c #5674AC",
"1.	c #5670A0",
"2.	c #3663AE",
"3.	c #6F92D1",
"4.	c #6182C3",
"5.	c #3656A4",
"6.	c #455EB8",
"7.	c #4B5E98",
"8.	c #3B5394",
"9.	c #8BA1D0",
"0.	c #A1B6E9",
"a.	c #5571BE",
"b.	c #4361B7",
"c.	c #526FAC",
"d.	c #2552A6",
"e.	c #839DE3",
"f.	c #748ADC",
"g.	c #526BBC",
"h.	c #374E92",
"i.	c #6682DA",
"j.	c #375196",
"k.	c #3C5C9C",
"l.	c #3B61A8",
"m.	c #1843A1",
"n.	c #466DBA",
"o.	c #657FC5",
"p.	c #354C8E",
"q.	c #5878C8",
"r.	c #506EC5",
"s.	c #364B83",
"t.	c #384E86",
"u.	c #31518B",
"v.	c #4A69AB",
"w.	c #3B5CAB",
"x.	c #324F99",
"y.	c #335CAA",
"z.	c #14336C",
"A.	c #5578B7",
"B.	c #7691D6",
"C.	c #154392",
"D.	c #22417F",
"E.	c #0B285E",
"F.	c #455892",
"G.	c #2E4A87",
"H.	c #0C357B",
"I.	c #19418C",
"J.	c #142A56",
"K.	c #244E9A",
"L.	c #4C5E93",
"M.	c #162F6E",
"N.	c #203F7F",
"O.	c #103A8A",
"P.	c #0D3891",
"Q.	c #062365",
"R.	c #1D4184",
"S.	c #2D549A",
"T.	c #1D4896",
"U.	c #1B326B",
"V.	c #12337A",
"W.	c #073382",
"X.	c #042A8B",
"Y.	c #022474",
"Z.	c #143878",
"`.	c #0A3C8C",
" +	c #3D5184",
".+	c #042C77",
"++	c #06317E",
"@+	c #012B83",
"#+	c #042C7A",
"$+	c #1C3A79",
"%+	c #01236D",
"&+	c #011C74",
"*+	c #123B80",
"=+	c #04296D",
"-+	c #0E3789",
";+	c #0D2B73",
">+	c #193171",
",+	c #0A2269",
"'+	c #013193",
")+	c #05318D",
"!+	c #09399A",
"~+	c #052599",
"{+	c #01136D",
"]+	c #05207A",
"^+	c #08298B",
"/+	c #001480",
"(+	c #000766",
"_+	c #172F9C",
":+	c #041E84",
"<+	c #001A7A",
"[+	c #021C6F",
"}+	c #00169B",
"|+	c #012484",
"1+	c #979797",
"2+	c #949494",
"3+	c #939393",
"4+	c #929292",
"5+	c #909090",
"6+	c #8F8F8F",
"7+	c #919191",
"8+	c #8E8E8E",
"9+	c #8C8C8C",
"0+	c #8B8B8B",
"  . . .   + @ # @ $ .   $   % & * *   + @ = - - # @ + $ $ + @ # %   @ # # = ; > > , ' ' ' ' , > > ) ; + @ ' ; + + - ' ! - ~ { > ",
"$ $ $ $ $ + @ @ @ $     + $ % & * .   + @ = ! - @ + $ $ $ $ + @ %   @ # @ # - , > > , ' ' , > > ) ~ ' @ # , ' @ $ ! ; = ! ) ~ , ",
"# # @ @ @ + + + # + $ $ + + * ] . .   + @ = ! ! + $         $ + %   @ @ @ @ ! ' > > > > > > > > ~ { , = ! > , #   = ! @ = > ) ; ",
"! ! ! ! = # + + = @ + + # @ . ^ .   $ + @ # = ! + $   . .   $ + * $ # # @ @ ! ; , > > ) ) > > , ~ { ) - ; ~ > # . # = + # , > - ",
"- ; ; ; ; ! # @ - = @ # = # $ %   $ $ + @ # # = + + $     $ + +   @ = = # # ! ' , > ) ~ ~ ) > , ) { ) ; ' ~ , @ . # = + # , > - ",
"- ; , > , ' ! = ; ! # = ! = + . $ $ + + @ @ # # # @ + + + + @ # @ ! ; - ! = ; , , > ~ / / ~ > , , ~ > ; ' ) ' $   = ! @ = > ) ; ",
"= - , ) ~ > ' - ' - = ! - ! @ . + + + + @ @ @ @ ! = # @ @ # = ! ! ; , , ; - ' ) , ) { ( ( { ) , ; > , - ; > - . $ ! ; = ! ) ~ , ",
"= - , ~ { ~ > ' ' - ! ! - - @   + + + + @ @ @ @ - ! = = = = ! - ; , ) > ' ' , ~ , ) { ( ( { ) , - , , ! - > ! * + - ' ! - ~ { > ",
"- ; ; ' , ) ) ~ ' ; - ! ! ! - ; $ + @ = = ! = = - ! ! = ! - ; ' > > > , , ' ' ' > > ) ~ ~ ) > , ; ' , , ' ! @ $ + @ ! ) _ ( , # ",
"- ; ' , > ) ~ ~ , ' - ! = = ! ! + @ # = ! ! ! = ; - - - - ; , > > > > , , ' ' ' , > ) ~ { ~ ~ ) ' , > , ; = +   + + = > / / ' @ ",
"; ; ' , > ) ~ ~ ) , ; ! = # # # @ # ! - - - ! ! , ' ' ; ' , > ) > > > , , ' ' ' ; ' > ~ / ( ( ( > ) ) > ; # $ * $ + = ' ~ ) - @ ",
"; ' , > ) ~ { { { ) , - = # # # ! - ; ' ' ; - - > > , , , ) ~ { > > > , , ' ' ' ! ; > ~ ( _ : : ~ ~ ) > ; # . %   + = ' , ' = @ ",
"' ' , > ) ~ { / / { ) ' - ! ! = ' ' , > , , ' ; ) > > > > ) { { > > > , , ' ' ' = - ' ~ / _ : < ~ ~ ) > ; # . % $ @ - ' ; ! = # ",
", , > ) ~ { / / _ ( { ) , ' ' ' > ) ) ~ ) > , ' > > , , > ) ~ [ > > > , , ' ' ' # = ; > { / ( ( > ) ) > ; # $ * + ! ' , - = = ! ",
", , > ) ~ { / ( : _ / { ~ ~ { { ~ { { { ~ ) , , , , ' ' , > ) [ > > > , , ' ' ' @ = - , ) ~ ~ ~ ' , > , ; = +   # ; > > - = ! ; ",
", > > ~ { / / ( : _ ( / / ( ( _ { / / / { ) > , , ' ' ' ' , } | 1 > > , , ' ' ' @ # ! ' , > > > ; ' , , ' ! @ $ = ' ~ ) ; = - , ",
", > > ) ~ / / ( ( ( / / { { ~ ~ / / { ~ ) ) > > ) ) > , , > 2 | 1 ~ ~ ~ ) > ' ; ) $ * - { ) > { ' ) / { , - - - > ) ) ) > ' ; - ",
", > ) ~ { / ( ( : : _ _ ( ( / / _ ( ( ( / / / / ~ ~ ) ) ) 2 2 | 3 4 ) , ' - = # ,   * ! ~ ~ ) / ) ~ ) ' = = - , ~ ~ ) > ' ! # + ",
"> > ) ~ { / ( ( < < < : _ _ _ ( _ : : : < < < < / / / / / } 2 5 6 6 , ; = +   . - . % = ~ { { / ~ ) ' # $ + ! > ~ ) > ' ! @   * ",
"> ) ~ { / ( _ _ : : : _ _ ( ( ( ( _ _ : < 7 8 8 ( _ _ : : } 2 | 3 9 9 - @ $ . * @ . % @ > ( ( / , , ; # $ $ # ; ; ; ; - = +   * ",
") ) ~ { / ( _ : ( ( ( / / { { { { / / ( _ : < < _ : < 7 0 a } b 9 9 c ; # +     + . * $ ' ( ( ~ = - ' ; # + + @ @ @ # = # @ + + ",
"~ ~ { / ( _ : : ( / / / { ~ ~ ~ { { { / / / ( ( ( _ < 8 d e } [ 3 9 c ' = @ @ @ $ $ . . - ( ( , # - , , ! @ + +   $ @ # = # # @ ",
"~ ~ { / ( _ : < _ _ ( ( / / { { ( ( ( / / { { { / _ < 8 f g h i 4 9 c j = # # = + @   * = ( / - ; ' , ; # @ # ! @ @ # = = # @ + ",
"~ { { ( _ : : < < < : : _ _ ( ( : : _ ( / / { { { ( < f f k l m n 9 o p # @ # = + # $ * # / { # ) ) ' = $ + ! , ! ! ! ! # @ $   ",
": _ ( / / / ( ( { { { { { { { { , > ~ { / { ~ ~ _ _ _ d d q b r 4 9 o p ) , ' ; - #     # ; , > = # # @ + $ $   # - ' ; = @ # = ",
"_ _ ( / / / ( ( / / / / / / / / ) ) ~ ~ { { / / / / / d g s t 6 5 9 o u s , ' ; ! @ $ + = ' , ' = # # @ + + $ $ # - ' ; = + + @ ",
"( ( ( ( ( ( ( ( / / / / / / / / / { ~ ) ) { ( : { { { a g v w x b y z y A , ' ' = # @ # ; , ' - = = # # @ @ @ @ = ; ' ; # $ $ + ",
"{ / ( _ _ _ _ ( ( ( ( ( ( ( ( ( : ( ~ > ) / : 7 ( ( 3 B 2 C w x b } D E 3 , ' ' = # # - , , ; = = = = = = = = # ! ; , ; # $   $ ",
"~ { ( _ : : _ ( ( ( ( ( ( ( ( ( < _ { ~ ~ ( < F < < r G H t I t b B J K L m , , - = = - , > ; = ! ! ! ! ! ! ! - ! ' , ' = @ + @ ",
"> ~ ( : < : _ ( _ _ _ _ _ _ _ _ < : ( / ( : 7 8 7 7 M N O t P I D h Q A R m , > , - ! - ' , ; ! ! ! - - ; ; ; ; ! ' > > ; ! ! ; ",
", ) / : 7 < _ ( _ _ _ _ _ _ _ _ _ : : : < < 7 7 7 < S t H u u t l l T e U V , ) ~ ' ! = - ' ' ; ! - - ; ' ' , , ! ' ) ) > ' > ) ",
"' ) / < 7 < : ( : : : : : : : : ( _ < 7 8 8 7 < : V W w H X Y Z l l ` O  ...> ) / , = # ! ' , , ! - - ; ' , , > ! ' ~ ~ ) ) ~ / ",
", > { ( : < 7 7 _ _ : < 7 7 8 8 +.@.F 7 : ( { ~ { #.$. .o s s t l E O %.&.*.> > { ~ ~ ) > , , ' ! - - ; ' , , > > , ' ' ' ' , > ",
", ) { ( : < < < : : : < < < 7 7 F F 8 < _ ( / { { $.=.-.;.k %.>.u l I ,.'.).!.) { ~ ~ ) > > , , - - ; ; ' , , > > > , ' ' , > > ",
"> ) { ( : < < < < < < < : : : _ < : : _ ( ( / / ~ ~.{.].^./.(.>._.:.<.[.}.-.|.) ~ ~ ~ ) ) > > > ; ; ; ' ' , , , ) > , ' ' , > ) ",
") ~ / _ : : : : 7 7 < : _ _ ( ( / ( ( ( ( ( ( ( ) 1.2.3.4.5.6.7.8.9.0.a.b.,.c.~ ~ ~ ~ ~ ~ ) ) ) ' ' ' , , , , , ) ) > , , > ) ) ",
"~ { / _ : : : _ < < : : _ ( / / / / / ( ( _ _ _ ~ c.d.4.e.f.g.7.h.'.i.g.j.^.k.~ ~ ~ ~ ~ ~ { { { > > > , , , , , ~ ) > > > > ) ~ ",
"~ { ( _ _ _ _ ( : _ _ _ ( ( ( ( ( ( ( _ _ _ _ : / l.m.n.e.e.o.>.p.j.q.r.s.t.u.{ ~ ~ ~ { { / / / ) ) ) > > , , , { ~ ) > > ) ~ { ",
"{ / ( _ _ _ ( ( / / ( ( ( _ _ _ < < : : : : : : ( v.d.].e.o.w.h.p.x.y.a._.Y z.{ ) ~ ~ { / / ( ( ~ ~ ) ) > , , ' { ~ ) ) ) ) ~ { ",
"{ / ( _ _ _ ( / { { / / ( _ : : 8 7 7 < < : : : : A.r.B.n.5.8.p.o k C.v.8.D.E.{ ) ~ ~ { / ( ( _ { ~ ~ ) > , , ' { { ~ ) ) ~ { { ",
"/ ( _ _ _ _ ( / : : : : : : : : 8 < ( ~ , ' ; ; / q.[.4.d.{.&.~.F.G.H.;./.I.J.~ ~ { { / { ~ > , ' , > ) ~ ~ ) ) / { > ' ' , > ) ",
"{ { / ( ( / { { _ ( ( ( ( / / / { ~ ~ ) ) > > , / 2.n.y.K./. . .L.s.M.N.O.P.Q.~ { { { ~ ~ ) ) ) , > ) ~ { { ~ ~ / { ) , ' , > ~ ",
"> ) ~ { { ~ ) > / { { ~ ) > > , - ' > { / { ~ ) { R.S.C.T.G.L.>.o t.U.V.W.X.Y.~ _ / ~ > > > ~ { ) ~ { / ( ( / / ( { ) , , , ) ~ ",
"' , > ) ) > , ' ~ ) ) > ' ' ; - - , { _ : _ { ~ ~ Z.S.`.C.(.~.~.p. +M..+++@+Y.~ : ( ) , ' > ~ / ~ { ( _ _ _ _ ( ( / ~ > , > ) { ",
"; ' , , , , ' ; > > , , ' ; ; ; ~ / : 7 < _ ~ > ~ z.S.H.#+W.R.t.p.$+Q.%+.+&+Y.~ : ( ) , ' > ~ / { / ( _ : : _ _ _ / ~ > > ) ~ { ",
"; ' , , , , ' ; , , > > > > > > _ : : : _ { > , ) J.*+=+%+%+%+V.-+++.+Y.;+>+,+~ _ / ~ > > > ~ { { { ( _ _ _ _ ( : ( { ) > ) { / ",
"; ' , > > , ' ; , > > ) { / / ( ( / { ~ ) > , , > > =+%+.+Y.%+@+'+'+O.X.;+V.{ ~ { { { ~ ~ ) ) ) ~ { / ( _ ( ( / : ( { ) ) ~ { / ",
"' , , > > , , ' , > ) { ( _ : < ) > , ' ; ' , , > > Q.Y.)+@+#+@+!+!+m.~+{+]+{ ~ ~ { { / { ~ > , ) ~ { / ( ( / / : _ { ~ ) ~ { / ",
"- - ' ' , ' ' ; ~ ~ ~ ~ ) > ' ; > > , , , , ' ' ' , ) -+X.Y.&+&+@+^+P./+(+{ { { { { { ~ ~ ) ) ) { / _ : : _ / { ( _ ~ ; ' ( / , ",
"- ; ' , , ' ; ; , > ) ) ) > ' ' , , , , , , , , , > ~ { _+:+:+<+<+[+X.}+{ { { { ( ( ( / / { { ~ / ( : < : _ / ~ ( _ ~ ; , ( / , ",
"; ; ' , , ' ; - - ; ' , > , , ' , , , , , , , , > ) ~ / ( _ ~+|+<+{+{ { { { { { : _ _ ( ( / / / _ : < 7 < _ { ~ ( _ { ' > _ ( ' ",
"; ' , , ' ; - ! = ! ; ' , , , ' ' ' ' , , > > > > ) { ( _ _ _ _ { { { { { { { { _ _ ( ( / / { { < 7 8 8 7 : / ~ ( _ / > ) : ( ' ",
"' , , , ' ; ! ! = ! ; ' , , , ' ; ; ' , , > ) ) , > ~ / ( ( ( ( { { { { { { { { / / { { ~ ~ ) ) < 7 F F F 7 _ ( / : ( ) { < ( ' ",
", , , , ' ; ! = - ; ' , > , , ' - ; ' ' > > ) ~ ' , ) ~ { / / { { { { { { { { { { { { ~ ~ ) ) > : 7 F 1+1+F 7 < / : _ ~ / < ( ' ",
"> > > , ' - = # , > ) ) ) > ' ' - - ; ' > ) ~ ~ - ; , ) ~ ~ ~ ~ { { { { { { { { ( / / { { ~ ~ ~ _ : 8 1+@.@.1+F / : : / ( 7 _ ; ",
"> > > , ' - = # ~ ~ ~ ~ ) > ' ; ! - ; ' > ) ~ { ! - ' , ) ) ) > { { { { { { { { _ _ _ ( ( / / / / _ 8 @.+.2++.@./ : : / _ 8 _ ; ",
"- - ; ; ' ' , , ) > > , , > ) ~ ~ ) , ' ; ; ; ' ! - ' , > > > > / { ~ ) ) ~ { / < ( ) > ~ / / { 8 7 8 1+2+2+F < / { ' ! > < : > ",
"; ' ' ' , , > > > > , , , > ~ ~ / { ~ ) ) ) ) ~ ) ~ { / ( ( ( / ) ) > > > , , , _ { > > { _ _ ( / / ( 7 @.2+@.F / / , - ) 7 < > ",
"' ' ' , , > > ) > , , , , ) ~ { ( ( ( _ _ _ : : / ( : < < < : : ~ ~ ~ ~ ) > ' ; { ) > ) _ 7 7 7 : _ : 7 @.+.1+8 ( ( ) ' { F 7 ) ",
"; ; ; ' ' , , , > , , , > ~ { / _ _ < 7 8 8 8 8 ( _ : < < < : _ { / ( ( / ~ > ' ~ > > { < F 1+F 3++.F F 1+F < ( _ _ { > ( @.8 ~ ",
"! - - - ; ; ' ' ) ) ) ) ~ / _ : : < 8 1+1+1+1+F 7 7 8 8 8 7 < < ~ ~ { { ~ ) , , { ~ ~ ( 8 @.1+8 +.F < : < < _ { : : ( { < 2+1+{ ",
"- - ; ; ' ' , , { { { / ( : 7 F 8 F +.2+3+2+@.1++.+.2+2+2++.1+F > , ' ; ' ' > > : _ _ < F 1+8 : { > ' > { _ : _ < 7 : _ F 4+@.{ ",
", , > > ) ) ~ ~ ( ( ( _ < 8 @.+.2+4+5+6+6+7+2+@.2+2+3+3+2++.1+F { ) , ; ' ~ _ 7 F 8 7 8 1+F : { ~ , ' , / < 7 7 < 8 7 < @.7++./ ",
"~ ~ { { / / ( ( _ _ : < 8 1++.3+5+8+9+0+9+6+4+2+1+1+@.@.1+8 7 < 8 : { ) { < +.5++.@.F 1+1+8 ( > F < / / : 8 8 7 7 F 7 7 +.5+2+( "};
